<?xml version="1.0" encoding="UTF-8" standalone="no"?>
<svg
   xmlns:dc="http://purl.org/dc/elements/1.1/"
   xmlns:cc="http://creativecommons.org/ns#"
   xmlns:rdf="http://www.w3.org/1999/02/22-rdf-syntax-ns#"
   xmlns:svg="http://www.w3.org/2000/svg"
   xmlns="http://www.w3.org/2000/svg"
   version="1.1"
   id="svg2"
   xml:space="preserve"
   width="119.65333"
   height="86.73333"
   viewBox="0 0 119.65333 86.73333"><metadata
     id="metadata8"><rdf:RDF><cc:Work
         rdf:about=""><dc:format>image/svg+xml</dc:format><dc:type
           rdf:resource="http://purl.org/dc/dcmitype/StillImage" /><dc:title></dc:title></cc:Work></rdf:RDF></metadata><defs
     id="defs6" /><g
     id="g10"
     transform="matrix(1.3333333,0,0,-1.3333333,0,86.733333)"><g
       id="g12"
       transform="scale(0.1)"><path
         d="m 13.8164,27.7891 c 0.4492,-0.0547 1.0313,-0.0743 1.75,-0.0743 2.4805,0 4.418,0.336 5.8242,1.0313 2.6172,1.2734 3.9102,3.6953 3.9102,7.2617 0,2.1172 -0.582,3.6133 -1.7539,4.4766 -1.1797,0.8672 -2.7422,1.3086 -4.7031,1.3086 -0.7813,0 -1.375,-0.0782 -1.7735,-0.2266 -0.3945,-0.1445 -0.6836,-0.5195 -0.8633,-1.125 L 12.6758,27.9531 c 0.3164,-0.0586 0.6914,-0.1133 1.1406,-0.164 z M 0,11.2461 c 1.17578,0.0859 1.99609,0.3047 2.42969,0.6367 0.69531,0.4961 1.25781,1.5156 1.69531,3.0938 l 6.1953,22.3086 0.4649,1.914 c 0.0507,0.2344 0.0937,0.4414 0.1132,0.6367 0.0274,0.1836 0.0352,0.3438 0.0352,0.4961 0,0.7852 -0.2656,1.3282 -0.8125,1.625 -0.53126,0.293 -1.46485,0.4766 -2.77344,0.5664 v 0.8125 H 19.8008 c 2.5664,0 4.6406,-0.332 6.2109,-0.9687 2.9688,-1.1836 4.4531,-3.4336 4.4531,-6.707 0,-2.0039 -0.5937,-3.7696 -1.7734,-5.3164 -2.2695,-2.9961 -6.3633,-4.5 -12.2656,-4.5 -0.7188,0 -1.4375,0.0312 -2.1445,0.0859 -0.7071,0.0586 -1.3907,0.1562 -2.0469,0.2891 l -2.71877,-9.75 C 9.35156,15.8984 9.23438,15.4258 9.15625,15.0391 9.00391,14.3828 8.92969,13.8789 8.92969,13.5117 c 0,-0.8281 0.25,-1.3906 0.7539,-1.6992 0.49611,-0.3164 1.39451,-0.5039 2.68361,-0.5664 V 10.4336 H 0 v 0.8125"
         style="fill:#231f20;fill-opacity:1;fill-rule:nonzero;stroke:none"
         id="path14" /><path
         d="m 41.3828,32.6836 c 0.0664,-0.0859 0.0899,-0.1992 0.0899,-0.3047 -0.0118,-0.1758 -0.0391,-0.3086 -0.0625,-0.3867 l -2.5157,-9.5703 0.5469,1.1172 c 1.1836,2.3203 2.5625,4.4257 4.1328,6.3398 1.5781,1.9102 3.0821,2.8594 4.5,2.8594 0.7735,0 1.3594,-0.2539 1.7852,-0.7539 0.414,-0.5156 0.6172,-1.0938 0.6172,-1.7539 0,-0.7383 -0.2032,-1.3516 -0.6172,-1.8321 -0.4102,-0.4882 -0.9883,-0.7265 -1.7149,-0.7265 -0.5039,0 -0.8789,0.0976 -1.1367,0.2969 -0.2656,0.207 -0.4609,0.4296 -0.6133,0.6992 l -0.2851,0.5468 c -0.0703,0.0977 -0.1406,0.1758 -0.2305,0.2305 -0.0937,0.0664 -0.2031,0.0899 -0.332,0.0899 -0.6485,0 -1.5742,-0.8985 -2.7891,-2.6797 -1.207,-1.793 -2.289,-3.7227 -3.2422,-5.8164 -0.5742,-1.2618 -1.2187,-2.9375 -1.9336,-5.0235 -0.4453,-1.3125 -1.039,-3.1718 -1.7773,-5.582 h -3.7891 l 4.1328,14.8828 c 0.2305,0.8477 0.418,1.5977 0.5547,2.2734 0.1367,0.6563 0.211,1.1993 0.211,1.625 0,0.4883 -0.1289,0.8594 -0.375,1.125 -0.2461,0.254 -0.6641,0.379 -1.2774,0.379 -0.1992,0 -0.4414,-0.0157 -0.7344,-0.043 -0.2929,-0.0352 -0.6445,-0.0742 -1.0546,-0.125 v 0.8164 l 0.9843,0.1875 c 1.2852,0.2617 2.6914,0.5391 4.211,0.8281 1.5234,0.2969 2.3281,0.4414 2.4062,0.4414 0.1524,0 0.2539,-0.0429 0.3086,-0.1406"
         style="fill:#231f20;fill-opacity:1;fill-rule:nonzero;stroke:none"
         id="path16" /><path
         d="m 62.9766,24.25 c 1.9648,1.7461 2.9453,3.4805 2.9453,5.1953 0,0.625 -0.1446,1.1211 -0.4336,1.4844 -0.2969,0.375 -0.7383,0.5547 -1.3086,0.5547 -1.0547,0 -2.1016,-0.4571 -3.125,-1.3672 -1.0156,-0.9024 -1.9375,-1.9297 -2.7578,-3.0742 -0.8672,-1.3477 -1.5508,-2.6328 -2.0625,-3.8594 -0.2774,-0.6602 -0.5703,-1.4023 -0.8867,-2.2344 3.1289,0.4492 5.6679,1.5625 7.6289,3.3008 z m -7.961,3.3086 c 3.2461,3.3984 6.6016,5.1016 10.0508,5.1016 1.2813,0 2.2969,-0.293 3.0547,-0.8829 0.75,-0.582 1.125,-1.4648 1.125,-2.625 0,-2.3593 -1.375,-4.375 -4.1406,-6.0546 -2.7539,-1.6797 -5.6563,-2.7071 -8.6992,-3.086 l -1.4024,-0.164 c -0.2148,-0.6758 -0.3594,-1.2149 -0.4453,-1.6211 -0.0703,-0.3985 -0.1211,-0.9063 -0.1211,-1.5118 0,-1.4453 0.4688,-2.5703 1.4102,-3.375 0.9375,-0.8046 2.0507,-1.2031 3.3476,-1.2031 1.2188,0 2.5195,0.4102 3.8906,1.2344 0.793,0.4766 1.918,1.3359 3.4063,2.5781 l 0.6445,-0.5742 c -0.7344,-0.9297 -1.789,-1.8945 -3.1679,-2.8672 -2.4297,-1.7734 -4.8829,-2.65233 -7.3321,-2.65233 -1.7461,0 -3.2617,0.62503 -4.5703,1.85543 -1.3086,1.2305 -1.9648,2.9805 -1.9648,5.2774 0,3.6328 1.6328,7.1562 4.914,10.5703"
         style="fill:#231f20;fill-opacity:1;fill-rule:nonzero;stroke:none"
         id="path18" /><path
         d="m 89.5703,28.6367 c -0.4765,1.1992 -1.3789,1.7891 -2.6836,1.7891 -1.1328,0 -2.3672,-0.5625 -3.6953,-1.6836 -1.332,-1.1328 -2.4453,-2.9883 -3.3437,-5.582 -0.7149,-2.0469 -1.3868,-4.1914 -2.0157,-6.4297 -0.6289,-2.2461 -0.9414,-3.5586 -0.9414,-3.9492 0,-0.625 0.2578,-1.0821 0.7657,-1.379 0.5078,-0.2968 1.1171,-0.4453 1.832,-0.4453 2.8515,0 5.3633,1.8243 7.539,5.4649 1.9454,3.2578 2.918,6.4922 2.918,9.6953 0,1.0586 -0.125,1.9062 -0.375,2.5195 z M 66.918,0.859375 c 0.9922,0 1.7304,0.187505 2.2304,0.550785 0.4961,0.37109 0.8711,1.0039 1.0938,1.89062 l 6.7851,23.96092 c 0.1602,0.5938 0.2579,1.0313 0.3008,1.293 0.043,0.2656 0.0586,0.4766 0.0586,0.6211 0,0.5469 -0.1992,0.9531 -0.5937,1.2187 -0.4024,0.2657 -0.9883,0.3907 -1.7539,0.3907 -0.168,0 -0.3203,0 -0.4688,-0.0118 -0.1406,-0.0117 -0.3047,-0.0195 -0.4609,-0.0586 l -0.0508,0.8125 7.9883,1.1524 c 0.0976,0.0156 0.1719,-0.0469 0.2226,-0.1953 -0.0664,-0.2813 -0.1328,-0.4922 -0.1757,-0.6406 l -1.3477,-4.5352 c 1.0742,1.4375 2.0625,2.5352 2.9609,3.2852 1.6211,1.3828 3.3086,2.0664 5.0586,2.0664 1.7852,0 3.1758,-0.5391 4.1992,-1.6329 1.0157,-1.0859 1.5274,-2.746 1.5274,-4.996 0,-3.8438 -1.6211,-7.5 -4.8594,-10.9922 -3.1992,-3.4493 -6.5273,-5.18363 -9.9805,-5.18363 -0.6718,0 -1.2539,0.07812 -1.7265,0.20313 -0.4688,0.1367 -1.0469,0.3633 -1.7305,0.6836 L 75.7773,9.23047 C 75.3438,7.5625 75.0391,6.36719 74.8828,5.64453 74.4492,3.73828 74.2344,2.67969 74.2344,2.43359 c 0,-0.67578 0.2148,-1.10937 0.6484,-1.28515 0.4258,-0.183596 1.2656,-0.308596 2.5352,-0.382815 v -0.71875 h -10.5 v 0.8125"
         style="fill:#231f20;fill-opacity:1;fill-rule:nonzero;stroke:none"
         id="path20" /><path
         d="m 113.746,30.8047 c -0.547,0.5625 -1.211,0.8476 -1.988,0.8476 -2.707,0 -5.211,-2.0585 -7.531,-6.1679 -2.036,-3.6133 -3.051,-6.7227 -3.051,-9.336 0,-1.3203 0.277,-2.2695 0.844,-2.8671 0.57,-0.6094 1.261,-0.9024 2.101,-0.9024 2.465,0 4.848,1.9922 7.145,5.9844 2.203,3.6328 3.304,6.9101 3.304,9.832 0,1.1914 -0.285,2.0547 -0.824,2.6094 z m 0.793,0.9375 c 0.379,-0.3711 0.672,-0.8399 0.895,-1.4297 l 0.129,-0.3359 0.546,1.8437 c 0.071,0.2149 0.137,0.3555 0.18,0.4258 0.051,0.0781 0.172,0.1211 0.352,0.1367 l 2.851,0.3164 c 0.145,0 0.235,-0.0234 0.266,-0.082 0.023,-0.0547 0.015,-0.1563 -0.024,-0.3086 -0.066,-0.2148 -0.117,-0.375 -0.148,-0.5078 -0.035,-0.1172 -0.09,-0.3008 -0.16,-0.5274 l -2.438,-8.7968 c -0.539,-1.9258 -0.976,-3.5782 -1.359,-4.9688 -0.602,-2.5156 -0.906,-3.9492 -0.906,-4.3086 0,-0.2304 0.066,-0.3984 0.187,-0.5039 0.117,-0.1015 0.27,-0.1562 0.457,-0.1562 0.141,0 0.313,0.0429 0.488,0.1445 0.184,0.0977 0.399,0.2422 0.657,0.4492 l 0.441,0.336 c 0.137,0.1171 0.293,0.2421 0.473,0.4023 0.168,0.1523 0.375,0.3477 0.617,0.5742 l 1.613,1.5664 0.594,-0.5078 c -1.766,-2.1797 -3.164,-3.6562 -4.23,-4.4336 -1.063,-0.7812 -2.079,-1.17186 -3.032,-1.17186 -0.629,0 -1.109,0.21876 -1.445,0.63286 -0.332,0.4375 -0.496,0.9648 -0.496,1.6054 0,0.5899 0.105,1.4297 0.332,2.5391 0.219,1.0976 0.434,2.0234 0.641,2.7773 -0.293,-0.4961 -0.79,-1.207 -1.489,-2.1523 -0.687,-0.9414 -1.543,-1.8516 -2.562,-2.7383 -1.196,-1.0625 -2.344,-1.8203 -3.438,-2.2539 -0.859,-0.3008 -1.683,-0.45313 -2.465,-0.45313 -1.324,0 -2.5308,0.55083 -3.609,1.64063 -1.0859,1.0859 -1.6211,2.6406 -1.6211,4.6367 0,3.4492 1.5586,7.0391 4.6721,10.7813 3.219,3.8867 6.547,5.8242 10,5.8242 1.305,0 2.32,-0.332 3.031,-0.9961"
         style="fill:#231f20;fill-opacity:1;fill-rule:nonzero;stroke:none"
         id="path22" /><path
         d="m 131.871,32.6836 c 0.063,-0.0859 0.094,-0.1992 0.094,-0.3047 -0.024,-0.1758 -0.039,-0.3086 -0.067,-0.3867 l -2.503,-9.5703 0.531,1.1172 c 1.183,2.3203 2.558,4.4257 4.137,6.3398 1.582,1.9102 3.074,2.8594 4.496,2.8594 0.765,0 1.359,-0.2539 1.785,-0.7539 0.414,-0.5156 0.625,-1.0938 0.625,-1.7539 0,-0.7383 -0.207,-1.3516 -0.625,-1.8321 -0.414,-0.4882 -0.981,-0.7265 -1.711,-0.7265 -0.496,0 -0.879,0.0976 -1.137,0.2969 -0.262,0.207 -0.465,0.4296 -0.609,0.6992 l -0.293,0.5468 c -0.063,0.0977 -0.145,0.1758 -0.231,0.2305 -0.09,0.0664 -0.203,0.0899 -0.332,0.0899 -0.644,0 -1.574,-0.8985 -2.777,-2.6797 -1.215,-1.793 -2.301,-3.7227 -3.25,-5.8164 -0.578,-1.2618 -1.219,-2.9375 -1.934,-5.0235 -0.441,-1.3125 -1.035,-3.1718 -1.777,-5.582 h -3.781 l 4.125,14.8828 c 0.226,0.8477 0.414,1.5977 0.554,2.2734 0.133,0.6563 0.207,1.1993 0.207,1.625 0,0.4883 -0.125,0.8594 -0.367,1.125 -0.246,0.254 -0.668,0.379 -1.273,0.379 -0.203,0 -0.445,-0.0157 -0.742,-0.043 -0.293,-0.0352 -0.645,-0.0742 -1.055,-0.125 v 0.8164 l 0.98,0.1875 c 1.289,0.2617 2.696,0.5391 4.219,0.8281 1.52,0.2969 2.324,0.4414 2.406,0.4414 0.149,0 0.25,-0.0429 0.305,-0.1406"
         style="fill:#231f20;fill-opacity:1;fill-rule:nonzero;stroke:none"
         id="path24" /><path
         d="m 149.961,38.8867 c -0.469,0.5235 -0.707,1.1602 -0.707,1.8946 0,0.7578 0.238,1.3984 0.707,1.9179 0.477,0.5274 1.055,0.793 1.727,0.793 0.675,0 1.25,-0.2656 1.746,-0.793 0.48,-0.5195 0.726,-1.1601 0.726,-1.9179 0,-0.75 -0.246,-1.3907 -0.726,-1.9024 -0.496,-0.5195 -1.071,-0.7812 -1.746,-0.7812 -0.672,0 -1.25,0.2617 -1.727,0.789 z m 2.324,-6.1523 c 0.086,-0.0547 0.125,-0.1211 0.113,-0.211 l -4.96,-17.5781 c -0.231,-0.9297 -0.348,-1.4922 -0.348,-1.668 0,-0.2539 0.047,-0.4687 0.144,-0.6445 0.09,-0.1992 0.293,-0.2969 0.621,-0.2969 0.551,0 1.29,0.4883 2.208,1.4532 0.539,0.5703 1.207,1.4023 1.992,2.4726 l 0.644,-0.5429 -0.25,-0.3477 c -1.23,-1.7266 -2.246,-2.9727 -3.051,-3.7305 -1.257,-1.1875 -2.488,-1.78513 -3.679,-1.78513 -0.707,0 -1.301,0.30473 -1.758,0.89063 -0.477,0.5859 -0.703,1.3008 -0.703,2.1055 0,0.4726 0.027,0.8906 0.09,1.2461 0.07,0.3554 0.191,0.8789 0.379,1.5664 l 3.507,12.6718 c 0.055,0.1954 0.094,0.375 0.129,0.5352 0.024,0.168 0.047,0.3281 0.047,0.5 0,0.5859 -0.215,0.9531 -0.648,1.0937 -0.434,0.1368 -1.289,0.211 -2.563,0.211 v 0.8086 c 1.344,0.1679 2.313,0.2851 2.906,0.375 0.59,0.0898 1.184,0.1875 1.79,0.2812 0.777,0.1289 1.511,0.2774 2.214,0.4375 0.692,0.1602 1.086,0.2149 1.176,0.1563"
         style="fill:#231f20;fill-opacity:1;fill-rule:nonzero;stroke:none"
         id="path26" /><path
         d="m 155.738,10.4336 4.207,15.1719 c 0.364,1.2812 0.571,2.0625 0.629,2.3359 0.055,0.2617 0.086,0.5586 0.086,0.8789 0,0.4766 -0.133,0.8555 -0.402,1.1211 -0.27,0.2734 -0.793,0.4102 -1.582,0.4102 -0.196,0 -0.391,-0.0118 -0.582,-0.0391 -0.188,-0.0234 -0.395,-0.0508 -0.625,-0.082 v 0.8047 c 1.066,0.1679 1.812,0.2929 2.261,0.3711 0.45,0.082 0.938,0.1875 1.461,0.2929 l 4.375,0.961 c 0.098,-0.0625 0.161,-0.1407 0.192,-0.2227 l -3.231,-10.5703 c 2.012,3.0664 3.7,5.3516 5.055,6.8398 2.375,2.6368 4.492,3.9532 6.379,3.9532 0.723,0 1.348,-0.1407 1.875,-0.418 1,-0.543 1.504,-1.5078 1.504,-2.9258 0,-0.3945 -0.039,-0.8047 -0.117,-1.2305 -0.09,-0.4296 -0.192,-0.8867 -0.325,-1.375 l -3.242,-11.7695 c -0.062,-0.25 -0.133,-0.5469 -0.222,-0.9023 -0.079,-0.3516 -0.118,-0.5977 -0.118,-0.7383 0,-0.25 0.059,-0.4727 0.176,-0.668 0.11,-0.1992 0.293,-0.2969 0.547,-0.2969 0.41,0 0.871,0.2461 1.414,0.7461 0.539,0.4961 1.402,1.5586 2.617,3.1875 l 0.707,-0.6523 c -1.308,-1.8047 -2.351,-3.0859 -3.129,-3.8242 -1.324,-1.2852 -2.582,-1.93753 -3.789,-1.93753 -0.546,0 -1.07,0.19143 -1.582,0.55473 -0.504,0.375 -0.757,1.0507 -0.757,2.0117 0,0.289 0.019,0.582 0.054,0.8945 0.039,0.3164 0.098,0.582 0.16,0.8164 l 3.176,11.9375 c 0.156,0.6524 0.274,1.1914 0.328,1.6094 0.059,0.418 0.086,0.7148 0.086,0.8945 0,0.3946 -0.097,0.7344 -0.289,1.0196 -0.183,0.2851 -0.515,0.4257 -1,0.4257 -1.246,0 -2.816,-1.0976 -4.715,-3.3281 -1.105,-1.3242 -2.238,-2.8945 -3.39,-4.7266 -0.864,-1.4218 -1.547,-2.8125 -2.051,-4.1562 C 161.387,16.457 160.602,14 159.52,10.4336 h -3.782"
         style="fill:#231f20;fill-opacity:1;fill-rule:nonzero;stroke:none"
         id="path28" /><path
         d="m 189.262,20.543 c 0.527,-1.0078 1.468,-1.5157 2.828,-1.5157 1.469,0 2.781,0.9454 3.941,2.8243 1.157,1.8906 1.727,3.9648 1.727,6.2422 0,1.082 -0.235,1.9257 -0.707,2.5468 -0.481,0.6172 -1.188,0.9219 -2.141,0.9219 -1.828,0 -3.312,-0.9766 -4.426,-2.9297 -1.125,-1.9531 -1.683,-3.8437 -1.683,-5.6601 0,-1.0079 0.152,-1.8282 0.461,-2.4297 z m 5.265,-18.12112 c 1.293,0.9414 1.938,2.05078 1.938,3.35546 0,0.98047 -0.348,1.8125 -1.02,2.48829 -0.355,0.36328 -0.941,0.75 -1.754,1.16015 -0.675,0.32813 -1.816,0.80472 -3.421,1.41402 -1.614,0.6211 -2.54,0.9297 -2.786,0.9297 -0.429,0 -1.254,-0.5742 -2.48,-1.7187 -1.234,-1.14064 -1.852,-2.42971 -1.852,-3.87502 0,-2.1914 0.95,-3.69531 2.844,-4.51953 0.992,-0.42969 2.211,-0.64453 3.652,-0.64453 1.961,0 3.582,0.47656 4.879,1.41016 z m -12.675,6.63671 c 0.945,1.10161 2.429,2.20701 4.476,3.29691 -0.41,0.2656 -0.746,0.539 -1.012,0.8242 -0.253,0.2891 -0.39,0.6641 -0.39,1.1484 0,0.6641 0.469,1.4375 1.402,2.3086 0.531,0.4883 1.395,1.1328 2.586,1.9375 -1.047,0.3946 -1.957,0.9531 -2.715,1.6719 -0.918,0.9727 -1.375,2.2305 -1.375,3.7695 0,2.4805 0.965,4.5391 2.899,6.1836 1.933,1.6446 4.328,2.461 7.187,2.461 1.492,0 2.754,-0.2344 3.789,-0.7032 1.028,-0.4609 1.645,-0.8476 1.824,-1.1562 h 3.321 v -1.9727 h -2.52 c 0.098,-0.3593 0.176,-0.6875 0.219,-0.9843 0.055,-0.2891 0.074,-0.7149 0.074,-1.254 0,-2.664 -1.027,-4.7578 -3.078,-6.2851 -2.055,-1.5234 -4.266,-2.293 -6.644,-2.293 -0.247,0 -0.473,0.0196 -0.688,0.0391 -0.215,0.0273 -0.477,0.0664 -0.785,0.1328 -0.246,0 -0.578,-0.2344 -1.008,-0.707 -0.445,-0.4844 -0.664,-0.9024 -0.664,-1.2852 0,-0.5508 1.801,-1.5078 5.41,-2.8476 3.594,-1.3594 5.391,-3.34771 5.391,-5.96099 0,-1.96875 -0.91,-3.6875 -2.707,-5.16015 C 195.035,0.742188 192.309,0 188.668,0 c -2.535,0 -4.535,0.542969 -6.012,1.62109 -1.48,1.07813 -2.222,2.40235 -2.222,3.94532 0,1.22656 0.472,2.39453 1.418,3.49218"
         style="fill:#231f20;fill-opacity:1;fill-rule:nonzero;stroke:none"
         id="path30" /><path
         d="m 236.508,28.6367 c -0.477,1.1992 -1.371,1.7891 -2.692,1.7891 -1.132,0 -2.355,-0.5625 -3.687,-1.6836 -1.328,-1.1328 -2.438,-2.9883 -3.344,-5.582 -0.715,-2.0469 -1.39,-4.1914 -2.019,-6.4297 -0.625,-2.2461 -0.942,-3.5586 -0.942,-3.9492 0,-0.625 0.254,-1.0821 0.762,-1.379 0.516,-0.2968 1.121,-0.4453 1.836,-0.4453 2.855,0 5.363,1.8243 7.539,5.4649 1.945,3.2578 2.918,6.4922 2.918,9.6953 0,1.0586 -0.125,1.9062 -0.371,2.5195 z M 213.863,0.859375 c 0.985,0 1.727,0.187505 2.215,0.550785 0.516,0.37109 0.871,1.0039 1.106,1.89062 l 6.765,23.96092 c 0.168,0.5938 0.274,1.0313 0.317,1.293 0.035,0.2656 0.058,0.4766 0.058,0.6211 0,0.5469 -0.199,0.9531 -0.597,1.2187 -0.407,0.2657 -0.989,0.3907 -1.758,0.3907 -0.156,0 -0.309,0 -0.461,-0.0118 -0.145,-0.0117 -0.301,-0.0195 -0.469,-0.0586 l -0.047,0.8125 7.988,1.1524 c 0.102,0.0156 0.176,-0.0469 0.223,-0.1953 -0.066,-0.2813 -0.133,-0.4922 -0.176,-0.6406 l -1.336,-4.5352 c 1.071,1.4375 2.051,2.5352 2.95,3.2852 1.625,1.3828 3.308,2.0664 5.058,2.0664 1.781,0 3.188,-0.5391 4.199,-1.6329 1.016,-1.0859 1.524,-2.746 1.524,-4.996 0,-3.8438 -1.613,-7.5 -4.852,-10.9922 -3.203,-3.4493 -6.527,-5.18363 -9.972,-5.18363 -0.684,0 -1.266,0.07812 -1.735,0.20313 -0.472,0.1367 -1.05,0.3633 -1.722,0.6836 l -0.426,-1.51173 c -0.442,-1.66797 -0.742,-2.86328 -0.899,-3.58594 -0.429,-1.90625 -0.64,-2.96484 -0.64,-3.21094 0,-0.67578 0.211,-1.10937 0.64,-1.28515 0.426,-0.183596 1.27,-0.308596 2.528,-0.382815 v -0.71875 h -10.481 v 0.8125"
         style="fill:#231f20;fill-opacity:1;fill-rule:nonzero;stroke:none"
         id="path32" /><path
         d="m 257.465,24.25 c 1.953,1.7461 2.941,3.4805 2.941,5.1953 0,0.625 -0.156,1.1211 -0.449,1.4844 -0.285,0.375 -0.715,0.5547 -1.289,0.5547 -1.074,0 -2.109,-0.4571 -3.137,-1.3672 -1.015,-0.9024 -1.933,-1.9297 -2.761,-3.0742 -0.86,-1.3477 -1.543,-2.6328 -2.051,-3.8594 -0.285,-0.6602 -0.578,-1.4023 -0.891,-2.2344 3.125,0.4492 5.676,1.5625 7.637,3.3008 z m -7.969,3.3086 c 3.254,3.3984 6.602,5.1016 10.051,5.1016 1.289,0 2.293,-0.293 3.047,-0.8829 0.761,-0.582 1.133,-1.4648 1.133,-2.625 0,-2.3593 -1.379,-4.375 -4.141,-6.0546 -2.754,-1.6797 -5.656,-2.7071 -8.703,-3.086 l -1.395,-0.164 c -0.215,-0.6758 -0.363,-1.2149 -0.441,-1.6211 -0.086,-0.3985 -0.125,-0.9063 -0.125,-1.5118 0,-1.4453 0.476,-2.5703 1.406,-3.375 0.938,-0.8046 2.051,-1.2031 3.34,-1.2031 1.219,0 2.527,0.4102 3.895,1.2344 0.781,0.4766 1.925,1.3359 3.41,2.5781 l 0.644,-0.5742 c -0.734,-0.9297 -1.789,-1.8945 -3.164,-2.8672 -2.441,-1.7734 -4.883,-2.65233 -7.344,-2.65233 -1.73,0 -3.254,0.62503 -4.562,1.85543 -1.317,1.2305 -1.973,2.9805 -1.973,5.2774 0,3.6328 1.653,7.1562 4.922,10.5703"
         style="fill:#231f20;fill-opacity:1;fill-rule:nonzero;stroke:none"
         id="path34" /><path
         d="m 271.938,12.3008 c 0.683,-0.8985 1.671,-1.3438 3,-1.3438 2.664,0 5.039,2.0235 7.097,6.0703 1.758,3.4649 2.637,6.6563 2.637,9.5704 0,1.2343 -0.156,2.2304 -0.449,2.9843 -0.575,1.4297 -1.621,2.1485 -3.153,2.1485 -2.5,0 -4.843,-1.8867 -7.05,-5.6524 -2.071,-3.5078 -3.106,-6.9804 -3.106,-10.3828 0,-1.3633 0.34,-2.4961 1.024,-3.3945 z m 15.246,18.2383 c 1.14,-1.4727 1.699,-3.211 1.699,-5.2071 0,-3.4804 -1.524,-6.9023 -4.59,-10.25 -3.176,-3.4804 -6.543,-5.22653 -10.137,-5.22653 -2.258,0 -4.054,0.66403 -5.422,1.97653 -1.367,1.3125 -2.05,3.1602 -2.05,5.5469 0,3.5938 1.535,7.0313 4.582,10.3164 3.105,3.3633 6.472,5.043 10.097,5.043 2.754,0 4.696,-0.7305 5.821,-2.1992"
         style="fill:#231f20;fill-opacity:1;fill-rule:nonzero;stroke:none"
         id="path36" /><path
         d="m 309.234,28.6367 c -0.48,1.1992 -1.379,1.7891 -2.687,1.7891 -1.133,0 -2.363,-0.5625 -3.692,-1.6836 -1.328,-1.1328 -2.449,-2.9883 -3.347,-5.582 -0.715,-2.0469 -1.387,-4.1914 -2.012,-6.4297 -0.625,-2.2461 -0.949,-3.5586 -0.949,-3.9492 0,-0.625 0.266,-1.0821 0.781,-1.379 0.508,-0.2968 1.113,-0.4453 1.828,-0.4453 2.84,0 5.36,1.8243 7.539,5.4649 1.942,3.2578 2.918,6.4922 2.918,9.6953 0,1.0586 -0.136,1.9062 -0.379,2.5195 z M 286.586,0.859375 c 0.988,0 1.73,0.187505 2.227,0.550785 0.5,0.37109 0.871,1.0039 1.105,1.89062 l 6.777,23.96092 c 0.164,0.5938 0.262,1.0313 0.301,1.293 0.039,0.2656 0.059,0.4766 0.059,0.6211 0,0.5469 -0.196,0.9531 -0.606,1.2187 -0.39,0.2657 -0.984,0.3907 -1.746,0.3907 -0.168,0 -0.312,0 -0.461,-0.0118 -0.156,-0.0117 -0.301,-0.0195 -0.469,-0.0586 l -0.046,0.8125 7.988,1.1524 c 0.098,0.0156 0.176,-0.0469 0.223,-0.1953 -0.079,-0.2813 -0.145,-0.4922 -0.184,-0.6406 l -1.348,-4.5352 c 1.082,1.4375 2.059,2.5352 2.957,3.2852 1.621,1.3828 3.313,2.0664 5.071,2.0664 1.765,0 3.183,-0.5391 4.199,-1.6329 1.015,-1.0859 1.523,-2.746 1.523,-4.996 0,-3.8438 -1.621,-7.5 -4.863,-10.9922 -3.195,-3.4493 -6.516,-5.18363 -9.973,-5.18363 -0.683,0 -1.25,0.07812 -1.726,0.20313 -0.469,0.1367 -1.047,0.3633 -1.739,0.6836 l -0.41,-1.51173 c -0.441,-1.66797 -0.734,-2.86328 -0.91,-3.58594 -0.41,-1.90625 -0.644,-2.96484 -0.644,-3.21094 0,-0.67578 0.234,-1.10937 0.644,-1.28515 0.442,-0.183596 1.281,-0.308596 2.551,-0.382815 v -0.71875 h -10.5 v 0.8125"
         style="fill:#231f20;fill-opacity:1;fill-rule:nonzero;stroke:none"
         id="path38" /><path
         d="m 325.297,40.293 c 0.07,0.2148 0.117,0.4258 0.129,0.6406 0.008,0.2109 0.027,0.3867 0.027,0.5156 0,0.5625 -0.234,0.9063 -0.683,1.0313 -0.438,0.1211 -1.336,0.1797 -2.684,0.1601 v 0.8086 c 0.742,0.1055 1.59,0.2188 2.547,0.3399 0.969,0.1328 1.594,0.2265 1.894,0.2734 0.93,0.168 2.032,0.4063 3.352,0.7266 0.117,0 0.223,-0.0821 0.351,-0.2539 l -8.214,-29.5899 c -0.184,-0.707 -0.293,-1.1328 -0.321,-1.2773 -0.031,-0.1485 -0.05,-0.2969 -0.05,-0.4414 0,-0.3125 0.05,-0.5743 0.175,-0.8086 0.11,-0.2149 0.325,-0.3242 0.645,-0.3242 0.586,0 1.348,0.5234 2.316,1.5742 0.938,1.0547 1.746,2.0586 2.403,3.0625 l 0.671,-0.4688 c -1.406,-2.0976 -2.507,-3.5469 -3.289,-4.3476 -1.359,-1.3711 -2.726,-2.05863 -4.101,-2.05863 -0.598,0 -1.113,0.15233 -1.574,0.45313 -0.703,0.4375 -1.063,1.1953 -1.063,2.2656 0,0.418 0.067,0.9727 0.195,1.6602 0.086,0.4101 0.215,0.8828 0.36,1.4258 l 6.914,24.6328"
         style="fill:#231f20;fill-opacity:1;fill-rule:nonzero;stroke:none"
         id="path40" /><path
         d="m 344.184,24.25 c 1.964,1.7461 2.941,3.4805 2.941,5.1953 0,0.625 -0.148,1.1211 -0.449,1.4844 -0.285,0.375 -0.715,0.5547 -1.281,0.5547 -1.075,0 -2.118,-0.4571 -3.133,-1.3672 -1.035,-0.9024 -1.946,-1.9297 -2.766,-3.0742 -0.859,-1.3477 -1.551,-2.6328 -2.051,-3.8594 -0.293,-0.6602 -0.586,-1.4023 -0.886,-2.2344 3.113,0.4492 5.671,1.5625 7.625,3.3008 z m -7.969,3.3086 c 3.262,3.3984 6.601,5.1016 10.07,5.1016 1.27,0 2.285,-0.293 3.035,-0.8829 0.754,-0.582 1.133,-1.4648 1.133,-2.625 0,-2.3593 -1.375,-4.375 -4.129,-6.0546 -2.765,-1.6797 -5.664,-2.7071 -8.711,-3.086 l -1.406,-0.164 c -0.207,-0.6758 -0.352,-1.2149 -0.441,-1.6211 -0.078,-0.3985 -0.118,-0.9063 -0.118,-1.5118 0,-1.4453 0.469,-2.5703 1.407,-3.375 0.937,-0.8046 2.05,-1.2031 3.34,-1.2031 1.222,0 2.531,0.4102 3.898,1.2344 0.781,0.4766 1.914,1.3359 3.406,2.5781 l 0.656,-0.5742 c -0.734,-0.9297 -1.796,-1.8945 -3.175,-2.8672 -2.442,-1.7734 -4.891,-2.65233 -7.344,-2.65233 -1.727,0 -3.262,0.62503 -4.57,1.85543 -1.309,1.2305 -1.953,2.9805 -1.953,5.2774 0,3.6328 1.632,7.1562 4.902,10.5703"
         style="fill:#231f20;fill-opacity:1;fill-rule:nonzero;stroke:none"
         id="path42" /><path
         d="m 366.578,12.4609 c 0.02,0.1797 0.059,0.3477 0.106,0.5313 l 4.777,17.1992 h -3.742 c 0,0.4414 0.019,0.7149 0.097,0.8359 0.071,0.1211 0.235,0.2305 0.5,0.3438 1.668,0.7148 2.977,1.3984 3.895,2.0586 0.918,0.6601 2.18,1.9219 3.769,3.8164 l 0.391,0.4687 c 0.051,0.0625 0.109,0.1172 0.188,0.1602 0.058,0.0391 0.144,0.0586 0.222,0.0586 0.168,-0.0313 0.274,-0.0625 0.344,-0.1016 0.047,-0.1132 0.078,-0.2148 0.086,-0.3007 0,-0.0899 0,-0.1875 -0.02,-0.2813 l -1.453,-5.3555 h 4.071 l -0.301,-1.7031 h -4.27 l -4.59,-16.5586 c -0.085,-0.2969 -0.058,-0.5742 0.071,-0.8515 0.136,-0.2696 0.351,-0.4024 0.672,-0.4024 0.422,0 1.027,0.4219 1.797,1.2774 0.441,0.4648 1.191,1.375 2.246,2.7421 l 0.636,-0.3711 -0.332,-0.5156 c -1.425,-2.1133 -2.668,-3.582 -3.73,-4.4179 -1.086,-0.8204 -2.102,-1.23833 -3.059,-1.23833 -0.84,0 -1.453,0.22263 -1.816,0.66793 -0.379,0.4454 -0.574,0.9375 -0.574,1.4883 0,0.1328 0,0.2891 0.019,0.4492"
         style="fill:#231f20;fill-opacity:1;fill-rule:nonzero;stroke:none"
         id="path44" /><path
         d="m 385.258,12.3008 c 0.664,-0.8985 1.672,-1.3438 2.98,-1.3438 2.664,0 5.047,2.0235 7.117,6.0703 1.75,3.4649 2.629,6.6563 2.629,9.5704 0,1.2343 -0.156,2.2304 -0.441,2.9843 -0.586,1.4297 -1.629,2.1485 -3.164,2.1485 -2.5,0 -4.863,-1.8867 -7.051,-5.6524 -2.07,-3.5078 -3.105,-6.9804 -3.105,-10.3828 0,-1.3633 0.351,-2.4961 1.035,-3.3945 z m 15.246,18.2383 c 1.133,-1.4727 1.687,-3.211 1.687,-5.2071 0,-3.4804 -1.523,-6.9023 -4.589,-10.25 -3.164,-3.4804 -6.532,-5.22653 -10.125,-5.22653 -2.266,0 -4.075,0.66403 -5.43,1.97653 -1.367,1.3125 -2.043,3.1602 -2.043,5.5469 0,3.5938 1.523,7.0313 4.582,10.3164 3.105,3.3633 6.473,5.043 10.098,5.043 2.754,0 4.687,-0.7305 5.82,-2.1992"
         style="fill:#231f20;fill-opacity:1;fill-rule:nonzero;stroke:none"
         id="path46" /><path
         d="m 426.012,40.293 c 0.066,0.2148 0.105,0.4258 0.125,0.6406 0.019,0.2109 0.019,0.3867 0.019,0.5156 0,0.5625 -0.222,0.9063 -0.672,1.0313 -0.441,0.1211 -1.339,0.1797 -2.675,0.1601 v 0.8086 c 0.73,0.1055 1.589,0.2188 2.546,0.3399 0.969,0.1328 1.594,0.2265 1.887,0.2734 0.926,0.168 2.039,0.4063 3.36,0.7266 0.105,0 0.234,-0.0821 0.332,-0.2539 L 422.73,14.9453 c -0.175,-0.707 -0.285,-1.1328 -0.324,-1.2773 -0.027,-0.1485 -0.047,-0.2969 -0.047,-0.4414 0,-0.3125 0.067,-0.5743 0.176,-0.8086 0.106,-0.2149 0.32,-0.3242 0.645,-0.3242 0.586,0 1.367,0.5234 2.312,1.5742 0.949,1.0547 1.77,2.0586 2.422,3.0625 l 0.656,-0.4688 c -1.406,-2.0976 -2.492,-3.5469 -3.293,-4.3476 -1.355,-1.3711 -2.722,-2.05863 -4.101,-2.05863 -0.594,0 -1.113,0.15233 -1.571,0.45313 -0.703,0.4375 -1.054,1.1953 -1.054,2.2656 0,0.418 0.066,0.9727 0.195,1.6602 0.086,0.4101 0.203,0.8828 0.352,1.4258 l 6.914,24.6328"
         style="fill:#231f20;fill-opacity:1;fill-rule:nonzero;stroke:none"
         id="path48" /><path
         d="m 444.906,24.25 c 1.965,1.7461 2.949,3.4805 2.949,5.1953 0,0.625 -0.144,1.1211 -0.449,1.4844 -0.293,0.375 -0.742,0.5547 -1.308,0.5547 -1.063,0 -2.098,-0.4571 -3.125,-1.3672 -1.016,-0.9024 -1.934,-1.9297 -2.754,-3.0742 -0.867,-1.3477 -1.551,-2.6328 -2.059,-3.8594 -0.273,-0.6602 -0.578,-1.4023 -0.879,-2.2344 3.125,0.4492 5.653,1.5625 7.625,3.3008 z m -7.968,3.3086 c 3.242,3.3984 6.601,5.1016 10.058,5.1016 1.281,0 2.285,-0.293 3.039,-0.8829 0.762,-0.582 1.133,-1.4648 1.133,-2.625 0,-2.3593 -1.379,-4.375 -4.133,-6.0546 -2.754,-1.6797 -5.652,-2.7071 -8.699,-3.086 l -1.398,-0.164 c -0.215,-0.6758 -0.372,-1.2149 -0.45,-1.6211 -0.086,-0.3985 -0.125,-0.9063 -0.125,-1.5118 0,-1.4453 0.469,-2.5703 1.407,-3.375 0.937,-0.8046 2.05,-1.2031 3.347,-1.2031 1.223,0 2.52,0.4102 3.899,1.2344 0.781,0.4766 1.914,1.3359 3.398,2.5781 l 0.652,-0.5742 c -0.742,-0.9297 -1.796,-1.8945 -3.171,-2.8672 -2.434,-1.7734 -4.875,-2.65233 -7.336,-2.65233 -1.746,0 -3.262,0.62503 -4.559,1.85543 -1.309,1.2305 -1.973,2.9805 -1.973,5.2774 0,3.6328 1.641,7.1562 4.911,10.5703"
         style="fill:#231f20;fill-opacity:1;fill-rule:nonzero;stroke:none"
         id="path50" /><path
         d="m 470.473,30.8047 c -0.535,0.5625 -1.2,0.8476 -1.973,0.8476 -2.703,0 -5.215,-2.0585 -7.527,-6.1679 -2.043,-3.6133 -3.059,-6.7227 -3.059,-9.336 0,-1.3203 0.274,-2.2695 0.84,-2.8671 0.566,-0.6094 1.262,-0.9024 2.101,-0.9024 2.469,0 4.852,1.9922 7.149,5.9844 2.195,3.6328 3.301,6.9101 3.301,9.832 0,1.1914 -0.274,2.0547 -0.832,2.6094 z m 0.8,0.9375 c 0.383,-0.3711 0.684,-0.8399 0.899,-1.4297 l 0.117,-0.3359 0.559,1.8437 c 0.066,0.2149 0.136,0.3555 0.183,0.4258 0.051,0.0781 0.157,0.1211 0.352,0.1367 l 2.844,0.3164 c 0.144,0 0.242,-0.0234 0.261,-0.082 0.02,-0.0547 0.02,-0.1563 -0.008,-0.3086 -0.07,-0.2148 -0.128,-0.375 -0.167,-0.5078 -0.028,-0.1172 -0.079,-0.3008 -0.145,-0.5274 l -2.441,-8.7968 c -0.539,-1.9258 -0.989,-3.5782 -1.348,-4.9688 -0.617,-2.5156 -0.918,-3.9492 -0.918,-4.3086 0,-0.2304 0.059,-0.3984 0.195,-0.5039 0.106,-0.1015 0.262,-0.1562 0.449,-0.1562 0.137,0 0.301,0.0429 0.489,0.1445 0.183,0.0977 0.398,0.2422 0.664,0.4492 l 0.437,0.336 c 0.137,0.1171 0.293,0.2421 0.469,0.4023 0.176,0.1523 0.371,0.3477 0.625,0.5742 l 1.613,1.5664 0.575,-0.5078 c -1.758,-2.1797 -3.153,-3.6562 -4.219,-4.4336 -1.063,-0.7812 -2.078,-1.17186 -3.035,-1.17186 -0.637,0 -1.106,0.21876 -1.438,0.63286 -0.34,0.4375 -0.508,0.9648 -0.508,1.6054 0,0.5899 0.11,1.4297 0.332,2.5391 0.227,1.0976 0.442,2.0234 0.657,2.7773 -0.293,-0.4961 -0.801,-1.207 -1.496,-2.1523 -0.692,-0.9414 -1.543,-1.8516 -2.567,-2.7383 -1.191,-1.0625 -2.336,-1.8203 -3.437,-2.2539 -0.852,-0.3008 -1.68,-0.45313 -2.461,-0.45313 -1.328,0 -2.532,0.55083 -3.606,1.64063 -1.082,1.0859 -1.629,2.6406 -1.629,4.6367 0,3.4492 1.563,7.0391 4.676,10.7813 3.215,3.8867 6.543,5.8242 10,5.8242 1.301,0 2.324,-0.332 3.027,-0.9961"
         style="fill:#231f20;fill-opacity:1;fill-rule:nonzero;stroke:none"
         id="path52" /><path
         d="m 483.785,13.5391 c 0.469,-0.7461 1.25,-1.1211 2.352,-1.1211 2.355,0 4.609,1.8906 6.797,5.6601 2.082,3.5391 3.117,6.8946 3.117,10.0625 0,1 -0.156,1.8282 -0.488,2.4805 -0.333,0.6641 -1.008,0.9844 -2.012,0.9844 -2.52,0 -4.953,-2.0196 -7.305,-6.0547 -2.101,-3.6055 -3.144,-6.7422 -3.144,-9.3945 0,-1 0.222,-1.875 0.683,-2.6172 z m 12.285,18.2734 c 0.313,-0.3555 0.567,-0.957 0.75,-1.832 L 499.684,40 c 0.086,0.2813 0.136,0.5273 0.164,0.7539 0.019,0.2227 0.031,0.418 0.031,0.5742 0,0.6407 -0.117,1.0391 -0.352,1.211 -0.234,0.1601 -0.586,0.2422 -1.027,0.2422 -0.281,0 -0.547,-0.0079 -0.781,-0.0196 -0.235,-0.0117 -0.555,-0.0469 -0.957,-0.082 v 0.8125 c 1.867,0.25 4.445,0.6836 7.754,1.2969 l 0.214,-0.2539 -0.058,-0.2579 -4.844,-17.6406 -3.308,-11.7109 c -0.071,-0.2695 -0.118,-0.5039 -0.157,-0.7344 -0.05,-0.2266 -0.07,-0.4297 -0.07,-0.6172 0,-0.4414 0.109,-0.7344 0.332,-0.8789 0.227,-0.1328 0.422,-0.1875 0.586,-0.1875 0.488,0 1.164,0.4141 2.043,1.2617 0.527,0.5078 1.23,1.3125 2.129,2.3868 l 0.555,-0.5391 -0.333,-0.5195 c -0.613,-0.8946 -1.394,-1.8164 -2.363,-2.7539 -1.687,-1.6485 -3.211,-2.48833 -4.558,-2.48833 -0.45,0 -0.84,0.10156 -1.211,0.30083 -0.676,0.3867 -1.016,1.0937 -1.016,2.1054 0,0.3399 0.047,0.8828 0.145,1.6367 0.109,0.7461 0.253,1.5704 0.461,2.4805 -1.25,-1.8945 -2.618,-3.4531 -4.114,-4.6601 -1.492,-1.211 -3.125,-1.82036 -4.883,-1.82036 -1.425,0 -2.675,0.50786 -3.75,1.52736 -1.062,1.0195 -1.601,2.5742 -1.601,4.6914 0,3.5625 1.652,7.2383 4.961,10.9961 3.293,3.7578 6.496,5.625 9.621,5.625 1.308,0 2.226,-0.3008 2.773,-0.9258"
         style="fill:#231f20;fill-opacity:1;fill-rule:nonzero;stroke:none"
         id="path54" /><path
         d="m 530.23,24.25 c 1.961,1.7461 2.938,3.4805 2.938,5.1953 0,0.625 -0.145,1.1211 -0.438,1.4844 -0.292,0.375 -0.734,0.5547 -1.308,0.5547 -1.055,0 -2.102,-0.4571 -3.117,-1.3672 -1.024,-0.9024 -1.942,-1.9297 -2.762,-3.0742 -0.859,-1.3477 -1.555,-2.6328 -2.063,-3.8594 -0.273,-0.6602 -0.566,-1.4023 -0.886,-2.2344 3.125,0.4492 5.664,1.5625 7.636,3.3008 z m -7.96,3.3086 c 3.234,3.3984 6.593,5.1016 10.05,5.1016 1.278,0 2.285,-0.293 3.047,-0.8829 0.75,-0.582 1.133,-1.4648 1.133,-2.625 0,-2.3593 -1.379,-4.375 -4.133,-6.0546 -2.773,-1.6797 -5.652,-2.7071 -8.719,-3.086 l -1.398,-0.164 c -0.215,-0.6758 -0.359,-1.2149 -0.437,-1.6211 -0.079,-0.3985 -0.129,-0.9063 -0.129,-1.5118 0,-1.4453 0.468,-2.5703 1.418,-3.375 0.937,-0.8046 2.05,-1.2031 3.339,-1.2031 1.231,0 2.508,0.4102 3.895,1.2344 0.773,0.4766 1.914,1.3359 3.41,2.5781 l 0.633,-0.5742 c -0.731,-0.9297 -1.777,-1.8945 -3.164,-2.8672 -2.43,-1.7734 -4.883,-2.65233 -7.332,-2.65233 -1.738,0 -3.254,0.62503 -4.57,1.85543 -1.309,1.2305 -1.973,2.9805 -1.973,5.2774 0,3.6328 1.64,7.1562 4.93,10.5703"
         style="fill:#231f20;fill-opacity:1;fill-rule:nonzero;stroke:none"
         id="path56" /><path
         d="m 537.289,13.4297 c 0.402,0.2734 0.801,0.4101 1.223,0.4101 0.183,0 0.379,-0.0273 0.574,-0.0898 0.207,-0.0625 0.41,-0.1523 0.644,-0.2812 l 0.872,-0.4649 c 0.097,-0.0625 0.222,-0.1133 0.32,-0.1328 0.117,-0.0234 0.226,-0.0313 0.363,-0.0313 0.41,0 0.723,0.1016 0.945,0.3008 0.215,0.2032 0.782,0.9258 1.711,2.1407 0.606,0.8125 1.981,2.7773 4.141,5.8867 0,0.1172 -0.195,1 -0.578,2.6445 -0.371,1.6484 -0.723,3.043 -1.035,4.1914 -0.321,1.168 -0.594,1.9336 -0.84,2.3047 -0.242,0.3672 -0.703,0.5547 -1.375,0.5547 -0.234,0 -0.684,-0.0899 -1.359,-0.2539 -0.43,-0.0899 -0.887,-0.2071 -1.387,-0.336 l -0.223,0.8047 2.742,0.9336 c 0.703,0.2461 1.36,0.4492 1.965,0.5899 0.594,0.1484 1.102,0.2226 1.531,0.2226 0.696,0 1.211,-0.207 1.555,-0.6211 0.527,-0.6523 0.965,-1.9648 1.336,-3.9062 l 0.508,-2.8242 c 1.484,2.2617 2.637,3.8554 3.457,4.7812 0.742,0.8399 1.437,1.457 2.09,1.875 0.664,0.4102 1.289,0.6094 1.875,0.6094 0.558,0 1.015,-0.0781 1.359,-0.2461 0.625,-0.2891 0.938,-0.8477 0.938,-1.6758 0,-0.543 -0.157,-0.9805 -0.481,-1.293 -0.301,-0.3203 -0.703,-0.4687 -1.199,-0.4687 -0.176,0 -0.352,0.0195 -0.508,0.0586 -0.168,0.043 -0.344,0.1015 -0.527,0.1836 l -0.645,0.2734 c -0.176,0.082 -0.351,0.1524 -0.519,0.207 -0.157,0.0586 -0.282,0.086 -0.371,0.086 -0.743,0 -1.758,-0.9531 -3.075,-2.8711 -1.32,-1.9102 -1.972,-3.0156 -1.972,-3.3203 0,-0.2383 0.156,-1.0391 0.457,-2.3906 0.312,-1.3555 0.637,-2.7891 1.008,-4.293 0.32,-1.4258 0.593,-2.4141 0.828,-2.961 0.39,-0.8828 0.812,-1.3203 1.301,-1.3203 0.437,0 0.886,0.2422 1.355,0.7344 0.461,0.5 1.152,1.3867 2.07,2.6758 l 0.696,-0.4141 c -0.715,-1.2734 -1.438,-2.3711 -2.2,-3.2851 -1.433,-1.6992 -2.793,-2.56253 -4.101,-2.56253 -0.82,0 -1.473,0.39843 -1.942,1.18363 -0.273,0.4648 -0.558,1.2226 -0.82,2.2617 l -1.523,6.0703 -5.051,-6.6094 c -0.984,-1.1445 -1.738,-1.9179 -2.285,-2.3086 -0.528,-0.3945 -1.18,-0.59763 -1.961,-0.59763 -1.067,0 -1.77,0.32813 -2.16,0.98433 -0.203,0.3477 -0.313,0.7579 -0.313,1.2266 0,0.6445 0.188,1.0938 0.586,1.3633"
         style="fill:#231f20;fill-opacity:1;fill-rule:nonzero;stroke:none"
         id="path58" /><path
         d="m 562.387,12.4609 c 0.019,0.1797 0.051,0.3477 0.097,0.5313 l 4.778,17.1992 h -3.742 c 0,0.4414 0.039,0.7149 0.097,0.8359 0.078,0.1211 0.235,0.2305 0.5,0.3438 1.68,0.7148 2.977,1.3984 3.895,2.0586 0.929,0.6601 2.179,1.9219 3.769,3.8164 l 0.391,0.4687 c 0.051,0.0625 0.117,0.1172 0.187,0.1602 0.067,0.0391 0.157,0.0586 0.235,0.0586 0.164,-0.0313 0.273,-0.0625 0.332,-0.1016 0.058,-0.1132 0.086,-0.2148 0.097,-0.3007 0.008,-0.0899 0,-0.1875 -0.019,-0.2813 l -1.465,-5.3555 h 4.063 l -0.286,-1.7031 h -4.265 l -4.59,-16.5586 c -0.09,-0.2969 -0.059,-0.5742 0.066,-0.8515 0.137,-0.2696 0.364,-0.4024 0.664,-0.4024 0.43,0 1.036,0.4219 1.797,1.2774 0.45,0.4648 1.203,1.375 2.258,2.7421 l 0.633,-0.3711 -0.34,-0.5156 c -1.418,-2.1133 -2.648,-3.582 -3.73,-4.4179 -1.075,-0.8204 -2.09,-1.23833 -3.059,-1.23833 -0.828,0 -1.445,0.22263 -1.824,0.66793 -0.363,0.4454 -0.559,0.9375 -0.559,1.4883 0,0.1328 0.012,0.2891 0.02,0.4492"
         style="fill:#231f20;fill-opacity:1;fill-rule:nonzero;stroke:none"
         id="path60" /><path
         d="m 587.199,32.6836 c 0.059,-0.0859 0.086,-0.1992 0.086,-0.3047 -0.027,-0.1758 -0.047,-0.3086 -0.066,-0.3867 l -2.512,-9.5703 0.547,1.1172 c 1.172,2.3203 2.559,4.4257 4.133,6.3398 1.582,1.9102 3.074,2.8594 4.5,2.8594 0.761,0 1.359,-0.2539 1.769,-0.7539 0.418,-0.5156 0.633,-1.0938 0.633,-1.7539 0,-0.7383 -0.215,-1.3516 -0.613,-1.8321 -0.41,-0.4882 -0.988,-0.7265 -1.719,-0.7265 -0.5,0 -0.891,0.0976 -1.144,0.2969 -0.262,0.207 -0.458,0.4296 -0.606,0.6992 l -0.293,0.5468 c -0.059,0.0977 -0.144,0.1758 -0.223,0.2305 -0.089,0.0664 -0.207,0.0899 -0.343,0.0899 -0.633,0 -1.563,-0.8985 -2.774,-2.6797 -1.211,-1.793 -2.293,-3.7227 -3.25,-5.8164 -0.578,-1.2618 -1.211,-2.9375 -1.933,-5.0235 -0.442,-1.3125 -1.028,-3.1718 -1.77,-5.582 h -3.789 l 4.121,14.8828 c 0.235,0.8477 0.422,1.5977 0.559,2.2734 0.136,0.6563 0.203,1.1993 0.203,1.625 0,0.4883 -0.117,0.8594 -0.36,1.125 -0.246,0.254 -0.675,0.379 -1.281,0.379 -0.195,0 -0.437,-0.0157 -0.73,-0.043 -0.293,-0.0352 -0.656,-0.0742 -1.067,-0.125 v 0.8164 l 0.996,0.1875 c 1.282,0.2617 2.676,0.5391 4.211,0.8281 1.524,0.2969 2.313,0.4414 2.403,0.4414 0.144,0 0.254,-0.0429 0.312,-0.1406"
         style="fill:#231f20;fill-opacity:1;fill-rule:nonzero;stroke:none"
         id="path62" /><path
         d="m 611.762,30.8047 c -0.555,0.5625 -1.211,0.8476 -1.992,0.8476 -2.696,0 -5.215,-2.0585 -7.528,-6.1679 -2.031,-3.6133 -3.058,-6.7227 -3.058,-9.336 0,-1.3203 0.293,-2.2695 0.851,-2.8671 0.574,-0.6094 1.27,-0.9024 2.098,-0.9024 2.472,0 4.855,1.9922 7.148,5.9844 2.188,3.6328 3.293,6.9101 3.293,9.832 0,1.1914 -0.273,2.0547 -0.812,2.6094 z m 0.793,0.9375 c 0.379,-0.3711 0.683,-0.8399 0.886,-1.4297 l 0.137,-0.3359 0.547,1.8437 c 0.078,0.2149 0.129,0.3555 0.176,0.4258 0.051,0.0781 0.176,0.1211 0.363,0.1367 l 2.84,0.3164 c 0.156,0 0.234,-0.0234 0.266,-0.082 0.019,-0.0547 0.019,-0.1563 -0.012,-0.3086 -0.067,-0.2148 -0.117,-0.375 -0.156,-0.5078 -0.047,-0.1172 -0.086,-0.3008 -0.164,-0.5274 l -2.434,-8.7968 c -0.527,-1.9258 -0.984,-3.5782 -1.356,-4.9688 -0.605,-2.5156 -0.91,-3.9492 -0.91,-4.3086 0,-0.2304 0.059,-0.3984 0.188,-0.5039 0.117,-0.1015 0.273,-0.1562 0.457,-0.1562 0.148,0 0.305,0.0429 0.488,0.1445 0.176,0.0977 0.402,0.2422 0.664,0.4492 l 0.442,0.336 c 0.136,0.1171 0.281,0.2421 0.468,0.4023 0.164,0.1523 0.379,0.3477 0.614,0.5742 l 1.613,1.5664 0.586,-0.5078 c -1.75,-2.1797 -3.164,-3.6562 -4.219,-4.4336 -1.066,-0.7812 -2.07,-1.17186 -3.039,-1.17186 -0.625,0 -1.113,0.21876 -1.445,0.63286 -0.321,0.4375 -0.496,0.9648 -0.496,1.6054 0,0.5899 0.105,1.4297 0.32,2.5391 0.226,1.0976 0.449,2.0234 0.656,2.7773 -0.293,-0.4961 -0.781,-1.207 -1.476,-2.1523 -0.692,-0.9414 -1.563,-1.8516 -2.579,-2.7383 -1.191,-1.0625 -2.343,-1.8203 -3.437,-2.2539 -0.848,-0.3008 -1.668,-0.45313 -2.461,-0.45313 -1.336,0 -2.527,0.55083 -3.613,1.64063 -1.074,1.0859 -1.621,2.6406 -1.621,4.6367 0,3.4492 1.562,7.0391 4.679,10.7813 3.211,3.8867 6.551,5.8242 10,5.8242 1.309,0 2.313,-0.332 3.028,-0.9961"
         style="fill:#231f20;fill-opacity:1;fill-rule:nonzero;stroke:none"
         id="path64" /><path
         d="m 625.844,12.3008 c 0.676,-0.8985 1.672,-1.3438 2.988,-1.3438 2.676,0 5.039,2.0235 7.109,6.0703 1.758,3.4649 2.637,6.6563 2.637,9.5704 0,1.2343 -0.156,2.2304 -0.449,2.9843 -0.566,1.4297 -1.621,2.1485 -3.145,2.1485 -2.507,0 -4.863,-1.8867 -7.07,-5.6524 -2.051,-3.5078 -3.094,-6.9804 -3.094,-10.3828 0,-1.3633 0.34,-2.4961 1.024,-3.3945 z m 15.254,18.2383 c 1.132,-1.4727 1.699,-3.211 1.699,-5.2071 0,-3.4804 -1.531,-6.9023 -4.598,-10.25 -3.164,-3.4804 -6.535,-5.22653 -10.129,-5.22653 -2.254,0 -4.07,0.66403 -5.429,1.97653 -1.356,1.3125 -2.039,3.1602 -2.039,5.5469 0,3.5938 1.531,7.0313 4.578,10.3164 3.117,3.3633 6.465,5.043 10.09,5.043 2.761,0 4.695,-0.7305 5.828,-2.1992"
         style="fill:#231f20;fill-opacity:1;fill-rule:nonzero;stroke:none"
         id="path66" /><path
         d="m 655.074,32.6836 c 0.059,-0.0859 0.086,-0.1992 0.086,-0.3047 -0.019,-0.1758 -0.039,-0.3086 -0.058,-0.3867 l -2.508,-9.5703 0.535,1.1172 c 1.172,2.3203 2.559,4.4257 4.141,6.3398 1.574,1.9102 3.066,2.8594 4.492,2.8594 0.773,0 1.359,-0.2539 1.777,-0.7539 0.422,-0.5156 0.625,-1.0938 0.625,-1.7539 0,-0.7383 -0.203,-1.3516 -0.613,-1.8321 -0.422,-0.4882 -0.988,-0.7265 -1.719,-0.7265 -0.5,0 -0.879,0.0976 -1.133,0.2969 -0.265,0.207 -0.461,0.4296 -0.617,0.6992 l -0.281,0.5468 c -0.071,0.0977 -0.149,0.1758 -0.235,0.2305 -0.097,0.0664 -0.195,0.0899 -0.332,0.0899 -0.656,0 -1.574,-0.8985 -2.785,-2.6797 -1.211,-1.793 -2.293,-3.7227 -3.25,-5.8164 -0.578,-1.2618 -1.211,-2.9375 -1.926,-5.0235 -0.449,-1.3125 -1.043,-3.1718 -1.777,-5.582 h -3.789 l 4.133,14.8828 c 0.234,0.8477 0.41,1.5977 0.547,2.2734 0.144,0.6563 0.215,1.1993 0.215,1.625 0,0.4883 -0.118,0.8594 -0.372,1.125 -0.246,0.254 -0.675,0.379 -1.281,0.379 -0.195,0 -0.437,-0.0157 -0.73,-0.043 -0.305,-0.0352 -0.645,-0.0742 -1.055,-0.125 v 0.8164 l 0.984,0.1875 c 1.282,0.2617 2.688,0.5391 4.211,0.8281 1.532,0.2969 2.325,0.4414 2.403,0.4414 0.156,0 0.261,-0.0429 0.312,-0.1406"
         style="fill:#231f20;fill-opacity:1;fill-rule:nonzero;stroke:none"
         id="path68" /><path
         d="m 668.012,13.5391 c 0.461,-0.7461 1.242,-1.1211 2.343,-1.1211 2.364,0 4.629,1.8906 6.797,5.6601 2.071,3.5391 3.125,6.8946 3.125,10.0625 0,1 -0.164,1.8282 -0.496,2.4805 -0.343,0.6641 -1.008,0.9844 -2.011,0.9844 -2.512,0 -4.942,-2.0196 -7.297,-6.0547 -2.11,-3.6055 -3.153,-6.7422 -3.153,-9.3945 0,-1 0.235,-1.875 0.692,-2.6172 z m 12.285,18.2734 c 0.312,-0.3555 0.566,-0.957 0.742,-1.832 L 683.91,40 c 0.078,0.2813 0.137,0.5273 0.168,0.7539 0.02,0.2227 0.027,0.418 0.027,0.5742 0,0.6407 -0.125,1.0391 -0.371,1.211 -0.234,0.1601 -0.566,0.2422 -1.015,0.2422 -0.274,0 -0.547,-0.0079 -0.781,-0.0196 -0.235,-0.0117 -0.555,-0.0469 -0.958,-0.082 v 0.8125 c 1.868,0.25 4.454,0.6836 7.754,1.2969 l 0.227,-0.2539 -0.051,-0.2579 -4.851,-17.6406 -3.321,-11.7109 c -0.058,-0.2695 -0.109,-0.5039 -0.156,-0.7344 -0.051,-0.2266 -0.059,-0.4297 -0.059,-0.6172 0,-0.4414 0.106,-0.7344 0.332,-0.8789 0.223,-0.1328 0.411,-0.1875 0.575,-0.1875 0.48,0 1.172,0.4141 2.05,1.2617 0.508,0.5078 1.211,1.3125 2.129,2.3868 l 0.559,-0.5391 -0.352,-0.5195 c -0.597,-0.8946 -1.398,-1.8164 -2.343,-2.7539 -1.692,-1.6485 -3.215,-2.48833 -4.571,-2.48833 -0.441,0 -0.851,0.10156 -1.203,0.30083 -0.672,0.3867 -1.015,1.0937 -1.015,2.1054 0,0.3399 0.039,0.8828 0.148,1.6367 0.098,0.7461 0.242,1.5704 0.449,2.4805 -1.25,-1.8945 -2.629,-3.4531 -4.101,-4.6601 -1.504,-1.211 -3.117,-1.82036 -4.883,-1.82036 -1.426,0 -2.688,0.50786 -3.75,1.52736 -1.067,1.0195 -1.602,2.5742 -1.602,4.6914 0,3.5625 1.649,7.2383 4.95,10.9961 3.293,3.7578 6.503,5.625 9.628,5.625 1.301,0 2.227,-0.3008 2.774,-0.9258"
         style="fill:#231f20;fill-opacity:1;fill-rule:nonzero;stroke:none"
         id="path70" /><path
         d="m 696.508,38.8867 c -0.488,0.5235 -0.723,1.1602 -0.723,1.8946 0,0.7578 0.235,1.3984 0.723,1.9179 0.48,0.5274 1.047,0.793 1.73,0.793 0.672,0 1.258,-0.2656 1.739,-0.793 0.488,-0.5195 0.722,-1.1601 0.722,-1.9179 0,-0.75 -0.234,-1.3907 -0.722,-1.9024 -0.481,-0.5195 -1.067,-0.7812 -1.739,-0.7812 -0.683,0 -1.25,0.2617 -1.73,0.789 z m 2.324,-6.1523 c 0.09,-0.0547 0.117,-0.1211 0.109,-0.211 L 693.98,14.9453 c -0.234,-0.9297 -0.343,-1.4922 -0.343,-1.668 0,-0.2539 0.051,-0.4687 0.148,-0.6445 0.078,-0.1992 0.281,-0.2969 0.613,-0.2969 0.559,0 1.29,0.4883 2.207,1.4532 0.54,0.5703 1.192,1.4023 1.985,2.4726 L 699.242,15.7188 699,15.3711 c -1.242,-1.7266 -2.246,-2.9727 -3.059,-3.7305 -1.25,-1.1875 -2.488,-1.78513 -3.679,-1.78513 -0.703,0 -1.301,0.30473 -1.77,0.89063 -0.457,0.5859 -0.691,1.3008 -0.691,2.1055 0,0.4726 0.027,0.8906 0.097,1.2461 0.067,0.3554 0.184,0.8789 0.36,1.5664 l 3.527,12.6718 c 0.047,0.1954 0.086,0.375 0.117,0.5352 0.039,0.168 0.047,0.3281 0.047,0.5 0,0.5859 -0.215,0.9531 -0.652,1.0937 -0.422,0.1368 -1.281,0.211 -2.559,0.211 v 0.8086 c 1.348,0.1679 2.313,0.2851 2.91,0.375 0.594,0.0898 1.192,0.1875 1.786,0.2812 0.781,0.1289 1.523,0.2774 2.218,0.4375 0.703,0.1602 1.082,0.2149 1.18,0.1563"
         style="fill:#231f20;fill-opacity:1;fill-rule:nonzero;stroke:none"
         id="path72" /><path
         d="m 702.281,10.4336 4.207,15.1719 c 0.364,1.2812 0.567,2.0625 0.625,2.3359 0.059,0.2617 0.098,0.5586 0.098,0.8789 0,0.4766 -0.145,0.8555 -0.41,1.1211 -0.274,0.2734 -0.801,0.4102 -1.59,0.4102 -0.188,0 -0.391,-0.0118 -0.578,-0.0391 -0.176,-0.0234 -0.391,-0.0508 -0.613,-0.082 v 0.8047 c 1.054,0.1679 1.816,0.2929 2.265,0.3711 0.438,0.082 0.926,0.1875 1.445,0.2929 l 4.375,0.961 c 0.098,-0.0625 0.157,-0.1407 0.196,-0.2227 l -3.223,-10.5703 c 2.012,3.0664 3.692,5.3516 5.039,6.8398 2.383,2.6368 4.492,3.9532 6.375,3.9532 0.735,0 1.36,-0.1407 1.887,-0.418 1.004,-0.543 1.504,-1.5078 1.504,-2.9258 0,-0.3945 -0.039,-0.8047 -0.117,-1.2305 -0.09,-0.4296 -0.196,-0.8867 -0.332,-1.375 l -3.235,-11.7695 c -0.058,-0.25 -0.125,-0.5469 -0.222,-0.9023 -0.079,-0.3516 -0.118,-0.5977 -0.118,-0.7383 0,-0.25 0.059,-0.4727 0.164,-0.668 0.118,-0.1992 0.305,-0.2969 0.567,-0.2969 0.402,0 0.879,0.2461 1.406,0.7461 0.539,0.4961 1.399,1.5586 2.617,3.1875 l 0.715,-0.6523 c -1.32,-1.8047 -2.375,-3.0859 -3.137,-3.8242 -1.316,-1.2852 -2.578,-1.93753 -3.789,-1.93753 -0.535,0 -1.082,0.19143 -1.582,0.55473 -0.507,0.375 -0.75,1.0507 -0.75,2.0117 0,0.289 0.008,0.582 0.047,0.8945 0.039,0.3164 0.098,0.582 0.168,0.8164 l 3.164,11.9375 c 0.164,0.6524 0.274,1.1914 0.332,1.6094 0.067,0.418 0.086,0.7148 0.086,0.8945 0,0.3946 -0.097,0.7344 -0.293,1.0196 -0.176,0.2851 -0.515,0.4257 -0.996,0.4257 -1.258,0 -2.812,-1.0976 -4.707,-3.3281 -1.121,-1.3242 -2.246,-2.8945 -3.398,-4.7266 -0.868,-1.4218 -1.551,-2.8125 -2.051,-4.1562 C 707.926,16.457 707.133,14 706.07,10.4336 h -3.789"
         style="fill:#231f20;fill-opacity:1;fill-rule:nonzero;stroke:none"
         id="path74" /><path
         d="m 744.262,30.8047 c -0.547,0.5625 -1.211,0.8476 -2,0.8476 -2.688,0 -5.207,-2.0585 -7.52,-6.1679 -2.043,-3.6133 -3.058,-6.7227 -3.058,-9.336 0,-1.3203 0.285,-2.2695 0.851,-2.8671 0.567,-0.6094 1.27,-0.9024 2.098,-0.9024 2.48,0 4.844,1.9922 7.14,5.9844 2.196,3.6328 3.309,6.9101 3.309,9.832 0,1.1914 -0.273,2.0547 -0.82,2.6094 z m 0.793,0.9375 c 0.371,-0.3711 0.683,-0.8399 0.898,-1.4297 l 0.117,-0.3359 0.567,1.8437 c 0.058,0.2149 0.117,0.3555 0.164,0.4258 0.051,0.0781 0.168,0.1211 0.351,0.1367 l 2.864,0.3164 c 0.136,0 0.234,-0.0234 0.254,-0.082 0.019,-0.0547 0.019,-0.1563 -0.012,-0.3086 -0.078,-0.2148 -0.125,-0.375 -0.164,-0.5078 -0.031,-0.1172 -0.078,-0.3008 -0.156,-0.5274 l -2.434,-8.7968 c -0.535,-1.9258 -0.984,-3.5782 -1.356,-4.9688 -0.597,-2.5156 -0.91,-3.9492 -0.91,-4.3086 0,-0.2304 0.059,-0.3984 0.176,-0.5039 0.137,-0.1015 0.285,-0.1562 0.461,-0.1562 0.145,0 0.313,0.0429 0.496,0.1445 0.176,0.0977 0.391,0.2422 0.664,0.4492 l 0.43,0.336 c 0.148,0.1171 0.305,0.2421 0.461,0.4023 0.183,0.1523 0.39,0.3477 0.625,0.5742 l 1.609,1.5664 0.598,-0.5078 c -1.758,-2.1797 -3.164,-3.6562 -4.231,-4.4336 -1.054,-0.7812 -2.07,-1.17186 -3.027,-1.17186 -0.625,0 -1.113,0.21876 -1.434,0.63286 -0.343,0.4375 -0.519,0.9648 -0.519,1.6054 0,0.5899 0.117,1.4297 0.344,2.5391 0.214,1.0976 0.437,2.0234 0.644,2.7773 -0.293,-0.4961 -0.793,-1.207 -1.484,-2.1523 -0.696,-0.9414 -1.555,-1.8516 -2.559,-2.7383 -1.203,-1.0625 -2.363,-1.8203 -3.449,-2.2539 -0.848,-0.3008 -1.68,-0.45313 -2.461,-0.45313 -1.328,0 -2.527,0.55083 -3.613,1.64063 -1.082,1.0859 -1.621,2.6406 -1.621,4.6367 0,3.4492 1.562,7.0391 4.668,10.7813 3.214,3.8867 6.554,5.8242 10,5.8242 1.308,0 2.324,-0.332 3.039,-0.9961"
         style="fill:#231f20;fill-opacity:1;fill-rule:nonzero;stroke:none"
         id="path76" /><path
         d="m 762.387,32.6836 c 0.051,-0.0859 0.09,-0.1992 0.09,-0.3047 -0.012,-0.1758 -0.051,-0.3086 -0.071,-0.3867 l -2.508,-9.5703 0.555,1.1172 c 1.164,2.3203 2.551,4.4257 4.133,6.3398 1.57,1.9102 3.055,2.8594 4.492,2.8594 0.762,0 1.356,-0.2539 1.777,-0.7539 0.411,-0.5156 0.625,-1.0938 0.625,-1.7539 0,-0.7383 -0.207,-1.3516 -0.617,-1.8321 -0.41,-0.4882 -0.996,-0.7265 -1.718,-0.7265 -0.497,0 -0.879,0.0976 -1.141,0.2969 -0.266,0.207 -0.461,0.4296 -0.606,0.6992 l -0.293,0.5468 c -0.058,0.0977 -0.148,0.1758 -0.234,0.2305 -0.078,0.0664 -0.195,0.0899 -0.324,0.0899 -0.645,0 -1.563,-0.8985 -2.793,-2.6797 -1.199,-1.793 -2.285,-3.7227 -3.242,-5.8164 -0.586,-1.2618 -1.211,-2.9375 -1.934,-5.0235 -0.43,-1.3125 -1.035,-3.1718 -1.765,-5.582 h -3.79 l 4.129,14.8828 c 0.227,0.8477 0.411,1.5977 0.547,2.2734 0.137,0.6563 0.207,1.1993 0.207,1.625 0,0.4883 -0.117,0.8594 -0.363,1.125 -0.242,0.254 -0.672,0.379 -1.277,0.379 -0.196,0 -0.45,-0.0157 -0.743,-0.043 -0.285,-0.0352 -0.644,-0.0742 -1.054,-0.125 v 0.8164 l 0.996,0.1875 c 1.277,0.2617 2.683,0.5391 4.199,0.8281 1.531,0.2969 2.332,0.4414 2.41,0.4414 0.156,0 0.254,-0.0429 0.313,-0.1406"
         style="fill:#231f20;fill-opacity:1;fill-rule:nonzero;stroke:none"
         id="path78" /><path
         d="m 770.551,3.65234 c 0.332,0.375 0.812,0.57032 1.437,0.57032 0.399,0 0.77,-0.08203 1.075,-0.23438 0.312,-0.16015 0.644,-0.39062 0.996,-0.68359 l 0.332,-0.25781 c 0.105,-0.07813 0.203,-0.13672 0.339,-0.17969 0.118,-0.05078 0.254,-0.0625 0.391,-0.0625 0.813,0 2.109,1.0625 3.887,3.18359 1.769,2.1211 2.656,3.66406 2.656,4.63282 0,0.918 -0.301,2.7187 -0.918,5.4062 -0.605,2.6954 -1.211,5.086 -1.785,7.1758 -0.801,2.9414 -1.535,4.9453 -2.199,5.9922 -0.664,1.043 -1.649,1.5664 -2.938,1.5664 -0.109,0 -0.265,-0.0078 -0.519,-0.0273 -0.235,-0.0313 -0.633,-0.0742 -1.211,-0.1406 v 0.8125 l 6.719,1.289 0.519,0.043 c 0.41,0.0547 1.191,-1.7969 2.363,-5.5352 1.043,-3.3593 1.707,-5.8047 1.961,-7.3164 l 0.996,-5.8672 c 1.731,2.8868 2.989,5.0977 3.789,6.6289 1.582,3.0235 2.383,5.1524 2.383,6.375 0,0.2735 -0.058,0.5469 -0.156,0.8204 -0.098,0.2617 -0.332,0.5 -0.684,0.6914 l -0.418,0.2265 c -0.265,0.1211 -0.566,0.3789 -0.918,0.7422 -0.363,0.3594 -0.527,0.8399 -0.527,1.4375 0,0.5156 0.156,0.9492 0.496,1.2891 0.324,0.3437 0.821,0.5078 1.465,0.5078 0.813,0 1.477,-0.2305 1.984,-0.7227 0.497,-0.4726 0.75,-1.3008 0.75,-2.4687 0,-1.7422 -0.957,-4.5547 -2.871,-8.4336 -1.484,-2.957 -3.125,-5.836 -4.949,-8.6055 C 782.719,9.02344 780.758,6.33984 779.117,4.45703 776.508,1.48828 774.352,0 772.621,0 c -0.672,0 -1.258,0.210938 -1.777,0.613281 -0.528,0.417969 -0.781,0.976559 -0.781,1.687499 0,0.52735 0.167,0.97656 0.488,1.35156"
         style="fill:#231f20;fill-opacity:1;fill-rule:nonzero;stroke:none"
         id="path80" /><path
         d="m 815.883,40.293 c 0.058,0.2148 0.109,0.4258 0.117,0.6406 0.031,0.2109 0.031,0.3867 0.031,0.5156 0,0.5625 -0.226,0.9063 -0.676,1.0313 -0.449,0.1211 -1.335,0.1797 -2.675,0.1601 v 0.8086 c 0.734,0.1055 1.582,0.2188 2.55,0.3399 0.965,0.1328 1.583,0.2265 1.883,0.2734 0.93,0.168 2.043,0.4063 3.352,0.7266 0.117,0 0.223,-0.0821 0.351,-0.2539 l -8.214,-29.5899 c -0.176,-0.707 -0.293,-1.1328 -0.321,-1.2773 -0.039,-0.1485 -0.051,-0.2969 -0.051,-0.4414 0,-0.3125 0.059,-0.5743 0.176,-0.8086 0.11,-0.2149 0.324,-0.3242 0.637,-0.3242 0.586,0 1.367,0.5234 2.312,1.5742 0.958,1.0547 1.77,2.0586 2.422,3.0625 l 0.676,-0.4688 c -1.426,-2.0976 -2.519,-3.5469 -3.301,-4.3476 -1.359,-1.3711 -2.726,-2.05863 -4.101,-2.05863 -0.598,0 -1.113,0.15233 -1.574,0.45313 -0.704,0.4375 -1.063,1.1953 -1.063,2.2656 0,0.418 0.078,0.9727 0.195,1.6602 0.098,0.4101 0.215,0.8828 0.36,1.4258 l 6.914,24.6328"
         style="fill:#231f20;fill-opacity:1;fill-rule:nonzero;stroke:none"
         id="path82" /><path
         d="m 829.418,38.8867 c -0.469,0.5235 -0.711,1.1602 -0.711,1.8946 0,0.7578 0.242,1.3984 0.711,1.9179 0.48,0.5274 1.066,0.793 1.73,0.793 0.684,0 1.25,-0.2656 1.739,-0.793 0.476,-0.5195 0.722,-1.1601 0.722,-1.9179 0,-0.75 -0.246,-1.3907 -0.722,-1.9024 -0.489,-0.5195 -1.055,-0.7812 -1.739,-0.7812 -0.664,0 -1.25,0.2617 -1.73,0.789 z m 2.324,-6.1523 c 0.09,-0.0547 0.129,-0.1211 0.117,-0.211 l -4.961,-17.5781 c -0.234,-0.9297 -0.351,-1.4922 -0.351,-1.668 0,-0.2539 0.058,-0.4687 0.148,-0.6445 0.078,-0.1992 0.282,-0.2969 0.625,-0.2969 0.547,0 1.278,0.4883 2.188,1.4532 0.547,0.5703 1.219,1.4023 1.992,2.4726 l 0.652,-0.5429 -0.242,-0.3477 c -1.222,-1.7266 -2.246,-2.9727 -3.039,-3.7305 -1.277,-1.1875 -2.508,-1.78513 -3.699,-1.78513 -0.703,0 -1.281,0.30473 -1.758,0.89063 -0.469,0.5859 -0.703,1.3008 -0.703,2.1055 0,0.4726 0.027,0.8906 0.098,1.2461 0.066,0.3554 0.195,0.8789 0.371,1.5664 l 3.515,12.6718 c 0.047,0.1954 0.086,0.375 0.118,0.5352 0.039,0.168 0.058,0.3281 0.058,0.5 0,0.5859 -0.215,0.9531 -0.656,1.0937 -0.43,0.1368 -1.289,0.211 -2.559,0.211 v 0.8086 c 1.34,0.1679 2.317,0.2851 2.903,0.375 0.593,0.0898 1.199,0.1875 1.785,0.2812 0.793,0.1289 1.523,0.2774 2.219,0.4375 0.691,0.1602 1.093,0.2149 1.179,0.1563"
         style="fill:#231f20;fill-opacity:1;fill-rule:nonzero;stroke:none"
         id="path84" /><path
         d="m 855.023,31.6797 c 0.5,-0.6641 0.743,-1.4063 0.743,-2.2461 0,-2.2148 -2.176,-6.1016 -6.551,-11.6563 -4.16,-5.2695 -6.66,-7.92183 -7.492,-7.92183 -0.243,0 -0.418,0.33983 -0.489,1.01953 -0.046,0.375 -0.078,1.0156 -0.078,1.9258 0,1.0976 -0.105,2.9648 -0.32,5.5937 -0.215,2.625 -0.422,4.5743 -0.617,5.836 -0.41,2.7812 -0.809,4.5742 -1.199,5.375 -0.391,0.8086 -1.145,1.2031 -2.247,1.2031 -0.175,0 -0.39,-0.0039 -0.625,-0.0234 -0.234,-0.0196 -0.519,-0.0313 -0.832,-0.0704 v 0.6524 c 0.5,0.0937 1.543,0.3164 3.125,0.6484 1.582,0.3438 2.414,0.5352 2.52,0.5625 l 0.812,0.2461 c 0.243,0.0664 0.411,-0.0547 0.555,-0.3867 0.117,-0.3125 0.293,-0.9062 0.488,-1.7773 0.625,-2.8555 1.106,-5.6758 1.418,-8.4532 0.196,-1.7226 0.391,-4.2734 0.586,-7.6601 l 0.809,0.8594 c 1.691,1.7929 3.359,3.9218 5.051,6.3828 1.668,2.4648 2.508,4.207 2.508,5.2343 0,0.5079 -0.372,1.1172 -1.094,1.8282 -0.742,0.7187 -1.114,1.3672 -1.114,1.957 0,0.5508 0.188,0.9922 0.547,1.332 0.383,0.3438 0.832,0.5196 1.379,0.5196 0.926,0 1.629,-0.3243 2.117,-0.9805"
         style="fill:#231f20;fill-opacity:1;fill-rule:nonzero;stroke:none"
         id="path86" /><path
         d="m 871.129,24.25 c 1.961,1.7461 2.937,3.4805 2.937,5.1953 0,0.625 -0.156,1.1211 -0.437,1.4844 -0.293,0.375 -0.723,0.5547 -1.309,0.5547 -1.054,0 -2.101,-0.4571 -3.125,-1.3672 -1.015,-0.9024 -1.945,-1.9297 -2.754,-3.0742 -0.878,-1.3477 -1.562,-2.6328 -2.062,-3.8594 -0.281,-0.6602 -0.566,-1.4023 -0.887,-2.2344 3.125,0.4492 5.664,1.5625 7.637,3.3008 z m -7.969,3.3086 c 3.242,3.3984 6.602,5.1016 10.059,5.1016 1.277,0 2.285,-0.293 3.047,-0.8829 0.75,-0.582 1.132,-1.4648 1.132,-2.625 0,-2.3593 -1.378,-4.375 -4.14,-6.0546 -2.766,-1.6797 -5.664,-2.7071 -8.703,-3.086 l -1.395,-0.164 c -0.215,-0.6758 -0.371,-1.2149 -0.449,-1.6211 -0.09,-0.3985 -0.129,-0.9063 -0.129,-1.5118 0,-1.4453 0.469,-2.5703 1.406,-3.375 0.95,-0.8046 2.051,-1.2031 3.352,-1.2031 1.23,0 2.519,0.4102 3.887,1.2344 0.789,0.4766 1.921,1.3359 3.406,2.5781 l 0.644,-0.5742 c -0.73,-0.9297 -1.797,-1.8945 -3.164,-2.8672 -2.441,-1.7734 -4.883,-2.65233 -7.332,-2.65233 -1.75,0 -3.261,0.62503 -4.57,1.85543 -1.309,1.2305 -1.965,2.9805 -1.965,5.2774 0,3.6328 1.633,7.1562 4.914,10.5703"
         style="fill:#231f20;fill-opacity:1;fill-rule:nonzero;stroke:none"
         id="path88" /><path
         d="m 880.805,17.8125 h 0.812 c 0.36,-1.9922 0.789,-3.4609 1.278,-4.3828 0.898,-1.707 2.246,-2.5547 4.035,-2.5547 0.996,0 1.836,0.3555 2.519,1.0586 0.672,0.6992 1.016,1.6328 1.016,2.793 0,0.7226 -0.09,1.3086 -0.266,1.7734 -0.164,0.4492 -0.379,0.875 -0.644,1.2383 l -2.032,3.0234 c -1.23,1.8321 -2,3.0625 -2.312,3.6836 -0.469,0.9297 -0.715,1.8672 -0.715,2.8125 0,1.418 0.508,2.6797 1.543,3.7695 1.016,1.0938 2.481,1.6329 4.375,1.6329 0.801,0 1.719,-0.1524 2.746,-0.4454 1.035,-0.3085 1.738,-0.4609 2.11,-0.4609 0.418,0 0.722,0.0781 0.906,0.2422 0.207,0.168 0.383,0.3828 0.558,0.6641 h 0.704 l -1.008,-6.9805 h -0.821 c -0.214,1.582 -0.527,2.7734 -0.957,3.5781 -0.781,1.4844 -2.019,2.2266 -3.73,2.2266 -0.723,0 -1.367,-0.2266 -1.922,-0.6758 -0.578,-0.4453 -0.852,-1.1016 -0.852,-1.9766 0,-0.6601 0.129,-1.2617 0.383,-1.7656 0.242,-0.5039 0.821,-1.4023 1.719,-2.6992 l 1.746,-2.5 c 0.899,-1.2891 1.543,-2.3438 1.914,-3.1641 0.371,-0.8203 0.567,-1.707 0.567,-2.6484 0,-1.7617 -0.743,-3.2539 -2.254,-4.457 -1.516,-1.211 -3.313,-1.81254 -5.391,-1.81254 -0.664,0 -1.621,0.13672 -2.863,0.41014 -1.25,0.2852 -1.973,0.4219 -2.168,0.4219 -0.321,0 -0.567,-0.0742 -0.723,-0.2109 -0.164,-0.1368 -0.312,-0.3477 -0.43,-0.62114 h -0.82 l 0.977,8.02734"
         style="fill:#231f20;fill-opacity:1;fill-rule:nonzero;stroke:none"
         id="path90" /><path
         d="m 268.391,499.688 v -10.571 l 14.629,5.192 v 0.199 z m 25.672,-8.907 -12.372,-4.59 c -8.117,-2.992 -16.367,-5.918 -23.019,-8.445 -5.918,-2.262 -6.387,-3.191 -6.777,-7.047 h -1.864 v 17.489 h 1.864 l 0.265,-1.864 c 0.399,-2.531 1.063,-2.66 3.594,-1.859 1.98,0.664 6.113,2.258 9.57,3.656 v 12.305 c -2.004,0.867 -5.715,2.058 -8.508,2.988 -3.535,1.199 -4.402,0.668 -4.734,-2.262 l -0.187,-1.859 h -1.864 v 14.766 h 1.864 c 0.519,-4.121 0.793,-4.86 6.777,-7.184 l 34.582,-13.437 0.809,-2.657"
         style="fill:#231f20;fill-opacity:1;fill-rule:nonzero;stroke:none"
         id="path92" /><path
         d="m 260.137,454.766 c -6.121,0 -7.383,-0.668 -7.383,-5.789 0,-11.036 7.773,-16.758 18.828,-16.758 14.238,0 19.141,7.179 19.141,17.82 0,2.199 -0.254,3.926 -0.586,4.32 -0.34,0.407 -1.532,0.407 -3.27,0.407 z m 33.117,-6.852 c 0,-7.449 -1.582,-14.23 -5.84,-18.621 -3.066,-3.063 -7.988,-5.59 -13.84,-5.59 -16.355,0 -23.543,12.637 -23.543,28.203 v 16.293 h 1.864 c 0.39,-5.461 0.929,-5.988 8.105,-5.988 h 23.273 c 7.196,0 7.735,0.527 8.125,5.461 h 1.856 v -19.758"
         style="fill:#231f20;fill-opacity:1;fill-rule:nonzero;stroke:none"
         id="path94" /><path
         d="m 272.102,389.215 c -4.114,0 -7.442,3.258 -7.442,7.25 0,3.988 3.328,7.316 7.442,7.316 4.062,0 7.461,-3.328 7.461,-7.316 0,-3.992 -3.399,-7.25 -7.461,-7.25"
         style="fill:#231f20;fill-opacity:1;fill-rule:nonzero;stroke:none"
         id="path96" /><path
         d="m 293.254,360.414 -31.719,-14.695 31.719,-13.899 v -12.566 h -1.856 c -0.539,5.383 -0.793,5.648 -8.125,5.516 L 260,324.105 c -7.441,-0.199 -7.586,-0.398 -8.105,-5.789 h -1.864 v 18.559 h 1.864 c 0.519,-5.191 0.664,-5.391 8.105,-5.316 l 25.539,0.261 v 0.266 l -34.707,15.102 v 1.988 l 33.379,14.57 v 0.266 l -17.219,0.465 c -5.996,0.128 -9.648,0.066 -11.64,-0.204 -2.528,-0.261 -3.067,-1.656 -3.457,-6.05 h -1.864 v 15.761 h 1.864 c 0.265,-3.324 0.929,-4.652 3.457,-5.117 1.992,-0.336 5.91,-0.867 12.304,-1.199 l 13.692,-0.73 c 8.859,-0.469 9.511,0 10.05,5.714 h 1.856 v -12.238"
         style="fill:#231f20;fill-opacity:1;fill-rule:nonzero;stroke:none"
         id="path98" /><path
         d="m 268.371,300.531 0.137,-10.57 14.558,5.379 v 0.199 z m 25.801,-8.566 -12.336,-4.758 c -8.055,-3.102 -16.27,-6.141 -22.879,-8.754 -5.891,-2.336 -6.34,-3.277 -6.691,-7.14 l -1.864,-0.024 -0.234,17.484 1.863,0.036 0.293,-1.864 c 0.43,-2.519 1.094,-2.644 3.614,-1.812 1.984,0.687 6.085,2.344 9.531,3.789 l -0.164,12.305 c -2.012,0.828 -5.754,1.98 -8.555,2.878 -3.547,1.145 -4.406,0.598 -4.699,-2.328 l -0.176,-1.859 -1.855,-0.035 -0.204,14.769 1.875,0.024 c 0.586,-4.113 0.848,-4.848 6.875,-7.098 l 34.766,-12.965 0.84,-2.648"
         style="fill:#231f20;fill-opacity:1;fill-rule:nonzero;stroke:none"
         id="path100" /><path
         d="m 285.578,271.398 c 6.856,2.137 7.195,2.805 5.938,8.192 l 1.777,0.558 5.586,-17.918 -1.777,-0.554 c -1.778,4.398 -2.442,4.746 -9.309,2.601 l -20.508,-6.394 c -6.941,-2.16 -12.637,-3.317 -18.515,0.984 -2.149,1.559 -4.278,3.684 -5.997,6.496 l 1.54,1.309 c 3.296,-3.633 6.675,-4.402 10.277,-4.109 3.254,0.32 6.984,1.343 11.289,2.687 l 19.699,6.148"
         style="fill:#231f20;fill-opacity:1;fill-rule:nonzero;stroke:none"
         id="path102" /><path
         d="m 280.676,244.645 c -10.11,-6.54 -15.039,-16.055 -9.922,-23.989 3.758,-5.808 11.492,-7.144 22,-0.355 11.633,7.504 15.168,16.363 10.332,23.851 -3.828,5.922 -12.508,6.868 -22.41,0.493 z m 18.836,-30.27 c -11.895,-7.691 -25.039,-4.379 -31.895,6.234 -7.109,11.004 -3.574,23.571 6.582,30.137 9.172,5.918 23.762,6.246 32.246,-6.887 6.231,-9.664 3.965,-22.453 -6.933,-29.484"
         style="fill:#231f20;fill-opacity:1;fill-rule:nonzero;stroke:none"
         id="path104" /><path
         d="m 312.766,204.383 1.922,-1.617 c 2.042,-1.711 3.722,-2.59 5.91,-2.684 3.398,-0.066 6.152,1.789 8.203,4.231 4.414,5.316 2.285,10.21 -0.977,12.933 -2.453,2.047 -2.715,1.926 -4.082,0.301 z m 17.957,13.742 c 3.711,-3.105 6.015,-5.73 6.953,-8.766 0.89,-2.988 0.48,-6.277 -2.039,-9.281 -3.567,-4.285 -8.731,-5.082 -14.141,-3.168 -0.391,-2.109 -1.367,-7.34 -1.652,-10.996 -0.41,-4.426 -0.614,-7.363 -0.489,-9.195 0.208,-2.246 0.372,-3.692 1.555,-5.289 l -1.308,-1.157 -2.051,1.903 c -5.227,5.047 -5.774,7.918 -5.383,12.433 0.332,3.711 1.379,8.379 2.109,12.274 0.371,2.097 0.196,3.129 -1.347,4.402 l -1.629,1.356 -5.703,-6.836 c -4.59,-5.504 -4.524,-6.254 -0.91,-9.797 l -1.192,-1.426 -14.394,12.008 1.203,1.433 c 4.343,-3.109 5.086,-3.039 9.687,2.469 l 14.903,17.86 c 4.589,5.5 4.519,6.25 0.906,9.789 l 1.183,1.429 13.739,-11.445"
         style="fill:#231f20;fill-opacity:1;fill-rule:nonzero;stroke:none"
         id="path106" /><path
         d="m 372.199,189.68 c -0.422,-0.996 -2.617,-5.403 -4.308,-9.188 l -1.797,0.875 c 0.996,3.098 1.222,5.113 0.851,6.477 -0.422,1.539 -2.082,2.937 -5.664,4.98 l -2.902,1.641 c -2.188,1.242 -2.305,1.312 -3.496,-0.77 l -6.953,-12.261 4.961,-2.829 c 4.98,-2.82 5.285,-2.539 8.398,1.579 l 1.856,-1.047 -6.973,-12.266 -1.856,1.059 c 2.024,4.898 2.043,5.203 -2.937,8.023 l -4.973,2.828 -5.398,-9.488 c -1.895,-3.352 -2.59,-5.102 -1.973,-6.445 0.645,-1.285 2.695,-2.524 5.117,-3.907 2.899,-1.644 5.692,-2.925 7.735,-2.168 1.59,0.536 3.691,1.946 6.269,4.161 l 1.532,-1.329 c -1.348,-1.839 -5.977,-7.007 -7.352,-8.371 l -28.223,16.036 0.918,1.628 c 5.157,-2.476 5.899,-2.285 9.442,3.965 l 11.504,20.239 c 3.554,6.242 3.351,6.968 -0.848,9.812 l 0.918,1.621 26.152,-14.855"
         style="fill:#231f20;fill-opacity:1;fill-rule:nonzero;stroke:none"
         id="path108" /><path
         d="m 387.922,182.469 1.844,-34.91 24.699,24.289 11.668,-4.684 -0.692,-1.723 c -5.195,1.516 -5.546,1.356 -8.136,-5.48 l -8.047,-21.856 c -2.578,-6.98 -2.449,-7.175 2.355,-9.667 l -0.683,-1.743 -17.219,6.899 0.695,1.734 c 5,-1.43 5.242,-1.387 7.938,5.551 l 9.258,23.801 -0.262,0.101 -26.895,-26.605 -1.855,0.734 -1.106,36.403 -0.254,0.101 -6.843,-15.809 c -2.344,-5.511 -3.645,-8.925 -4.141,-10.878 -0.683,-2.446 0.41,-3.461 4.336,-5.465 l -0.695,-1.735 -14.629,5.868 0.695,1.726 c 3.192,-0.988 4.668,-0.863 6.035,1.309 1.055,1.726 3.008,5.168 5.684,10.972 l 5.781,12.442 c 3.719,8.039 3.543,8.828 -1.582,11.445 l 0.692,1.738 11.359,-4.558"
         style="fill:#231f20;fill-opacity:1;fill-rule:nonzero;stroke:none"
         id="path110" /><path
         d="m 457.246,135.695 c -1.289,-3.925 -5.43,-6.074 -9.219,-4.82 -3.777,1.238 -5.906,5.445 -4.617,9.359 1.258,3.86 5.477,6.039 9.266,4.789 3.801,-1.25 5.84,-5.48 4.57,-9.328"
         style="fill:#231f20;fill-opacity:1;fill-rule:nonzero;stroke:none"
         id="path112" /><path
         d="m 494.895,136.813 c 2.39,-5.629 3.484,-6.54 8.21,-4.543 10.168,4.324 12.395,13.71 8.086,23.878 -5.566,13.102 -14.101,14.829 -23.906,10.668 -2.012,-0.851 -3.504,-1.769 -3.738,-2.242 -0.234,-0.457 0.234,-1.554 0.906,-3.152 z m -5.918,33.246 c 6.941,2.714 13.836,3.707 19.472,1.339 3.965,-1.742 8.114,-5.406 10.242,-10.851 5.957,-15.242 -3.191,-26.531 -17.683,-32.207 l -15.176,-5.922 -0.684,1.723 c 4.942,2.363 5.235,3.05 2.625,9.742 l -8.484,21.68 c -2.609,6.687 -3.301,6.992 -8.027,5.57 l -0.684,1.734 18.399,7.192"
         style="fill:#231f20;fill-opacity:1;fill-rule:nonzero;stroke:none"
         id="path114" /><path
         d="m 537.441,192.199 c 0.606,-0.886 3.086,-5.14 5.325,-8.625 l -1.711,-1.023 c -2.059,2.527 -3.614,3.828 -4.95,4.262 -1.523,0.488 -3.605,-0.129 -7.265,-2.008 l -2.961,-1.512 c -2.254,-1.152 -2.383,-1.219 -1.277,-3.348 l 6.414,-12.547 5.097,2.61 c 5.09,2.601 5.032,3.019 3.282,7.883 l 1.906,0.961 6.414,-12.543 -1.883,-0.965 c -3.008,4.375 -3.242,4.539 -8.32,1.933 l -5.09,-2.601 4.961,-9.703 c 1.758,-3.446 2.851,-4.973 4.308,-5.203 1.434,-0.168 3.594,0.875 6.075,2.152 2.957,1.508 5.566,3.148 6.054,5.258 0.43,1.64 0.41,4.168 -0.05,7.527 l 1.953,0.559 c 0.8,-2.141 2.597,-8.844 2.961,-10.739 l -28.879,-14.8 -0.848,1.652 c 4.902,2.969 5.145,3.68 1.856,10.078 l -10.598,20.719 c -3.281,6.383 -3.992,6.621 -8.68,4.672 l -0.832,1.652 26.738,13.699"
         style="fill:#231f20;fill-opacity:1;fill-rule:nonzero;stroke:none"
         id="path116" /><path
         d="m 558.332,204.883 0.977,-1.582 c -4.094,-2.996 -4.27,-3.735 -0.481,-9.848 l 12.258,-19.797 c 3.789,-6.105 4.519,-6.289 9.031,-3.965 l 0.977,-1.582 -15.957,-9.871 -0.965,1.571 c 4.187,3.078 4.363,3.804 0.574,9.918 l -12.254,19.804 c -3.781,6.11 -4.512,6.289 -9.133,3.887 l -0.984,1.59 15.957,9.875"
         style="fill:#231f20;fill-opacity:1;fill-rule:nonzero;stroke:none"
         id="path118" /><path
         d="m 593.457,205.969 c 2.57,-3.231 2.09,-7.86 -1.035,-10.344 -3.113,-2.48 -7.793,-1.953 -10.359,1.281 -2.532,3.172 -2.032,7.895 1.082,10.371 3.125,2.489 7.793,1.864 10.312,-1.308"
         style="fill:#231f20;fill-opacity:1;fill-rule:nonzero;stroke:none"
         id="path120" /><path
         d="m 638.609,247.965 c 2.286,-0.742 4.317,-1.399 5.762,-1.461 -0.129,-4.281 -0.262,-9.828 -1.824,-14.645 -4.582,-14.097 -16.067,-20.789 -28.703,-16.683 -14.414,4.687 -18.211,18.637 -14.18,31.035 1.77,5.445 4.348,9.496 5.598,11.613 2.195,-0.578 5.601,-1.261 10.562,-2.316 l -0.398,-2.11 c -8.504,0.946 -11.875,-3.839 -13.555,-9.015 -2.844,-8.727 1.863,-16.832 13.379,-20.57 9.734,-3.172 21.152,-2.262 24.895,9.253 0.664,2.024 0.789,3.305 0.679,4.457 -0.113,1.364 -1.031,2.219 -3.562,3.04 l -5.301,1.734 c -4.309,1.391 -4.77,1.262 -7.453,-5.274 l -1.895,0.618 5.711,17.578 1.899,-0.614 c -0.571,-3.453 -0.403,-3.789 4.031,-5.222 l 4.355,-1.418"
         style="fill:#231f20;fill-opacity:1;fill-rule:nonzero;stroke:none"
         id="path122" /><path
         d="m 608.199,283.086 1.848,-0.262 c -0.363,-5.316 0.086,-5.918 7.207,-6.929 l 22.918,-3.258 c 3.816,-0.547 5.715,-0.41 6.672,0.597 0.933,1.004 1.375,3.157 1.679,5.274 0.438,3.023 1.329,11.051 -0.128,12.668 -1.094,1.301 -3.184,2.668 -6.192,4.172 l 0.695,2.047 c 2.047,-0.696 8.563,-3.094 10.457,-3.899 l -5.078,-35.719 -1.855,0.266 c 0.391,5.586 -0.059,6.191 -7.168,7.195 l -23.047,3.278 c -7.109,1.007 -7.715,0.558 -8.867,-4.657 l -1.836,0.262 2.695,18.965"
         style="fill:#231f20;fill-opacity:1;fill-rule:nonzero;stroke:none"
         id="path124" /><path
         d="m 629.715,307.457 c 12,-0.82 21.656,3.848 22.293,13.27 0.469,6.906 -4.942,12.609 -17.41,13.457 -13.813,0.945 -21.946,-4.032 -22.551,-12.922 -0.481,-7.032 5.906,-13.008 17.668,-13.805 z m 3.015,35.527 c 14.129,-0.972 22.688,-11.484 21.817,-24.093 -0.891,-13.067 -11.231,-21.036 -23.313,-20.207 -10.886,0.738 -22.761,9.222 -21.699,24.812 0.781,11.481 10.258,20.367 23.195,19.488"
         style="fill:#231f20;fill-opacity:1;fill-rule:nonzero;stroke:none"
         id="path126" /><path
         d="m 632.566,357.863 v 2.528 c 0,2.66 -0.39,4.523 -1.73,6.25 -2.129,2.66 -5.32,3.593 -8.516,3.593 -6.914,0 -9.304,-4.789 -9.304,-9.046 0,-3.196 0.261,-3.325 2.39,-3.325 z m -22.082,4.992 c 0,4.856 0.539,8.313 2.266,10.973 1.73,2.594 4.523,4.387 8.438,4.387 5.593,0 9.523,-3.457 11.511,-8.848 1.867,1.067 6.528,3.66 9.516,5.789 3.648,2.524 6.055,4.258 7.371,5.52 1.602,1.594 2.605,2.66 3.066,4.594 l 1.739,-0.27 -0.137,-2.793 c -0.535,-7.25 -2.402,-9.512 -6.121,-12.105 -3.067,-2.129 -7.309,-4.325 -10.774,-6.254 -1.867,-1.063 -2.531,-1.864 -2.531,-3.852 v -2.133 h 8.918 c 7.18,0 7.715,0.532 8.106,5.59 h 1.867 v -18.762 h -1.867 c -0.391,5.325 -0.926,5.852 -8.106,5.852 h -23.281 c -7.188,0 -7.715,-0.527 -8.113,-5.582 h -1.868 v 17.894"
         style="fill:#231f20;fill-opacity:1;fill-rule:nonzero;stroke:none"
         id="path128" /><path
         d="m 610.484,408.559 h 1.868 c 0.398,-5.047 0.925,-5.59 8.113,-5.59 h 23.281 c 7.18,0 7.715,0.543 8.106,5.59 h 1.867 v -18.754 h -1.867 c -0.391,5.187 -0.926,5.718 -8.106,5.718 h -23.281 c -7.188,0 -7.715,-0.531 -8.113,-5.718 h -1.868 v 18.754"
         style="fill:#231f20;fill-opacity:1;fill-rule:nonzero;stroke:none"
         id="path130" /><path
         d="m 635.367,426.336 v 10.57 l -14.637,-5.187 v -0.196 z m -25.683,8.914 12.375,4.586 c 8.113,2.992 16.367,5.918 23.007,8.445 5.926,2.266 6.395,3.196 6.786,7.051 h 1.867 V 437.84 h -1.867 l -0.274,1.863 c -0.39,2.524 -1.062,2.656 -3.586,1.86 -1.98,-0.665 -6.109,-2.262 -9.566,-3.657 v -12.304 c 1.992,-0.864 5.711,-2.063 8.515,-2.993 3.512,-1.191 4.383,-0.664 4.727,2.258 l 0.184,1.863 h 1.867 v -14.761 h -1.867 c -0.528,4.125 -0.789,4.851 -6.786,7.183 l -34.582,13.434 -0.8,2.664"
         style="fill:#231f20;fill-opacity:1;fill-rule:nonzero;stroke:none"
         id="path132" /><path
         d="m 610.484,472.891 31.731,14.695 -31.731,13.902 v 12.571 h 1.868 c 0.527,-5.391 0.796,-5.657 8.113,-5.524 l 23.281,0.664 c 7.442,0.207 7.578,0.406 8.106,5.785 h 1.867 v -18.558 h -1.867 c -0.528,5.195 -0.664,5.394 -8.106,5.324 l -25.547,-0.262 v -0.265 l 34.719,-15.106 v -1.988 l -33.391,-14.566 v -0.266 l 17.239,-0.469 c 5.972,-0.125 9.636,-0.062 11.629,0.207 2.531,0.262 3.066,1.66 3.457,6.043 h 1.867 V 459.32 h -1.867 c -0.274,3.328 -0.926,4.657 -3.457,5.118 -1.993,0.332 -5.918,0.871 -12.305,1.203 l -13.699,0.726 c -8.848,0.465 -9.512,0 -10.039,-5.719 h -1.868 v 12.243"
         style="fill:#231f20;fill-opacity:1;fill-rule:nonzero;stroke:none"
         id="path134" /><path
         d="m 249.766,579.598 v 3.558 c 10.519,0.625 11.281,1.399 11.281,13.008 v 36.07 c 0,11.618 -0.918,12.227 -10.527,12.852 v 3.559 h 33.496 v -3.559 c -10.352,-0.625 -11.27,-1.234 -11.27,-12.852 v -36.539 c 0,-6.035 0.75,-9.129 2.871,-10.215 2.09,-1.082 5.254,-1.238 10.801,-1.238 5.859,0 10.676,1.082 13.066,3.871 1.817,1.856 3.614,5.422 5.125,10.375 l 3.899,-0.472 c -0.75,-3.555 -3.008,-15.473 -3.899,-18.418 h -54.843"
         style="fill:#231f20;fill-opacity:1;fill-rule:nonzero;stroke:none"
         id="path136" /><path
         d="m 346.816,582.387 c 11.567,0 20.727,7.738 20.727,29.414 0,17.644 -8.422,34.062 -23.441,34.062 -12.157,0 -20.868,-10.687 -20.868,-29.57 0,-20.129 8.711,-33.906 23.582,-33.906 z m -37.105,30.183 c 0,26.012 19.812,37.938 35.75,37.938 21.621,0 35.605,-15.637 35.605,-35.613 0,-24.305 -17.882,-37.153 -35.461,-37.153 -23.281,0 -35.894,18.11 -35.894,34.828"
         style="fill:#231f20;fill-opacity:1;fill-rule:nonzero;stroke:none"
         id="path138" /><path
         d="m 395.805,579.598 v 3.558 c 10.816,0.778 11.57,1.551 11.57,12.856 v 9.441 c 0,2.945 -0.305,3.871 -2.266,7.274 -3.156,5.734 -7.363,12.851 -14.265,24.617 -3.899,6.816 -4.961,6.965 -11.723,7.742 v 3.559 h 30.051 v -3.559 l -4.66,-0.625 c -3.457,-0.457 -3.614,-1.387 -2.098,-4.488 0.742,-1.547 10.359,-18.575 13.965,-24.614 4.656,8.207 9.305,18.579 11.711,23.688 1.961,4.336 1.656,4.957 -2.406,5.414 l -4.356,0.625 v 3.559 h 26.445 v -3.559 c -8.113,-0.777 -8.71,-1.859 -12.761,-7.898 -4.063,-6.036 -8.567,-13.469 -13.528,-22.45 -2.254,-4.179 -2.41,-5.258 -2.41,-7.582 v -11.144 c 0,-11.305 0.918,-12.078 12.031,-12.856 v -3.558 h -35.3"
         style="fill:#231f20;fill-opacity:1;fill-rule:nonzero;stroke:none"
         id="path140" /><path
         d="m 481.008,582.387 c 11.57,0 20.722,7.738 20.722,29.414 0,17.644 -8.41,34.062 -23.425,34.062 -12.168,0 -20.879,-10.687 -20.879,-29.57 0,-20.129 8.711,-33.906 23.582,-33.906 z m -37.11,30.183 c 0,26.012 19.825,37.938 35.75,37.938 21.622,0 35.61,-15.637 35.61,-35.613 0,-24.305 -17.883,-37.153 -35.461,-37.153 -23.281,0 -35.899,18.11 -35.899,34.828"
         style="fill:#231f20;fill-opacity:1;fill-rule:nonzero;stroke:none"
         id="path142" /><path
         d="m 520.512,579.598 v 3.558 c 10.504,0.625 11.258,1.399 11.258,13.008 v 36.07 c 0,11.618 -0.899,12.227 -10.516,12.852 v 3.559 h 33.504 v -3.559 c -10.371,-0.625 -11.27,-1.234 -11.27,-12.852 v -36.539 c 0,-6.035 0.75,-9.129 2.86,-10.215 2.101,-1.082 5.254,-1.238 10.824,-1.238 5.848,0 10.652,1.082 13.055,3.871 1.804,1.856 3.613,5.422 5.109,10.375 l 3.902,-0.472 c -0.75,-3.555 -2.996,-15.473 -3.902,-18.418 h -54.824"
         style="fill:#231f20;fill-opacity:1;fill-rule:nonzero;stroke:none"
         id="path144" /><path
         d="m 604.465,610.246 h 17.422 l -8.703,23.535 h -0.301 z m 18.933,-27.09 2.856,0.317 c 4.207,0.461 5.555,1.699 2.555,8.972 l -5.106,12.543 h -20.879 c -1.062,-2.48 -3.613,-9.754 -5.105,-14.398 -1.809,-5.266 -0.453,-6.809 3.894,-7.117 l 3.457,-0.317 v -3.558 h -26.289 v 3.558 c 6.61,0.778 9.18,1.399 13.524,12.078 l 22.238,54.34 3.738,0.934 22.395,-57.137 c 3.601,-9.129 6.465,-9.75 13.066,-10.215 v -3.558 h -30.344 v 3.558"
         style="fill:#231f20;fill-opacity:1;fill-rule:nonzero;stroke:none"
         id="path146" /><path
         d="m 360.273,422.895 c -2.625,0 -4.734,-2.207 -4.734,-4.934 0,-2.68 2.109,-4.82 4.734,-4.82 2.618,0 4.719,2.14 4.719,4.82 0,2.727 -2.101,4.934 -4.719,4.934"
         style="fill:#231f20;fill-opacity:1;fill-rule:nonzero;stroke:none"
         id="path148" /><path
         d="m 360.273,431.34 c 2.415,0 4.348,1.996 4.348,4.457 0,2.465 -1.933,4.465 -4.348,4.465 -2.41,0 -4.363,-2 -4.363,-4.465 0,-2.461 1.953,-4.457 4.363,-4.457"
         style="fill:#231f20;fill-opacity:1;fill-rule:nonzero;stroke:none"
         id="path150" /><path
         d="m 429.465,438.113 c -5.149,0 -6.367,-8.156 -6.367,-11.879 0,-3.726 1.218,-11.98 6.367,-11.98 5.156,0 6.387,8.254 6.387,11.98 0,3.723 -1.231,11.879 -6.387,11.879"
         style="fill:#231f20;fill-opacity:1;fill-rule:nonzero;stroke:none"
         id="path152" /><path
         d="m 400.469,379.777 h 7.715 l -1.59,2.661 z"
         style="fill:#231f20;fill-opacity:1;fill-rule:nonzero;stroke:none"
         id="path154" /><path
         d="m 534.285,318.094 c 12.61,-5.883 12.61,-19.531 12.61,-15.981 0,20.336 -6.704,18.899 -6.43,31.742 0.265,12.833 14.008,11.723 14.008,11.723 5.386,-0.078 7.007,-3.375 7.007,-3.375 0,0 -2.71,0.574 -3.808,-0.887 0,0 -4.082,-2.964 3.242,-20.418 1.477,-3.515 7.988,-15.789 0.129,-24.66 -5.566,-6.269 -14.434,-3.941 -14.434,-3.941 -0.558,-3.363 -0.839,-5.039 -0.839,-5.039 h 6.445 c 5.898,-0.289 6.172,-6.738 6.172,-6.738 v -27.2 l -4.492,-4.48 h -14.856 c -0.269,6.73 8.418,9.531 8.418,9.531 v 11.777 h -13.75 c -7.285,0.559 -11.199,14.582 -11.199,14.582 l -5.332,-0.566 c -0.281,-0.844 7.566,-15.137 7.566,-15.137 l -15.984,-15.14 v -4.489 h -17.375 c -0.84,4.215 7.558,7.856 7.558,7.856 l 10.938,11.773 c 1.398,1.52 0.422,3.063 -1.473,3.688 -2.082,0.683 -3.75,1.16 -6.086,2.055 -2.371,0.902 -12.351,7.152 -8.132,19.214 4.128,11.848 17.937,7.004 17.937,8.411 0,1.39 -7.285,18.218 -7.285,18.218 l 5.89,8.703 -7.023,-4.492 -18.496,3.367 c -1.961,-15.707 -9.258,-11.777 -9.258,-11.777 v 11.777 c 0,0 0.274,7.75 7.297,10.09 8.406,2.801 14.297,1.125 16.816,1.688 2.528,0.562 1.797,2.797 1.797,2.797 l -11.047,-0.278 -9.812,8.133 -5.332,0.563 c -9.817,1.675 -6.164,9.25 -6.164,9.25 0,0 8.691,0 14.023,0 5.313,0 19.063,-10.094 19.063,-10.094 0,0 1.965,11.215 -8.406,15.14 -10.383,3.922 -8.137,7.004 -8.137,7.004 l 9.804,-3.359 c 0,0 1.133,1.121 -0.542,3.648 -0.911,1.356 -8.711,4.204 -8.711,4.204 -6.164,2.242 -4.204,7.285 -4.204,7.285 l 10.95,-1.114 c 2.507,2.235 2.226,2.52 5.879,3.079 3.64,0.562 9.257,-4.489 8.679,-2.801 -0.547,1.679 -1.113,6.73 -1.668,11.777 -0.5,4.531 14.297,-16.547 14.297,-16.547 19.063,-36.168 13.75,-60.562 13.75,-60.562 z M 481.461,298.09 v -21.086 c 0,0 0.352,-10.984 -8.918,-20.258 -9.633,-9.629 -20.41,-8.601 -20.574,-8.586 -0.164,-0.015 -10.934,-1.043 -20.578,8.586 -9.278,9.274 -8.926,20.258 -8.926,20.258 v 21.086 c 0,0 -2.617,0.687 -2.742,3.262 -0.176,3.261 3.261,2.742 3.261,2.742 h 6.864 c -0.34,-7.215 4.132,-6.352 4.132,-6.352 4.793,-0.168 3.77,6.352 3.77,6.352 h 14.188 0.058 14.192 c 0,0 -1.047,-6.52 3.769,-6.352 0,0 4.461,-0.863 4.129,6.352 h 6.867 c 0,0 3.426,0.519 3.25,-2.742 -0.125,-2.575 -2.742,-3.262 -2.742,-3.262 z m -82.398,22.523 c 0,0 -7.286,-16.828 -7.286,-18.218 0,-1.407 13.809,3.437 17.942,-8.411 4.207,-12.062 -5.774,-18.312 -8.125,-19.214 -2.356,-0.895 -4.024,-1.372 -6.094,-2.055 -1.887,-0.625 -2.871,-2.168 -1.477,-3.688 l 10.93,-11.773 c 0,0 8.418,-3.641 7.567,-7.856 h -17.383 v 4.489 l -15.985,15.14 c 0,0 7.852,14.293 7.578,15.137 l -5.324,0.566 c 0,0 -3.933,-14.023 -11.218,-14.582 h -13.743 v -11.777 c 0,0 8.692,-2.801 8.399,-9.531 H 350 l -4.492,4.48 v 27.2 c 0,0 0.285,6.449 6.172,6.738 h 6.437 c 0,0 -0.273,1.676 -0.832,5.039 0,0 -8.867,-2.328 -14.433,3.941 -7.86,8.871 -1.348,21.145 0.136,24.66 7.317,17.454 3.242,20.418 3.242,20.418 -1.093,1.461 -3.808,0.887 -3.808,0.887 0,0 1.613,3.297 7.004,3.375 0,0 13.738,1.11 14.012,-11.723 0.273,-12.843 -6.434,-11.406 -6.434,-31.742 0,-3.55 0,10.098 12.625,15.981 0,0 -5.32,24.394 13.742,60.562 0,0 14.793,21.078 14.285,16.547 -0.554,-5.047 -1.121,-10.098 -1.668,-11.777 -0.566,-1.688 5.039,3.363 8.68,2.801 3.645,-0.559 3.371,-0.844 5.898,-3.079 l 10.93,1.114 c 0,0 1.961,-5.043 -4.199,-7.285 0,0 -7.805,-2.848 -8.703,-4.204 -1.668,-2.527 -0.555,-3.648 -0.555,-3.648 l 9.813,3.359 c 0,0 2.238,-3.082 -8.133,-7.004 -10.383,-3.925 -8.41,-15.14 -8.41,-15.14 0,0 13.742,10.094 19.062,10.094 5.332,0 14.024,0 14.024,0 0,0 3.644,-7.575 -6.161,-9.25 l -5.343,-0.563 -9.805,-8.133 -11.055,0.278 c 0,0 -0.722,-2.235 1.789,-2.797 2.528,-0.563 8.418,1.113 16.825,-1.688 7.031,-2.34 7.296,-10.09 7.296,-10.09 v -11.777 c 0,0 -7.296,-3.93 -9.25,11.777 l -18.503,-3.367 -7.024,4.492 z m -60.692,85.25 h -10 v 31.082 h -4.191 l 1.66,8.821 h 12.531 z m 8.418,30.25 c 0,7.555 6.707,11.285 13.484,11.285 6.758,0 13.477,-3.73 13.477,-11.285 0,-4.199 -2.617,-7.761 -6.238,-8.972 v -0.106 c 4.726,-1.574 7.871,-5.187 7.871,-10.379 0,-8.187 -8.293,-11.965 -15.11,-11.965 -6.835,0 -15.125,3.778 -15.125,11.965 0,5.192 3.153,8.805 7.879,10.379 v 0.106 c -3.613,1.211 -6.238,4.773 -6.238,8.972 z m 33.848,-0.261 v 9.554 h 33.015 l -22.089,-39.543 h -12.391 l 17.519,29.989 z m 48.828,11.082 c 11.426,0 16.308,-10.758 16.308,-20.75 0,-9.996 -4.835,-20.75 -16.308,-20.75 -11.465,0 -16.309,10.754 -16.309,20.75 0,9.992 4.891,20.75 16.309,20.75 z m 22.324,-58.821 c 0.066,0 0.106,-0.066 0.176,-0.074 0.066,0.008 0.105,0.074 0.176,0.074 1.5,0 2.73,-1.226 2.73,-2.734 0,-1.012 -0.555,-1.891 -1.355,-2.367 l -0.008,-0.043 -0.02,-54.469 17.996,-18.273 v -5.805 h -2.703 l -0.019,4.629 -16.797,17.133 -16.797,-17.133 -0.02,-4.629 h -2.707 v 5.805 l 18,18.273 -0.019,54.469 -0.012,0.043 c -0.801,0.476 -1.355,1.355 -1.355,2.367 0,1.508 1.23,2.734 2.734,2.734 z M 586.988,476.188 510.34,405.82 h -19.379 l 96.027,88.082 0.004,17.618 -115.406,-105.704 h -19.379 l 116.27,105.704 h -19.375 l -96.899,-88.082 v 17.621 l 77.52,70.461 H 510.34 l -58.129,-52.852 v 17.621 l 38.75,35.231 H 471.586 L 452.207,493.906 V 511.52 H 316.777 V 296.281 c 0,-79.023 135.118,-112.168 135.118,-112.168 0,0 135.097,33.145 135.097,112.168 l -0.004,109.539 h -18.511 l 18.515,17.614 v 17.617 l -37.89,-35.231 h -19.379 l 57.269,52.852 -0.004,17.516"
         style="fill:#231f20;fill-opacity:1;fill-rule:nonzero;stroke:none"
         id="path156" /><path
         d="m 503.434,379.777 h -7.715 l 1.594,2.661 z"
         style="fill:#231f20;fill-opacity:1;fill-rule:nonzero;stroke:none"
         id="path158" /><path
         d="m 249.766,557.023 h 4.875 v -14.121 c 0,-1.574 0.183,-2.73 0.558,-3.453 0.578,-1.289 1.844,-1.929 3.789,-1.929 1.942,0 3.2,0.64 3.778,1.929 0.371,0.723 0.554,1.879 0.554,3.453 v 14.121 h 4.879 v -14.128 c 0,-2.446 -0.375,-4.352 -1.125,-5.707 -1.418,-2.489 -4.109,-3.747 -8.086,-3.747 -3.972,0 -6.672,1.258 -8.093,3.747 -0.758,1.355 -1.129,3.261 -1.129,5.707 v 14.128"
         style="fill:#231f20;fill-opacity:1;fill-rule:nonzero;stroke:none"
         id="path160" /><path
         d="m 276.809,557.023 h 5.039 l 9.117,-16.027 v 16.027 h 4.48 v -22.984 h -4.804 l -9.356,16.305 v -16.305 h -4.476 v 22.984"
         style="fill:#231f20;fill-opacity:1;fill-rule:nonzero;stroke:none"
         id="path162" /><path
         d="m 308.832,534.039 h -4.777 v 22.984 h 4.777 v -22.984"
         style="fill:#231f20;fill-opacity:1;fill-rule:nonzero;stroke:none"
         id="path164" /><path
         d="m 330.82,557.023 h 4.993 l -7.836,-22.984 h -4.547 l -7.762,22.984 h 5.125 l 4.988,-17.453 5.039,17.453"
         style="fill:#231f20;fill-opacity:1;fill-rule:nonzero;stroke:none"
         id="path166" /><path
         d="m 358.488,552.949 h -12.156 v -4.879 h 11.156 v -3.992 h -11.156 v -5.91 h 12.723 v -4.129 h -17.422 v 22.984 h 16.855 v -4.074"
         style="fill:#231f20;fill-opacity:1;fill-rule:nonzero;stroke:none"
         id="path168" /><path
         d="m 371.219,553.027 v -6.175 h 5.164 c 1.019,0 1.793,0.132 2.308,0.382 0.911,0.43 1.368,1.289 1.368,2.579 0,1.394 -0.446,2.335 -1.321,2.808 -0.496,0.27 -1.242,0.406 -2.222,0.406 z m 9.922,3.407 c 0.847,-0.371 1.558,-0.911 2.148,-1.614 0.488,-0.582 0.871,-1.226 1.156,-1.929 0.285,-0.707 0.426,-1.52 0.426,-2.418 0,-1.086 -0.281,-2.164 -0.828,-3.223 -0.555,-1.051 -1.457,-1.801 -2.727,-2.234 1.059,-0.426 1.817,-1.032 2.25,-1.817 0.446,-0.789 0.664,-1.984 0.664,-3.597 v -1.536 c 0,-1.054 0.047,-1.765 0.125,-2.144 0.129,-0.594 0.43,-1.024 0.887,-1.305 v -0.578 h -5.297 c -0.148,0.508 -0.25,0.914 -0.308,1.231 -0.133,0.644 -0.199,1.304 -0.211,1.976 l -0.02,2.137 c -0.031,1.472 -0.281,2.445 -0.773,2.933 -0.485,0.489 -1.395,0.735 -2.727,0.735 h -4.687 v -9.012 h -4.699 v 22.984 h 10.992 c 1.57,-0.035 2.777,-0.23 3.629,-0.589"
         style="fill:#231f20;fill-opacity:1;fill-rule:nonzero;stroke:none"
         id="path170" /><path
         d="m 395.363,541.133 c 0.141,-1.051 0.434,-1.836 0.875,-2.356 0.793,-0.945 2.16,-1.422 4.086,-1.422 1.16,0 2.098,0.133 2.824,0.379 1.372,0.477 2.051,1.364 2.051,2.664 0,0.758 -0.344,1.344 -1.008,1.766 -0.668,0.406 -1.734,0.762 -3.187,1.07 l -2.492,0.547 c -2.442,0.539 -4.121,1.133 -5.039,1.762 -1.555,1.055 -2.325,2.719 -2.325,4.977 0,2.054 0.762,3.765 2.274,5.125 1.516,1.363 3.742,2.046 6.68,2.046 2.445,0 4.539,-0.644 6.269,-1.925 1.731,-1.286 2.645,-3.149 2.727,-5.59 h -4.621 c -0.079,1.379 -0.7,2.363 -1.844,2.945 -0.774,0.383 -1.723,0.578 -2.867,0.578 -1.27,0 -2.282,-0.25 -3.036,-0.75 -0.761,-0.496 -1.132,-1.195 -1.132,-2.09 0,-0.82 0.371,-1.433 1.113,-1.836 0.48,-0.273 1.5,-0.593 3.055,-0.953 l 4.035,-0.949 c 1.769,-0.418 3.09,-0.976 3.976,-1.672 1.368,-1.082 2.051,-2.644 2.051,-4.687 0,-2.102 -0.812,-3.844 -2.43,-5.242 -1.625,-1.379 -3.921,-2.079 -6.882,-2.079 -3.032,0 -5.407,0.692 -7.141,2.055 -1.73,1.367 -2.602,3.242 -2.602,5.637 h 4.59"
         style="fill:#231f20;fill-opacity:1;fill-rule:nonzero;stroke:none"
         id="path172" /><path
         d="m 421.938,534.039 h -4.77 v 22.984 h 4.77 v -22.984"
         style="fill:#231f20;fill-opacity:1;fill-rule:nonzero;stroke:none"
         id="path174" /><path
         d="m 447.895,557.023 v -4.074 h -6.875 v -18.91 h -4.829 v 18.91 h -6.914 v 4.074 h 18.618"
         style="fill:#231f20;fill-opacity:1;fill-rule:nonzero;stroke:none"
         id="path176" /><path
         d="m 465.992,557.023 h 5.438 l -7.684,-14.371 v -8.613 h -4.805 v 8.613 l -7.949,14.371 h 5.66 l 4.77,-10.011 4.57,10.011"
         style="fill:#231f20;fill-opacity:1;fill-rule:nonzero;stroke:none"
         id="path178" /><path
         d="m 491.699,554.617 c 1.856,1.899 4.203,2.836 7.071,2.836 3.824,0 6.621,-1.265 8.39,-3.805 0.977,-1.421 1.496,-2.847 1.57,-4.289 h -4.804 c -0.301,1.106 -0.692,1.938 -1.176,2.5 -0.855,0.993 -2.125,1.493 -3.801,1.493 -1.711,0 -3.058,-0.692 -4.047,-2.11 -0.988,-1.406 -1.488,-3.402 -1.488,-5.98 0,-2.574 0.527,-4.5 1.566,-5.789 1.047,-1.285 2.368,-1.926 3.973,-1.926 1.645,0 2.902,0.551 3.77,1.652 0.48,0.594 0.871,1.481 1.191,2.664 h 4.77 c -0.411,-2.504 -1.461,-4.543 -3.157,-6.109 -1.687,-1.566 -3.859,-2.359 -6.507,-2.359 -3.266,0 -5.836,1.066 -7.704,3.183 -1.867,2.133 -2.804,5.051 -2.804,8.766 0,4.008 1.062,7.101 3.187,9.273"
         style="fill:#231f20;fill-opacity:1;fill-rule:nonzero;stroke:none"
         id="path180" /><path
         d="m 515.496,534.039 v 22.984 h 4.77 v -8.765 h 8.937 v 8.765 h 4.77 v -22.984 h -4.77 v 10.258 h -8.937 v -10.258 h -4.77"
         style="fill:#231f20;fill-opacity:1;fill-rule:nonzero;stroke:none"
         id="path182" /><path
         d="m 547.672,534.039 h -4.774 v 22.984 h 4.774 v -22.984"
         style="fill:#231f20;fill-opacity:1;fill-rule:nonzero;stroke:none"
         id="path184" /><path
         d="m 558.316,554.617 c 1.852,1.899 4.204,2.836 7.059,2.836 3.836,0 6.633,-1.265 8.395,-3.805 0.972,-1.421 1.5,-2.847 1.574,-4.289 h -4.805 c -0.301,1.106 -0.695,1.938 -1.172,2.5 -0.851,0.993 -2.125,1.493 -3.808,1.493 -1.704,0 -3.055,-0.692 -4.051,-2.11 -0.985,-1.406 -1.477,-3.402 -1.477,-5.98 0,-2.574 0.52,-4.5 1.563,-5.789 1.047,-1.285 2.367,-1.926 3.969,-1.926 1.652,0 2.91,0.551 3.773,1.652 0.484,0.594 0.879,1.481 1.191,2.664 h 4.77 c -0.418,-2.504 -1.457,-4.543 -3.149,-6.109 -1.699,-1.566 -3.867,-2.359 -6.507,-2.359 -3.27,0 -5.844,1.066 -7.715,3.183 -1.867,2.133 -2.805,5.051 -2.805,8.766 0,4.008 1.063,7.101 3.195,9.273"
         style="fill:#231f20;fill-opacity:1;fill-rule:nonzero;stroke:none"
         id="path186" /><path
         d="m 586.398,542.719 h 5.883 l -2.902,9.047 z m 0.317,14.304 h 5.433 l 8.129,-22.984 h -5.211 l -1.515,4.727 h -8.461 l -1.555,-4.727 h -5.027 l 8.207,22.984"
         style="fill:#231f20;fill-opacity:1;fill-rule:nonzero;stroke:none"
         id="path188" /><path
         d="m 620.563,549.852 c -0.364,1.566 -1.25,2.66 -2.661,3.289 -0.797,0.339 -1.668,0.507 -2.636,0.507 -1.852,0 -3.371,-0.691 -4.555,-2.093 -1.195,-1.391 -1.793,-3.492 -1.793,-6.293 0,-2.821 0.641,-4.817 1.941,-5.989 1.282,-1.168 2.75,-1.753 4.387,-1.753 1.613,0 2.934,0.457 3.957,1.382 1.031,0.926 1.676,2.137 1.906,3.637 h -5.316 v 3.828 h 9.578 v -12.328 h -3.183 l -0.485,2.867 c -0.926,-1.086 -1.758,-1.851 -2.5,-2.297 -1.262,-0.777 -2.816,-1.168 -4.676,-1.168 -3.043,0 -5.539,1.059 -7.476,3.168 -2.028,2.118 -3.043,5.008 -3.043,8.696 0,3.718 1.019,6.695 3.066,8.941 2.055,2.242 4.758,3.367 8.121,3.367 2.926,0 5.274,-0.742 7.043,-2.218 1.77,-1.485 2.797,-3.336 3.055,-5.543 h -4.73"
         style="fill:#231f20;fill-opacity:1;fill-rule:nonzero;stroke:none"
         id="path190" /><path
         d="m 647.852,539.57 c 1.117,1.407 1.675,3.407 1.675,5.989 0,2.582 -0.558,4.57 -1.675,5.984 -1.118,1.406 -2.622,2.105 -4.528,2.105 -1.902,0 -3.418,-0.699 -4.558,-2.101 -1.133,-1.399 -1.696,-3.399 -1.696,-5.988 0,-2.582 0.563,-4.582 1.696,-5.989 1.14,-1.402 2.656,-2.101 4.558,-2.101 1.906,0 3.41,0.699 4.528,2.101 z m 2.996,-3.492 c -1.731,-1.785 -4.243,-2.683 -7.524,-2.683 -3.293,0 -5.797,0.898 -7.539,2.683 -2.324,2.195 -3.484,5.352 -3.484,9.481 0,4.207 1.16,7.379 3.484,9.484 1.742,1.781 4.246,2.676 7.539,2.676 3.281,0 5.793,-0.895 7.524,-2.676 2.324,-2.105 3.48,-5.277 3.48,-9.484 0,-4.129 -1.156,-7.286 -3.48,-9.481"
         style="fill:#231f20;fill-opacity:1;fill-rule:nonzero;stroke:none"
         id="path192" /></g></g></svg>