<svg width="120" height="87" viewBox="0 0 120 87" fill="none" xmlns="http://www.w3.org/2000/svg">
<g clip-path="url(#clip0)">
<path d="M1.84219 83.0292C1.90208 83.0365 1.97969 83.0391 2.07552 83.0391C2.40625 83.0391 2.66459 82.9943 2.85208 82.9016C3.20104 82.7318 3.37344 82.4089 3.37344 81.9334C3.37344 81.6511 3.29584 81.4516 3.13959 81.3365C2.98229 81.2209 2.77396 81.162 2.51251 81.162C2.40833 81.162 2.32917 81.1724 2.27604 81.1922C2.22344 81.2115 2.18489 81.2615 2.16093 81.3422L1.69011 83.0073C1.73229 83.0151 1.78229 83.0224 1.84219 83.0292V83.0292ZM0 85.2349C0.156771 85.2235 0.266145 85.1943 0.323959 85.15C0.416667 85.0839 0.491667 84.9479 0.55 84.7375L1.37604 81.763L1.43803 81.5078C1.44479 81.4766 1.45052 81.449 1.45312 81.4229C1.45677 81.3985 1.45781 81.3771 1.45781 81.3568C1.45781 81.2521 1.4224 81.1797 1.34948 81.1401C1.27865 81.1011 1.15417 81.0766 0.979688 81.0646V80.9563H2.64011C2.98229 80.9563 3.25885 81.0005 3.46823 81.0854C3.86407 81.2433 4.06197 81.5433 4.06197 81.9797C4.06197 82.2469 3.98281 82.4823 3.82552 82.6886C3.52292 83.088 2.97708 83.2886 2.19011 83.2886C2.09427 83.2886 1.99844 83.2844 1.90417 83.2771C1.80989 83.2693 1.71875 83.2563 1.63125 83.2386L1.26875 84.5386C1.24687 84.6146 1.23125 84.6776 1.22083 84.7292C1.20052 84.8167 1.19063 84.8839 1.19063 84.9328C1.19063 85.0433 1.22396 85.1183 1.29115 85.1594C1.35729 85.2016 1.47708 85.2266 1.64896 85.2349V85.3433H0V85.2349Z" fill="#231F20"/>
<path d="M5.5177 82.3766C5.52655 82.388 5.52968 82.4031 5.52968 82.4172C5.52811 82.4407 5.52447 82.4584 5.52135 82.4688L5.18592 83.7448L5.25884 83.5959C5.41666 83.2865 5.60051 83.0058 5.80988 82.7505C6.0203 82.4959 6.22083 82.3693 6.40988 82.3693C6.51302 82.3693 6.59114 82.4031 6.64791 82.4698C6.70311 82.5386 6.7302 82.6157 6.7302 82.7037C6.7302 82.8021 6.70311 82.8839 6.64791 82.9479C6.59322 83.013 6.51614 83.0448 6.41926 83.0448C6.35207 83.0448 6.30207 83.0318 6.2677 83.0052C6.23228 82.9776 6.20624 82.9479 6.18592 82.912L6.14791 82.8391C6.13854 82.8261 6.12916 82.8157 6.11718 82.8084C6.10468 82.7995 6.0901 82.7964 6.07291 82.7964C5.98644 82.7964 5.86302 82.9162 5.70103 83.1537C5.5401 83.3927 5.39583 83.65 5.26874 83.9292C5.19218 84.0974 5.10624 84.3209 5.01092 84.599C4.95155 84.774 4.87239 85.0219 4.77395 85.3433H4.26874L4.81978 83.3589C4.85051 83.2459 4.87551 83.1459 4.89374 83.0558C4.91196 82.9683 4.92187 82.8959 4.92187 82.8391C4.92187 82.774 4.90468 82.7245 4.87187 82.6891C4.83906 82.6552 4.78332 82.6386 4.70155 82.6386C4.67499 82.6386 4.6427 82.6407 4.60363 82.6443C4.56458 82.649 4.5177 82.6542 4.46302 82.661V82.5521L4.59426 82.5271C4.76562 82.4922 4.95311 82.4552 5.15572 82.4167C5.35884 82.3771 5.46614 82.3578 5.47655 82.3578C5.49687 82.3578 5.5104 82.3636 5.5177 82.3766" fill="#231F20"/>
<path d="M8.39687 83.5011C8.65885 83.2683 8.78958 83.037 8.78958 82.8084C8.78958 82.725 8.7703 82.6589 8.73177 82.6104C8.69218 82.5604 8.63333 82.5365 8.55729 82.5365C8.41666 82.5365 8.27707 82.5974 8.14062 82.7188C8.00521 82.8391 7.88229 82.9761 7.77291 83.1287C7.65729 83.3084 7.56614 83.4797 7.49791 83.6433C7.46093 83.7313 7.42187 83.8302 7.37969 83.9412C7.79687 83.8813 8.13541 83.7328 8.39687 83.5011V83.5011ZM7.33541 83.0599C7.76822 82.6068 8.21562 82.3797 8.67551 82.3797C8.84635 82.3797 8.98177 82.4188 9.08281 82.4974C9.18281 82.575 9.23281 82.6927 9.23281 82.8474C9.23281 83.162 9.04947 83.4308 8.68073 83.6547C8.31354 83.8787 7.92655 84.0157 7.52083 84.0662L7.33385 84.088C7.30521 84.1782 7.28593 84.25 7.27447 84.3042C7.2651 84.3573 7.25833 84.425 7.25833 84.5058C7.25833 84.6985 7.32083 84.8485 7.44635 84.9558C7.57135 85.063 7.71978 85.1162 7.8927 85.1162C8.05521 85.1162 8.22863 85.0615 8.41145 84.9516C8.51718 84.888 8.66718 84.7735 8.86562 84.6078L8.95155 84.6844C8.85363 84.8084 8.71302 84.937 8.52917 85.0667C8.20521 85.3032 7.87811 85.4203 7.55155 85.4203C7.31874 85.4203 7.11666 85.337 6.94218 85.173C6.7677 85.0089 6.68021 84.7756 6.68021 84.4693C6.68021 83.9849 6.89791 83.5151 7.33541 83.0599" fill="#231F20"/>
<path d="M11.9427 82.9162C11.8792 82.7563 11.7588 82.6776 11.5849 82.6776C11.4338 82.6776 11.2693 82.7526 11.0922 82.9021C10.9146 83.0531 10.7661 83.3005 10.6464 83.6464C10.551 83.9193 10.4614 84.2052 10.3776 84.5037C10.2937 84.8031 10.2521 84.9781 10.2521 85.0302C10.2521 85.1136 10.2864 85.1745 10.3542 85.2141C10.4219 85.2537 10.5031 85.2735 10.5984 85.2735C10.9786 85.2735 11.3135 85.0302 11.6036 84.5448C11.863 84.1104 11.9927 83.6792 11.9927 83.2521C11.9927 83.111 11.976 82.9979 11.9427 82.9162V82.9162ZM8.92239 86.6198C9.05469 86.6198 9.15311 86.5948 9.21978 86.5464C9.28593 86.4969 9.33593 86.4125 9.36562 86.2943L10.2703 83.0995C10.2917 83.0203 10.3047 82.962 10.3104 82.9271C10.3161 82.8917 10.3182 82.8636 10.3182 82.8443C10.3182 82.7714 10.2917 82.7172 10.2391 82.6818C10.1854 82.6464 10.1073 82.6297 10.0052 82.6297C9.98281 82.6297 9.9625 82.6297 9.9427 82.6313C9.92395 82.6328 9.90207 82.6339 9.88125 82.6391L9.87447 82.5308L10.9396 82.3771C10.9526 82.375 10.9625 82.3834 10.9693 82.4031C10.9604 82.4407 10.9516 82.4688 10.9458 82.4886L10.7661 83.0933C10.9094 82.9016 11.0411 82.7552 11.1609 82.6552C11.3771 82.4709 11.6021 82.3797 11.8354 82.3797C12.0734 82.3797 12.2588 82.4516 12.3953 82.5974C12.5307 82.7422 12.599 82.9636 12.599 83.2636C12.599 83.7761 12.3828 84.2636 11.951 84.7292C11.5245 85.1891 11.0807 85.4203 10.6203 85.4203C10.5307 85.4203 10.4531 85.4099 10.3901 85.3933C10.3276 85.375 10.2505 85.3448 10.1594 85.3021L10.1036 85.5037C10.0458 85.7261 10.0052 85.8854 9.98437 85.9818C9.92655 86.236 9.89791 86.3771 9.89791 86.4099C9.89791 86.5 9.92655 86.5578 9.98437 86.5813C10.0411 86.6058 10.1531 86.6224 10.3224 86.6323V86.7281H8.92239V86.6198" fill="#231F20"/>
<path d="M15.1661 82.6271C15.0932 82.5521 15.0047 82.5141 14.9011 82.5141C14.5401 82.5141 14.2063 82.7886 13.8969 83.3365C13.6255 83.8183 13.4901 84.2328 13.4901 84.5813C13.4901 84.7573 13.5271 84.8839 13.6027 84.9636C13.6787 85.0448 13.7708 85.0839 13.8828 85.0839C14.2115 85.0839 14.5292 84.8183 14.8355 84.286C15.1292 83.8016 15.276 83.3646 15.276 82.975C15.276 82.8162 15.238 82.7011 15.1661 82.6271V82.6271ZM15.2719 82.5021C15.3224 82.5516 15.3615 82.6141 15.3912 82.6927L15.4084 82.7375L15.4812 82.4917C15.4907 82.463 15.4995 82.4443 15.5052 82.4349C15.512 82.4245 15.5281 82.4188 15.5521 82.4167L15.9323 82.3745C15.9516 82.3745 15.9636 82.3776 15.9677 82.3854C15.9708 82.3927 15.9697 82.4063 15.9645 82.4266C15.9557 82.4552 15.9489 82.4766 15.9448 82.4943C15.9401 82.5099 15.9328 82.5344 15.9235 82.5646L15.5984 83.7375C15.5265 83.9943 15.4683 84.2146 15.4172 84.4C15.3369 84.7354 15.2964 84.9266 15.2964 84.9745C15.2964 85.0052 15.3052 85.0276 15.3213 85.0417C15.3369 85.0552 15.3573 85.0625 15.3823 85.0625C15.4011 85.0625 15.424 85.0568 15.4473 85.0433C15.4719 85.0302 15.5005 85.011 15.5349 84.9834L15.5937 84.9386C15.612 84.923 15.6328 84.9063 15.6568 84.8849C15.6792 84.8646 15.7068 84.8386 15.7391 84.8084L15.9541 84.5995L16.0333 84.6672C15.7979 84.9578 15.6115 85.1547 15.4693 85.2584C15.3276 85.3625 15.1921 85.4146 15.0651 85.4146C14.9812 85.4146 14.9172 85.3854 14.8724 85.3302C14.8281 85.2719 14.8063 85.2016 14.8063 85.1162C14.8063 85.0375 14.8203 84.9256 14.8505 84.7776C14.8797 84.6313 14.9084 84.5078 14.936 84.4073C14.8969 84.4735 14.8307 84.5683 14.7375 84.6943C14.6459 84.8198 14.5317 84.9412 14.3959 85.0594C14.2364 85.2011 14.0833 85.3021 13.9375 85.3599C13.8229 85.4 13.7131 85.4203 13.6088 85.4203C13.4323 85.4203 13.2713 85.3469 13.1276 85.2016C12.9828 85.0568 12.9114 84.8495 12.9114 84.5834C12.9114 84.1235 13.1193 83.6448 13.5344 83.1459C13.9636 82.6276 14.4073 82.3693 14.8677 82.3693C15.0417 82.3693 15.1771 82.4136 15.2719 82.5021" fill="#231F20"/>
<path d="M17.5828 82.3766C17.5912 82.388 17.5953 82.4031 17.5953 82.4172C17.5921 82.4407 17.5901 82.4584 17.5864 82.4688L17.2527 83.7448L17.3235 83.5959C17.4812 83.2865 17.6645 83.0058 17.8751 82.7505C18.086 82.4959 18.2849 82.3693 18.4745 82.3693C18.5765 82.3693 18.6557 82.4031 18.7125 82.4698C18.7677 82.5386 18.7959 82.6157 18.7959 82.7037C18.7959 82.8021 18.7683 82.8839 18.7125 82.9479C18.6573 83.013 18.5817 83.0448 18.4844 83.0448C18.4183 83.0448 18.3672 83.0318 18.3328 83.0052C18.2979 82.9776 18.2708 82.9479 18.2516 82.912L18.2125 82.8391C18.2041 82.8261 18.1932 82.8157 18.1817 82.8084C18.1697 82.7995 18.1547 82.7964 18.1375 82.7964C18.0516 82.7964 17.9276 82.9162 17.7672 83.1537C17.6052 83.3927 17.4604 83.65 17.3339 83.9292C17.2568 84.0974 17.1713 84.3209 17.076 84.599C17.0172 84.774 16.938 85.0219 16.8391 85.3433H16.3349L16.8849 83.3589C16.9151 83.2459 16.9401 83.1459 16.9588 83.0558C16.9765 82.9683 16.9864 82.8959 16.9864 82.8391C16.9864 82.774 16.9697 82.7245 16.9375 82.6891C16.9047 82.6552 16.8484 82.6386 16.7677 82.6386C16.7407 82.6386 16.7084 82.6407 16.6688 82.6443C16.6297 82.649 16.5828 82.6542 16.5281 82.661V82.5521L16.6588 82.5271C16.8307 82.4922 17.0183 82.4552 17.2213 82.4167C17.424 82.3771 17.5312 82.3578 17.5421 82.3578C17.562 82.3578 17.5755 82.3636 17.5828 82.3766" fill="#231F20"/>
<path d="M19.9948 81.5495C19.9323 81.4797 19.9005 81.3948 19.9005 81.2969C19.9005 81.1959 19.9323 81.1104 19.9948 81.0412C20.0584 80.9709 20.1355 80.9354 20.2251 80.9354C20.3151 80.9354 20.3917 80.9709 20.4579 81.0412C20.5219 81.1104 20.5547 81.1959 20.5547 81.2969C20.5547 81.3969 20.5219 81.4823 20.4579 81.5506C20.3917 81.6198 20.3151 81.6547 20.2251 81.6547C20.1355 81.6547 20.0584 81.6198 19.9948 81.5495ZM20.3047 82.3698C20.3161 82.3771 20.3213 82.386 20.3197 82.398L19.6584 84.7417C19.6276 84.8657 19.612 84.9407 19.612 84.9641C19.612 84.998 19.6183 85.0266 19.6312 85.05C19.6432 85.0766 19.6703 85.0896 19.714 85.0896C19.7875 85.0896 19.886 85.0245 20.0084 84.8959C20.0803 84.8198 20.1693 84.7089 20.274 84.5662L20.3599 84.6386L20.3265 84.6849C20.1625 84.9151 20.0271 85.0813 19.9197 85.1823C19.7521 85.3407 19.588 85.4203 19.4292 85.4203C19.3349 85.4203 19.2557 85.3797 19.1948 85.3016C19.1312 85.2235 19.1011 85.1282 19.1011 85.0209C19.1011 84.9578 19.1047 84.9021 19.1131 84.8547C19.1224 84.8073 19.1385 84.7375 19.1636 84.6459L19.6312 82.9563C19.6385 82.9302 19.6437 82.9063 19.6484 82.8849C19.6516 82.8625 19.6547 82.8412 19.6547 82.8183C19.6547 82.7401 19.626 82.6912 19.5683 82.6724C19.5104 82.6542 19.3964 82.6443 19.2265 82.6443V82.5365C19.4057 82.5141 19.5349 82.4985 19.614 82.4865C19.6927 82.4745 19.7719 82.4615 19.8527 82.449C19.9563 82.4318 20.0541 82.412 20.1479 82.3907C20.2401 82.3693 20.2927 82.362 20.3047 82.3698" fill="#231F20"/>
<path d="M20.7651 85.3433L21.326 83.3203C21.3745 83.1495 21.4021 83.0453 21.4099 83.0089C21.4172 82.974 21.4213 82.9344 21.4213 82.8917C21.4213 82.8282 21.4036 82.7776 21.3677 82.7422C21.3317 82.7058 21.262 82.6875 21.1568 82.6875C21.1307 82.6875 21.1047 82.6891 21.0792 82.6927C21.0541 82.6959 21.0265 82.6995 20.9959 82.7037V82.5964C21.138 82.574 21.2375 82.5573 21.2973 82.5469C21.3573 82.536 21.4224 82.5219 21.4921 82.5078L22.0755 82.3797C22.0885 82.388 22.0969 82.3985 22.1011 82.4094L21.6703 83.8188C21.9385 83.4099 22.1636 83.1052 22.3443 82.9068C22.6609 82.5552 22.9432 82.3797 23.1948 82.3797C23.2912 82.3797 23.3745 82.3985 23.4448 82.4354C23.5781 82.5078 23.6453 82.6365 23.6453 82.8256C23.6453 82.8782 23.6401 82.9328 23.6297 82.9896C23.6177 83.0469 23.6041 83.1078 23.5864 83.173L23.1541 84.7422C23.1459 84.7756 23.1364 84.8151 23.1245 84.8625C23.114 84.9094 23.1088 84.9422 23.1088 84.961C23.1088 84.9943 23.1167 85.024 23.1323 85.05C23.1469 85.0766 23.1713 85.0896 23.2052 85.0896C23.2599 85.0896 23.3213 85.0568 23.3937 84.9901C23.4656 84.924 23.5807 84.7823 23.7427 84.5651L23.8369 84.6521C23.6625 84.8927 23.5235 85.0636 23.4197 85.162C23.2432 85.3334 23.0755 85.4203 22.9145 85.4203C22.8417 85.4203 22.7719 85.3948 22.7036 85.3464C22.6364 85.2964 22.6027 85.2063 22.6027 85.0782C22.6027 85.0396 22.6052 85.0006 22.6099 84.9589C22.6151 84.9167 22.6229 84.8813 22.6312 84.85L23.0547 83.2584C23.0755 83.1714 23.0912 83.0995 23.0984 83.0438C23.1063 82.988 23.1099 82.9485 23.1099 82.9245C23.1099 82.8719 23.0969 82.8266 23.0713 82.7886C23.0469 82.7506 23.0027 82.7318 22.938 82.7318C22.7719 82.7318 22.5625 82.8782 22.3093 83.1756C22.162 83.3521 22.0109 83.5615 21.8573 83.8058C21.7421 83.9953 21.6511 84.1808 21.5839 84.3599C21.5183 84.5401 21.4136 84.8677 21.2693 85.3433H20.7651Z" fill="#231F20"/>
<path d="M25.2349 83.9953C25.3052 84.1297 25.4307 84.1974 25.612 84.1974C25.8079 84.1974 25.9828 84.0714 26.1375 83.8209C26.2917 83.5688 26.3677 83.2922 26.3677 82.9886C26.3677 82.8443 26.3364 82.7318 26.2735 82.649C26.2093 82.5667 26.1151 82.5261 25.988 82.5261C25.7443 82.5261 25.5464 82.6563 25.3979 82.9167C25.2479 83.1771 25.1735 83.4292 25.1735 83.6714C25.1735 83.8058 25.1937 83.9151 25.2349 83.9953V83.9953ZM25.9369 86.4115C26.1093 86.286 26.1953 86.138 26.1953 85.9641C26.1953 85.8334 26.1489 85.7224 26.0593 85.6323C26.012 85.5839 25.9339 85.5323 25.8255 85.4776C25.7355 85.4339 25.5833 85.3703 25.3693 85.2891C25.1541 85.2063 25.0307 85.1651 24.9979 85.1651C24.9407 85.1651 24.8307 85.2417 24.6672 85.3943C24.5027 85.5464 24.4203 85.7183 24.4203 85.911C24.4203 86.2031 24.5469 86.4037 24.7995 86.5136C24.9317 86.5709 25.0943 86.5995 25.2864 86.5995C25.5479 86.5995 25.764 86.536 25.9369 86.4115V86.4115ZM24.2469 85.5266C24.3729 85.3797 24.5708 85.2323 24.8437 85.087C24.7891 85.0516 24.7443 85.0151 24.7088 84.9771C24.6751 84.9386 24.6568 84.8886 24.6568 84.824C24.6568 84.7354 24.7193 84.6323 24.8437 84.5162C24.9145 84.4511 25.0297 84.3651 25.1885 84.2578C25.0489 84.2052 24.9276 84.1308 24.8265 84.0349C24.7041 83.9052 24.6432 83.7375 24.6432 83.5323C24.6432 83.2016 24.7719 82.9271 25.0297 82.7078C25.2875 82.4886 25.6068 82.3797 25.988 82.3797C26.1869 82.3797 26.3552 82.411 26.4932 82.4735C26.6303 82.5349 26.7125 82.5865 26.7364 82.6276H27.1792V82.8907H26.8432C26.8563 82.9386 26.8667 82.9823 26.8724 83.0219C26.8797 83.0604 26.8823 83.1172 26.8823 83.1891C26.8823 83.5443 26.7453 83.8235 26.4719 84.0271C26.1979 84.2302 25.9031 84.3328 25.586 84.3328C25.5531 84.3328 25.5229 84.3302 25.4943 84.3276C25.4656 84.324 25.4307 84.3188 25.3896 84.3099C25.3568 84.3099 25.3125 84.3412 25.2552 84.4042C25.1959 84.4688 25.1667 84.5245 25.1667 84.5755C25.1667 84.649 25.4068 84.7766 25.888 84.9552C26.3672 85.1365 26.6068 85.4016 26.6068 85.75C26.6068 86.0125 26.4855 86.2417 26.2459 86.438C26.0047 86.6354 25.6412 86.7344 25.1557 86.7344C24.8177 86.7344 24.5511 86.662 24.3541 86.5183C24.1568 86.3745 24.0579 86.1979 24.0579 85.9922C24.0579 85.8287 24.1208 85.6729 24.2469 85.5266" fill="#231F20"/>
<path d="M31.5344 82.9162C31.4708 82.7563 31.3516 82.6776 31.1755 82.6776C31.0245 82.6776 30.8615 82.7526 30.6839 82.9021C30.5068 83.0531 30.3588 83.3005 30.238 83.6464C30.1427 83.9193 30.0527 84.2052 29.9688 84.5037C29.8855 84.8031 29.8432 84.9781 29.8432 85.0302C29.8432 85.1136 29.8771 85.1745 29.9448 85.2141C30.0136 85.2537 30.0943 85.2735 30.1896 85.2735C30.5703 85.2735 30.9047 85.0302 31.1948 84.5448C31.4541 84.1104 31.5839 83.6792 31.5839 83.2521C31.5839 83.111 31.5672 82.9979 31.5344 82.9162V82.9162ZM28.5151 86.6198C28.6464 86.6198 28.7453 86.5948 28.8104 86.5464C28.8792 86.4969 28.9265 86.4125 28.9579 86.2943L29.8599 83.0995C29.8823 83.0203 29.8964 82.962 29.9021 82.9271C29.9068 82.8917 29.9099 82.8636 29.9099 82.8443C29.9099 82.7714 29.8833 82.7172 29.8303 82.6818C29.776 82.6464 29.6984 82.6297 29.5959 82.6297C29.5751 82.6297 29.5547 82.6297 29.5344 82.6313C29.5151 82.6328 29.4943 82.6339 29.4719 82.6391L29.4656 82.5308L30.5307 82.3771C30.5443 82.375 30.5541 82.3834 30.5604 82.4031C30.5516 82.4407 30.5427 82.4688 30.5369 82.4886L30.3588 83.0933C30.5016 82.9016 30.6323 82.7552 30.7521 82.6552C30.9688 82.4709 31.1932 82.3797 31.4265 82.3797C31.664 82.3797 31.8516 82.4516 31.9864 82.5974C32.1219 82.7422 32.1896 82.9636 32.1896 83.2636C32.1896 83.7761 31.9745 84.2636 31.5427 84.7292C31.1156 85.1891 30.6724 85.4203 30.2131 85.4203C30.1219 85.4203 30.0443 85.4099 29.9817 85.3933C29.9188 85.375 29.8417 85.3448 29.7521 85.3021L29.6953 85.5037C29.6364 85.7261 29.5964 85.8854 29.5755 85.9818C29.5183 86.236 29.4901 86.3771 29.4901 86.4099C29.4901 86.5 29.5183 86.5578 29.5755 86.5813C29.6323 86.6058 29.7448 86.6224 29.9125 86.6323V86.7281H28.5151V86.6198" fill="#231F20"/>
<path d="M34.3287 83.5011C34.5891 83.2683 34.7208 83.037 34.7208 82.8084C34.7208 82.725 34.7 82.6589 34.6609 82.6104C34.6229 82.5604 34.5656 82.5365 34.4891 82.5365C34.3459 82.5365 34.2079 82.5974 34.0708 82.7188C33.9355 82.8391 33.8131 82.9761 33.7027 83.1287C33.588 83.3084 33.4969 83.4797 33.4292 83.6433C33.3912 83.7313 33.3521 83.8302 33.3104 83.9412C33.7271 83.8813 34.0672 83.7328 34.3287 83.5011V83.5011ZM33.2661 83.0599C33.7 82.6068 34.1464 82.3797 34.6063 82.3797C34.7781 82.3797 34.912 82.4188 35.0125 82.4974C35.114 82.575 35.1636 82.6927 35.1636 82.8474C35.1636 83.162 34.9797 83.4308 34.6115 83.6547C34.2443 83.8787 33.8573 84.0157 33.4511 84.0662L33.2651 84.088C33.2364 84.1782 33.2167 84.25 33.2063 84.3042C33.1948 84.3573 33.1896 84.425 33.1896 84.5058C33.1896 84.6985 33.2531 84.8485 33.3771 84.9558C33.5021 85.063 33.6505 85.1162 33.8224 85.1162C33.9849 85.1162 34.1593 85.0615 34.3417 84.9516C34.4459 84.888 34.5984 84.7735 34.7964 84.6078L34.8823 84.6844C34.7844 84.8084 34.6437 84.937 34.4604 85.0667C34.1349 85.3032 33.8093 85.4203 33.4812 85.4203C33.2505 85.4203 33.0473 85.337 32.8729 85.173C32.6973 85.0089 32.6099 84.7756 32.6099 84.4693C32.6099 83.9849 32.8303 83.5151 33.2661 83.0599" fill="#231F20"/>
<path d="M36.2584 85.0943C36.3495 85.2141 36.4812 85.2735 36.6584 85.2735C37.0136 85.2735 37.3303 85.0037 37.6047 84.4641C37.8391 84.0021 37.9563 83.5766 37.9563 83.188C37.9563 83.0235 37.9355 82.8907 37.8964 82.7901C37.8197 82.5995 37.6803 82.5037 37.476 82.5037C37.1427 82.5037 36.8303 82.7552 36.536 83.2573C36.2599 83.725 36.1219 84.188 36.1219 84.6417C36.1219 84.8235 36.1672 84.9745 36.2584 85.0943V85.0943ZM38.2912 82.6625C38.4432 82.8589 38.5177 83.0907 38.5177 83.3568C38.5177 83.8209 38.3145 84.2771 37.9057 84.7235C37.4823 85.1875 37.0333 85.4203 36.5541 85.4203C36.2531 85.4203 36.0136 85.3318 35.8312 85.1568C35.6489 84.9818 35.5579 84.7354 35.5579 84.4172C35.5579 83.938 35.7625 83.4797 36.1688 83.0417C36.5828 82.5933 37.0317 82.3693 37.5151 82.3693C37.8823 82.3693 38.1412 82.4667 38.2912 82.6625" fill="#231F20"/>
<path d="M41.2312 82.9162C41.1672 82.7563 41.0473 82.6776 40.8729 82.6776C40.7219 82.6776 40.5579 82.7526 40.3807 82.9021C40.2036 83.0531 40.0541 83.3005 39.9344 83.6464C39.8391 83.9193 39.7495 84.2052 39.6661 84.5037C39.5828 84.8031 39.5396 84.9781 39.5396 85.0302C39.5396 85.1136 39.5751 85.1745 39.6437 85.2141C39.7115 85.2537 39.7921 85.2735 39.8875 85.2735C40.2661 85.2735 40.6021 85.0302 40.8927 84.5448C41.1516 84.1104 41.2817 83.6792 41.2817 83.2521C41.2817 83.111 41.2636 82.9979 41.2312 82.9162V82.9162ZM38.2115 86.6198C38.3432 86.6198 38.4421 86.5948 38.5084 86.5464C38.5751 86.4969 38.6245 86.4125 38.6557 86.2943L39.5593 83.0995C39.5812 83.0203 39.5943 82.962 39.5995 82.9271C39.6047 82.8917 39.6073 82.8636 39.6073 82.8443C39.6073 82.7714 39.5812 82.7172 39.5265 82.6818C39.4745 82.6464 39.3953 82.6297 39.2937 82.6297C39.2713 82.6297 39.2521 82.6297 39.2323 82.6313C39.2115 82.6328 39.1921 82.6339 39.1697 82.6391L39.1636 82.5308L40.2287 82.3771C40.2417 82.375 40.2521 82.3834 40.2584 82.4031C40.2479 82.4407 40.2391 82.4688 40.2339 82.4886L40.0541 83.0933C40.1984 82.9016 40.3287 82.7552 40.4484 82.6552C40.6645 82.4709 40.8901 82.3797 41.1245 82.3797C41.3599 82.3797 41.5489 82.4516 41.6844 82.5974C41.8197 82.7422 41.8875 82.9636 41.8875 83.2636C41.8875 83.7761 41.6713 84.2636 41.2391 84.7292C40.8131 85.1891 40.3703 85.4203 39.9093 85.4203C39.8183 85.4203 39.7427 85.4099 39.6792 85.3933C39.6167 85.375 39.5396 85.3448 39.4473 85.3021L39.3927 85.5037C39.3339 85.7261 39.2948 85.8854 39.2713 85.9818C39.2167 86.236 39.1855 86.3771 39.1855 86.4099C39.1855 86.5 39.2167 86.5578 39.2713 86.5813C39.3303 86.6058 39.4421 86.6224 39.6115 86.6323V86.7281H38.2115V86.6198" fill="#231F20"/>
<path d="M43.3729 81.362C43.3823 81.3334 43.3885 81.3052 43.3901 81.2766C43.3912 81.2485 43.3937 81.225 43.3937 81.2078C43.3937 81.1328 43.3625 81.087 43.3027 81.0703C43.2443 81.0542 43.1245 81.0464 42.9448 81.049V80.9412C43.0437 80.9271 43.1568 80.912 43.2844 80.8959C43.4136 80.8782 43.4969 80.8657 43.5369 80.8594C43.6609 80.837 43.8079 80.8052 43.9839 80.7625C43.9995 80.7625 44.0136 80.7735 44.0307 80.7964L42.9355 84.7417C42.9109 84.836 42.8964 84.8927 42.8927 84.912C42.8885 84.9318 42.886 84.9516 42.886 84.9709C42.886 85.0125 42.8927 85.0474 42.9093 85.0787C42.924 85.1073 42.9527 85.1219 42.9953 85.1219C43.0735 85.1219 43.1751 85.0521 43.3041 84.912C43.4292 84.7714 43.5369 84.6375 43.6245 84.5037L43.714 84.5662C43.5265 84.8459 43.3797 85.0391 43.2755 85.1459C43.0943 85.3287 42.912 85.4203 42.7287 85.4203C42.6489 85.4203 42.5803 85.4 42.5188 85.3599C42.4251 85.3016 42.3771 85.2006 42.3771 85.0578C42.3771 85.0021 42.386 84.9282 42.4031 84.8365C42.4145 84.7818 42.4317 84.7188 42.4511 84.6464L43.3729 81.362" fill="#231F20"/>
<path d="M45.8912 83.5011C46.1531 83.2683 46.2833 83.037 46.2833 82.8084C46.2833 82.725 46.2636 82.6589 46.2235 82.6104C46.1855 82.5604 46.1281 82.5365 46.0527 82.5365C45.9093 82.5365 45.7703 82.5974 45.6349 82.7188C45.4969 82.8391 45.3755 82.9761 45.2661 83.1287C45.1516 83.3084 45.0593 83.4797 44.9927 83.6433C44.9536 83.7313 44.9145 83.8302 44.8745 83.9412C45.2896 83.8813 45.6307 83.7328 45.8912 83.5011V83.5011ZM44.8287 83.0599C45.2636 82.6068 45.7088 82.3797 46.1713 82.3797C46.3407 82.3797 46.476 82.4188 46.576 82.4974C46.6765 82.575 46.7271 82.6927 46.7271 82.8474C46.7271 83.162 46.5437 83.4308 46.1765 83.6547C45.8079 83.8787 45.4213 84.0157 45.0151 84.0662L44.8276 84.088C44.8 84.1782 44.7807 84.25 44.7688 84.3042C44.7584 84.3573 44.7531 84.425 44.7531 84.5058C44.7531 84.6985 44.8156 84.8485 44.9407 84.9558C45.0656 85.063 45.214 85.1162 45.386 85.1162C45.5489 85.1162 45.7235 85.0615 45.9057 84.9516C46.0099 84.888 46.1609 84.7735 46.3599 84.6078L46.4473 84.6844C46.3495 84.8084 46.2079 84.937 46.024 85.0667C45.6984 85.3032 45.3719 85.4203 45.0448 85.4203C44.8145 85.4203 44.6099 85.337 44.4355 85.173C44.2609 85.0089 44.1751 84.7756 44.1751 84.4693C44.1751 83.9849 44.3927 83.5151 44.8287 83.0599" fill="#231F20"/>
<path d="M48.8771 85.073C48.8797 85.049 48.8849 85.0266 48.8912 85.0021L49.5281 82.7089H49.0292C49.0292 82.65 49.0317 82.6136 49.0421 82.5974C49.0516 82.5813 49.0735 82.5667 49.1088 82.5516C49.3312 82.4563 49.5057 82.3651 49.6281 82.2771C49.7505 82.1891 49.9188 82.0209 50.1307 81.7683L50.1828 81.7058C50.1896 81.6974 50.1973 81.6901 50.2079 81.6844C50.2156 81.6792 50.2271 81.6766 50.2375 81.6766C50.2599 81.6808 50.274 81.6849 50.2833 81.6901C50.2896 81.7052 50.2937 81.7188 50.2948 81.7302C50.2948 81.7422 50.2948 81.7552 50.2921 81.7677L50.0984 82.4818H50.6412L50.6011 82.7089H50.0317L49.4197 84.9167C49.4084 84.9563 49.412 84.9933 49.4292 85.0302C49.4473 85.0662 49.476 85.0839 49.5188 85.0839C49.5751 85.0839 49.6557 85.0276 49.7584 84.9136C49.8172 84.8516 49.9172 84.7302 50.0579 84.548L50.1427 84.5974L50.0984 84.6662C49.9084 84.948 49.7427 85.1438 49.6011 85.2552C49.4563 85.3646 49.3208 85.4203 49.1932 85.4203C49.0812 85.4203 48.9995 85.3907 48.9511 85.3313C48.9005 85.2719 48.8745 85.2063 48.8745 85.1328C48.8745 85.1151 48.8745 85.0943 48.8771 85.073" fill="#231F20"/>
<path d="M51.3677 85.0943C51.4563 85.2141 51.5907 85.2735 51.7651 85.2735C52.1203 85.2735 52.438 85.0037 52.714 84.4641C52.9473 84.0021 53.0645 83.5766 53.0645 83.188C53.0645 83.0235 53.0437 82.8907 53.0057 82.7901C52.9276 82.5995 52.7885 82.5037 52.5839 82.5037C52.2505 82.5037 51.9355 82.7552 51.6437 83.2573C51.3677 83.725 51.2297 84.188 51.2297 84.6417C51.2297 84.8235 51.2765 84.9745 51.3677 85.0943V85.0943ZM53.4005 82.6625C53.5516 82.8589 53.6255 83.0907 53.6255 83.3568C53.6255 83.8209 53.4224 84.2771 53.0136 84.7235C52.5917 85.1875 52.1427 85.4203 51.6636 85.4203C51.3615 85.4203 51.1203 85.3318 50.9396 85.1568C50.7573 84.9818 50.6672 84.7354 50.6672 84.4172C50.6672 83.938 50.8703 83.4797 51.2781 83.0417C51.6921 82.5933 52.1412 82.3693 52.6245 82.3693C52.9917 82.3693 53.2495 82.4667 53.4005 82.6625" fill="#231F20"/>
<path d="M56.8016 81.362C56.8104 81.3334 56.8156 81.3052 56.8183 81.2766C56.8208 81.2485 56.8208 81.225 56.8208 81.2078C56.8208 81.1328 56.7912 81.087 56.7312 81.0703C56.6724 81.0542 56.5527 81.0464 56.3745 81.049V80.9412C56.4719 80.9271 56.5864 80.912 56.714 80.8959C56.8432 80.8782 56.9265 80.8657 56.9656 80.8594C57.0891 80.837 57.2375 80.8052 57.4136 80.7625C57.4276 80.7625 57.4448 80.7735 57.4579 80.7964L56.364 84.7417C56.3407 84.836 56.326 84.8927 56.3208 84.912C56.3172 84.9318 56.3145 84.9516 56.3145 84.9709C56.3145 85.0125 56.3235 85.0474 56.338 85.0787C56.3521 85.1073 56.3807 85.1219 56.424 85.1219C56.5021 85.1219 56.6063 85.0521 56.7323 84.912C56.8588 84.7714 56.9683 84.6375 57.0552 84.5037L57.1427 84.5662C56.9552 84.8459 56.8104 85.0391 56.7036 85.1459C56.5229 85.3287 56.3407 85.4203 56.1568 85.4203C56.0776 85.4203 56.0084 85.4 55.9473 85.3599C55.8536 85.3016 55.8068 85.2006 55.8068 85.0578C55.8068 85.0021 55.8156 84.9282 55.8328 84.8365C55.8443 84.7818 55.8599 84.7188 55.8797 84.6464L56.8016 81.362" fill="#231F20"/>
<path d="M59.3208 83.5011C59.5828 83.2683 59.714 83.037 59.714 82.8084C59.714 82.725 59.6948 82.6589 59.6541 82.6104C59.6151 82.5604 59.5552 82.5365 59.4797 82.5365C59.338 82.5365 59.2 82.5974 59.0631 82.7188C58.9276 82.8391 58.8052 82.9761 58.6959 83.1287C58.5803 83.3084 58.4891 83.4797 58.4213 83.6433C58.3849 83.7313 58.3443 83.8302 58.3041 83.9412C58.7208 83.8813 59.0579 83.7328 59.3208 83.5011V83.5011ZM58.2584 83.0599C58.6907 82.6068 59.1385 82.3797 59.5995 82.3797C59.7703 82.3797 59.9041 82.4188 60.0047 82.4974C60.1063 82.575 60.1557 82.6927 60.1557 82.8474C60.1557 83.162 59.9719 83.4308 59.6047 83.6547C59.2375 83.8787 58.8511 84.0157 58.4448 84.0662L58.2584 84.088C58.2297 84.1782 58.2088 84.25 58.1984 84.3042C58.1869 84.3573 58.1817 84.425 58.1817 84.5058C58.1817 84.6985 58.2443 84.8485 58.3693 84.9558C58.4943 85.063 58.6427 85.1162 58.8156 85.1162C58.9787 85.1162 59.1516 85.0615 59.3355 84.9516C59.4396 84.888 59.5907 84.7735 59.7885 84.6078L59.8755 84.6844C59.7765 84.8084 59.636 84.937 59.4527 85.0667C59.1281 85.3032 58.8027 85.4203 58.4745 85.4203C58.2417 85.4203 58.0396 85.337 57.8667 85.173C57.6921 85.0089 57.6036 84.7756 57.6036 84.4693C57.6036 83.9849 57.8224 83.5151 58.2584 83.0599" fill="#231F20"/>
<path d="M62.7297 82.6271C62.6584 82.5521 62.5697 82.5141 62.4667 82.5141C62.1063 82.5141 61.7713 82.7886 61.4631 83.3365C61.1907 83.8183 61.0552 84.2328 61.0552 84.5813C61.0552 84.7573 61.0917 84.8839 61.1672 84.9636C61.2427 85.0448 61.3355 85.0839 61.4473 85.0839C61.7765 85.0839 62.0943 84.8183 62.4005 84.286C62.6932 83.8016 62.8407 83.3646 62.8407 82.975C62.8407 82.8162 62.8041 82.7011 62.7297 82.6271V82.6271ZM62.8364 82.5021C62.8875 82.5516 62.9276 82.6141 62.9563 82.6927L62.9719 82.7375L63.0464 82.4917C63.0552 82.463 63.0645 82.4443 63.0708 82.4349C63.0776 82.4245 63.0917 82.4188 63.1177 82.4167L63.4969 82.3745C63.5161 82.3745 63.5292 82.3776 63.5317 82.3854C63.5344 82.3927 63.5344 82.4063 63.5307 82.4266C63.5213 82.4552 63.5136 82.4766 63.5084 82.4943C63.5047 82.5099 63.4979 82.5344 63.4891 82.5646L63.1636 83.7375C63.0917 83.9943 63.0317 84.2146 62.9839 84.4C62.9016 84.7354 62.8615 84.9266 62.8615 84.9745C62.8615 85.0052 62.8693 85.0276 62.8875 85.0417C62.9016 85.0552 62.9224 85.0625 62.9473 85.0625C62.9656 85.0625 62.9875 85.0568 63.0125 85.0433C63.0369 85.0302 63.0656 85.011 63.1011 84.9834L63.1593 84.9386C63.1776 84.923 63.1984 84.9063 63.2219 84.8849C63.2453 84.8646 63.2713 84.8386 63.3052 84.8084L63.5203 84.5995L63.5969 84.6672C63.3625 84.9578 63.1765 85.1547 63.0344 85.2584C62.8927 85.3625 62.7573 85.4146 62.6297 85.4146C62.5448 85.4146 62.4823 85.3854 62.438 85.3302C62.3927 85.2719 62.3703 85.2016 62.3703 85.1162C62.3703 85.0375 62.3849 84.9256 62.4145 84.7776C62.4448 84.6313 62.4735 84.5078 62.5021 84.4073C62.4631 84.4735 62.3953 84.5683 62.3027 84.6943C62.2104 84.8198 62.0969 84.9412 61.9604 85.0594C61.8016 85.2011 61.6489 85.3021 61.5021 85.3599C61.3885 85.4 61.2781 85.4203 61.174 85.4203C60.9969 85.4203 60.8364 85.3469 60.6932 85.2016C60.5489 85.0568 60.476 84.8495 60.476 84.5834C60.476 84.1235 60.6844 83.6448 61.0995 83.1459C61.5281 82.6276 61.9719 82.3693 62.4328 82.3693C62.6063 82.3693 62.7427 82.4136 62.8364 82.5021" fill="#231F20"/>
<path d="M64.5047 84.9292C64.5672 85.0287 64.6713 85.0787 64.8183 85.0787C65.1323 85.0787 65.4328 84.8266 65.7245 84.324C66.0021 83.8521 66.1401 83.4047 66.1401 82.9823C66.1401 82.849 66.1193 82.7386 66.0751 82.6516C66.0307 82.563 65.9407 82.5203 65.8068 82.5203C65.4708 82.5203 65.1464 82.7896 64.8328 83.3276C64.5527 83.8084 64.4136 84.2266 64.4136 84.5802C64.4136 84.7136 64.4432 84.8302 64.5047 84.9292V84.9292ZM66.1427 82.4927C66.1844 82.5401 66.2183 82.6203 66.2427 82.737L66.6245 81.4011C66.636 81.3636 66.6427 81.3308 66.6464 81.3006C66.6489 81.2709 66.6505 81.2448 66.6505 81.224C66.6505 81.1386 66.6349 81.0854 66.6036 81.0625C66.5724 81.0412 66.5255 81.0302 66.4667 81.0302C66.4292 81.0302 66.3937 81.0313 66.3625 81.0328C66.3312 81.0344 66.2885 81.0391 66.2349 81.0438V80.9354C66.4839 80.9021 66.8276 80.8443 67.2688 80.7625L67.2973 80.7964L67.2896 80.8308L66.6437 83.1828L66.2027 84.7443C66.1932 84.7802 66.1869 84.8115 66.1817 84.8422C66.1751 84.8724 66.1724 84.8995 66.1724 84.9245C66.1724 84.9834 66.1869 85.0224 66.2167 85.0417C66.2469 85.0594 66.2729 85.0667 66.2948 85.0667C66.3599 85.0667 66.45 85.0115 66.5672 84.8985C66.6375 84.8308 66.7312 84.7235 66.8511 84.5802L66.9251 84.6521L66.8807 84.7214C66.7989 84.8407 66.6948 84.9636 66.5656 85.0886C66.3407 85.3084 66.1375 85.4203 65.9579 85.4203C65.8979 85.4203 65.8459 85.4068 65.7964 85.3802C65.7063 85.3287 65.6609 85.2344 65.6609 85.0995C65.6609 85.0542 65.6672 84.9818 65.6803 84.8813C65.6948 84.7818 65.714 84.6719 65.7417 84.5506C65.5751 84.8032 65.3927 85.011 65.1932 85.1719C64.9943 85.3334 64.7765 85.4146 64.5421 85.4146C64.3521 85.4146 64.1855 85.3469 64.0421 85.211C63.9005 85.075 63.8287 84.8677 63.8287 84.5854C63.8287 84.1104 64.0489 83.6203 64.4901 83.1193C64.9292 82.6183 65.3563 82.3693 65.7729 82.3693C65.9473 82.3693 66.0697 82.4094 66.1427 82.4927" fill="#231F20"/>
<path d="M70.6973 83.5011C70.9588 83.2683 71.0891 83.037 71.0891 82.8084C71.0891 82.725 71.0697 82.6589 71.0307 82.6104C70.9917 82.5604 70.9328 82.5365 70.8563 82.5365C70.7156 82.5365 70.576 82.5974 70.4407 82.7188C70.3041 82.8391 70.1817 82.9761 70.0724 83.1287C69.9579 83.3084 69.8651 83.4797 69.7973 83.6433C69.7609 83.7313 69.7219 83.8302 69.6792 83.9412C70.0959 83.8813 70.4344 83.7328 70.6973 83.5011V83.5011ZM69.636 83.0599C70.0672 82.6068 70.5151 82.3797 70.976 82.3797C71.1464 82.3797 71.2807 82.4188 71.3823 82.4974C71.4823 82.575 71.5333 82.6927 71.5333 82.8474C71.5333 83.162 71.3495 83.4308 70.9823 83.6547C70.6125 83.8787 70.2287 84.0157 69.8197 84.0662L69.6333 84.088C69.6047 84.1782 69.5855 84.25 69.5751 84.3042C69.5645 84.3573 69.5579 84.425 69.5579 84.5058C69.5579 84.6985 69.6203 84.8485 69.7469 84.9558C69.8719 85.063 70.0203 85.1162 70.1921 85.1162C70.3563 85.1162 70.5265 85.0615 70.7115 84.9516C70.8145 84.888 70.9667 84.7735 71.1661 84.6078L71.2505 84.6844C71.1531 84.8084 71.0136 84.937 70.8287 85.0667C70.5047 85.3032 70.1776 85.4203 69.8511 85.4203C69.6193 85.4203 69.4172 85.337 69.2417 85.173C69.0672 85.0089 68.9787 84.7756 68.9787 84.4693C68.9787 83.9849 69.1973 83.5151 69.636 83.0599" fill="#231F20"/>
<path d="M71.6385 84.9438C71.6921 84.9073 71.7453 84.8891 71.8016 84.8891C71.826 84.8891 71.8521 84.8927 71.8781 84.9011C71.9057 84.9094 71.9328 84.9214 71.964 84.9386L72.0803 85.0006C72.0932 85.0089 72.1099 85.0157 72.1229 85.0183C72.1385 85.0214 72.1531 85.0224 72.1713 85.0224C72.226 85.0224 72.2677 85.0089 72.2973 84.9823C72.326 84.9552 72.4016 84.8589 72.5255 84.6969C72.6063 84.5886 72.7896 84.3266 73.0776 83.912C73.0776 83.8964 73.0516 83.7787 73.0005 83.5594C72.9511 83.3396 72.9041 83.1537 72.8625 83.0006C72.8197 82.8448 72.7833 82.7427 72.7505 82.6933C72.7183 82.6443 72.6568 82.6193 72.5672 82.6193C72.536 82.6193 72.476 82.6313 72.386 82.6532C72.3287 82.6651 72.2677 82.6808 72.2011 82.698L72.1713 82.5907L72.5369 82.4662C72.6307 82.4334 72.7183 82.4063 72.7989 82.3875C72.8781 82.3677 72.9459 82.3578 73.0031 82.3578C73.0959 82.3578 73.1645 82.3854 73.2104 82.4407C73.2807 82.5276 73.3391 82.7026 73.3885 82.9615L73.4563 83.338C73.6541 83.0365 73.8079 82.824 73.9172 82.7006C74.0161 82.5886 74.1088 82.5063 74.1959 82.4506C74.2844 82.3959 74.3677 82.3693 74.4459 82.3693C74.5203 82.3693 74.5812 82.3797 74.6271 82.4021C74.7104 82.4407 74.7521 82.5151 74.7521 82.6256C74.7521 82.698 74.7312 82.7563 74.688 82.798C74.6479 82.8407 74.5943 82.8604 74.5281 82.8604C74.5047 82.8604 74.4812 82.8578 74.4604 82.8526C74.438 82.8469 74.4145 82.8391 74.3901 82.8282L74.3041 82.7917C74.2807 82.7808 74.2573 82.7714 74.2349 82.7641C74.214 82.7563 74.1973 82.7526 74.1855 82.7526C74.0864 82.7526 73.9511 82.8797 73.7755 83.1354C73.5995 83.3901 73.5125 83.5375 73.5125 83.5782C73.5125 83.6099 73.5333 83.7167 73.5735 83.8969C73.6151 84.0776 73.6584 84.2688 73.7079 84.4693C73.7505 84.6594 73.7869 84.7912 73.8183 84.8641C73.8703 84.9818 73.9265 85.0401 73.9917 85.0401C74.05 85.0401 74.1099 85.0078 74.1724 84.9422C74.2339 84.8756 74.326 84.7573 74.4484 84.5854L74.5412 84.6407C74.4459 84.8104 74.3495 84.9568 74.2479 85.0787C74.0568 85.3052 73.8755 85.4203 73.7011 85.4203C73.5917 85.4203 73.5047 85.3672 73.4421 85.2625C73.4057 85.2006 73.3677 85.0995 73.3328 84.961L73.1297 84.1516L72.4563 85.0328C72.3251 85.1854 72.2245 85.2886 72.1516 85.3407C72.0812 85.3933 71.9943 85.4203 71.8901 85.4203C71.7479 85.4203 71.6541 85.3766 71.6021 85.2891C71.5751 85.2427 71.5604 85.188 71.5604 85.1256C71.5604 85.0396 71.5855 84.9797 71.6385 84.9438" fill="#231F20"/>
<path d="M74.9849 85.073C74.9875 85.049 74.9917 85.0266 74.9979 85.0021L75.6349 82.7089H75.136C75.136 82.65 75.1412 82.6136 75.1489 82.5974C75.1593 82.5813 75.1803 82.5667 75.2156 82.5516C75.4396 82.4563 75.6125 82.3651 75.7349 82.2771C75.8588 82.1891 76.0255 82.0209 76.2375 81.7683L76.2896 81.7058C76.2964 81.6974 76.3052 81.6901 76.3145 81.6844C76.3235 81.6792 76.3355 81.6766 76.3459 81.6766C76.3677 81.6808 76.3823 81.6849 76.3901 81.6901C76.3979 81.7052 76.4016 81.7188 76.4031 81.7302C76.4041 81.7422 76.4031 81.7552 76.4005 81.7677L76.2052 82.4818H76.7469L76.7088 82.7089H76.1401L75.5281 84.9167C75.5161 84.9563 75.5203 84.9933 75.5369 85.0302C75.5552 85.0662 75.5855 85.0839 75.6255 85.0839C75.6828 85.0839 75.7636 85.0276 75.8651 84.9136C75.9251 84.8516 76.0255 84.7302 76.1661 84.548L76.2505 84.5974L76.2052 84.6662C76.0161 84.948 75.8521 85.1438 75.7079 85.2552C75.5645 85.3646 75.4292 85.4203 75.3 85.4203C75.1896 85.4203 75.1073 85.3907 75.0568 85.3313C75.0084 85.2719 74.9823 85.2063 74.9823 85.1328C74.9823 85.1151 74.9839 85.0943 74.9849 85.073" fill="#231F20"/>
<path d="M78.2932 82.3766C78.3011 82.388 78.3047 82.4031 78.3047 82.4172C78.3011 82.4407 78.2984 82.4584 78.2959 82.4688L77.9609 83.7448L78.0339 83.5959C78.1901 83.2865 78.3751 83.0058 78.5849 82.7505C78.7959 82.4959 78.9948 82.3693 79.1849 82.3693C79.2864 82.3693 79.3661 82.4031 79.4208 82.4698C79.4765 82.5386 79.5052 82.6157 79.5052 82.7037C79.5052 82.8021 79.4765 82.8839 79.4235 82.9479C79.3688 83.013 79.2917 83.0448 79.1943 83.0448C79.1276 83.0448 79.0755 83.0318 79.0417 83.0052C79.0068 82.9776 78.9807 82.9479 78.9609 82.912L78.9219 82.8391C78.914 82.8261 78.9027 82.8157 78.8921 82.8084C78.8803 82.7995 78.8645 82.7964 78.8464 82.7964C78.762 82.7964 78.638 82.9162 78.4765 83.1537C78.3151 83.3927 78.1708 83.65 78.0432 83.9292C77.9661 84.0974 77.8817 84.3209 77.7855 84.599C77.7265 84.774 77.6484 85.0219 77.5495 85.3433H77.0443L77.5937 83.3589C77.6251 83.2459 77.65 83.1459 77.6683 83.0558C77.6864 82.9683 77.6953 82.8959 77.6953 82.8391C77.6953 82.774 77.6797 82.7245 77.6473 82.6891C77.6145 82.6552 77.5573 82.6386 77.4765 82.6386C77.4505 82.6386 77.4183 82.6407 77.3792 82.6443C77.3401 82.649 77.2917 82.6542 77.2369 82.661V82.5521L77.3697 82.5271C77.5407 82.4922 77.7265 82.4552 77.9312 82.4167C78.1344 82.3771 78.2396 82.3578 78.2516 82.3578C78.2708 82.3578 78.2855 82.3636 78.2932 82.3766" fill="#231F20"/>
<path d="M81.5683 82.6271C81.4943 82.5521 81.4068 82.5141 81.3027 82.5141C80.9432 82.5141 80.6073 82.7886 80.2989 83.3365C80.0281 83.8183 79.8912 84.2328 79.8912 84.5813C79.8912 84.7573 79.9303 84.8839 80.0047 84.9636C80.0812 85.0448 80.174 85.0839 80.2844 85.0839C80.614 85.0839 80.9317 84.8183 81.2375 84.286C81.5292 83.8016 81.6765 83.3646 81.6765 82.975C81.6765 82.8162 81.6401 82.7011 81.5683 82.6271V82.6271ZM81.674 82.5021C81.7245 82.5516 81.7651 82.6141 81.7921 82.6927L81.8104 82.7375L81.8833 82.4917C81.8937 82.463 81.9005 82.4443 81.9068 82.4349C81.9136 82.4245 81.9303 82.4188 81.9552 82.4167L82.3339 82.3745C82.3547 82.3745 82.3651 82.3776 82.3693 82.3854C82.3719 82.3927 82.3719 82.4063 82.3677 82.4266C82.3588 82.4552 82.3521 82.4766 82.3469 82.4943C82.3407 82.5099 82.3355 82.5344 82.3251 82.5646L82.0005 83.7375C81.9303 83.9943 81.8693 84.2146 81.8197 84.4C81.7391 84.7354 81.6984 84.9266 81.6984 84.9745C81.6984 85.0052 81.7063 85.0276 81.7235 85.0417C81.7391 85.0552 81.7599 85.0625 81.7844 85.0625C81.8041 85.0625 81.8251 85.0568 81.8495 85.0433C81.8729 85.0302 81.9031 85.011 81.938 84.9834L81.9969 84.9386C82.0151 84.923 82.0344 84.9063 82.0593 84.8849C82.0812 84.8646 82.1099 84.8386 82.1412 84.8084L82.3563 84.5995L82.4344 84.6672C82.2011 84.9578 82.0125 85.1547 81.8719 85.2584C81.7297 85.3625 81.5959 85.4146 81.4667 85.4146C81.3833 85.4146 81.3183 85.3854 81.274 85.3302C81.2312 85.2719 81.2079 85.2016 81.2079 85.1162C81.2079 85.0375 81.2219 84.9256 81.2505 84.7776C81.2807 84.6313 81.3104 84.5078 81.338 84.4073C81.2989 84.4735 81.2339 84.5683 81.1412 84.6943C81.0489 84.8198 80.9328 84.9412 80.7973 85.0594C80.6385 85.2011 80.4849 85.3021 80.3391 85.3599C80.226 85.4 80.1167 85.4203 80.0109 85.4203C79.8328 85.4203 79.674 85.3469 79.5292 85.2016C79.386 85.0568 79.3131 84.8495 79.3131 84.5834C79.3131 84.1235 79.5213 83.6448 79.9369 83.1459C80.3651 82.6276 80.8104 82.3693 81.2703 82.3693C81.4448 82.3693 81.5787 82.4136 81.674 82.5021" fill="#231F20"/>
<path d="M83.4459 85.0943C83.536 85.2141 83.6688 85.2735 83.8443 85.2735C84.2011 85.2735 84.5161 85.0037 84.7921 84.4641C85.0265 84.0021 85.1437 83.5766 85.1437 83.188C85.1437 83.0235 85.1229 82.8907 85.0839 82.7901C85.0084 82.5995 84.8677 82.5037 84.6645 82.5037C84.3303 82.5037 84.0161 82.7552 83.7219 83.2573C83.4484 83.725 83.3093 84.188 83.3093 84.6417C83.3093 84.8235 83.3547 84.9745 83.4459 85.0943V85.0943ZM85.4797 82.6625C85.6307 82.8589 85.7063 83.0907 85.7063 83.3568C85.7063 83.8209 85.5021 84.2771 85.0932 84.7235C84.6713 85.1875 84.2219 85.4203 83.7427 85.4203C83.4421 85.4203 83.2 85.3318 83.0188 85.1568C82.838 84.9818 82.7469 84.7354 82.7469 84.4172C82.7469 83.938 82.9511 83.4797 83.3573 83.0417C83.7729 82.5933 84.2193 82.3693 84.7027 82.3693C85.0708 82.3693 85.3287 82.4667 85.4797 82.6625" fill="#231F20"/>
<path d="M87.3432 82.3766C87.3511 82.388 87.3547 82.4031 87.3547 82.4172C87.3521 82.4407 87.3495 82.4584 87.3469 82.4688L87.0125 83.7448L87.0839 83.5959C87.2401 83.2865 87.4251 83.0058 87.636 82.7505C87.8459 82.4959 88.0448 82.3693 88.2349 82.3693C88.338 82.3693 88.4161 82.4031 88.4719 82.4698C88.5281 82.5386 88.5552 82.6157 88.5552 82.7037C88.5552 82.8021 88.5281 82.8839 88.4735 82.9479C88.4172 83.013 88.3417 83.0448 88.2443 83.0448C88.1776 83.0448 88.1271 83.0318 88.0932 83.0052C88.0579 82.9776 88.0317 82.9479 88.0109 82.912L87.9735 82.8391C87.964 82.8261 87.9536 82.8157 87.9421 82.8084C87.9292 82.7995 87.9161 82.7964 87.8979 82.7964C87.8104 82.7964 87.688 82.9162 87.5265 83.1537C87.3651 83.3927 87.2208 83.65 87.0932 83.9292C87.0161 84.0974 86.9317 84.3209 86.8364 84.599C86.7765 84.774 86.6973 85.0219 86.5995 85.3433H86.0943L86.6453 83.3589C86.6765 83.2459 86.7 83.1459 86.7183 83.0558C86.7375 82.9683 86.7469 82.8959 86.7469 82.8391C86.7469 82.774 86.7312 82.7245 86.6973 82.6891C86.6645 82.6552 86.6073 82.6386 86.5265 82.6386C86.5005 82.6386 86.4683 82.6407 86.4292 82.6443C86.3885 82.649 86.3432 82.6542 86.2885 82.661V82.5521L86.4197 82.5271C86.5907 82.4922 86.7781 82.4552 86.9812 82.4167C87.1855 82.3771 87.2912 82.3578 87.3016 82.3578C87.3224 82.3578 87.3364 82.3636 87.3432 82.3766" fill="#231F20"/>
<path d="M89.0683 84.9292C89.1297 85.0287 89.2339 85.0787 89.3807 85.0787C89.6959 85.0787 89.9979 84.8266 90.2869 84.324C90.5631 83.8521 90.7036 83.4047 90.7036 82.9823C90.7036 82.849 90.6817 82.7386 90.6375 82.6516C90.5917 82.563 90.5031 82.5203 90.3693 82.5203C90.0344 82.5203 89.7104 82.7896 89.3964 83.3276C89.1151 83.8084 88.976 84.2266 88.976 84.5802C88.976 84.7136 89.0073 84.8302 89.0683 84.9292V84.9292ZM90.7063 82.4927C90.7479 82.5401 90.7817 82.6203 90.8052 82.737L91.188 81.4011C91.1984 81.3636 91.2063 81.3308 91.2104 81.3006C91.2131 81.2709 91.214 81.2448 91.214 81.224C91.214 81.1386 91.1973 81.0854 91.1645 81.0625C91.1333 81.0412 91.0891 81.0302 91.0292 81.0302C90.9927 81.0302 90.9563 81.0313 90.9251 81.0328C90.8937 81.0344 90.8511 81.0391 90.7973 81.0438V80.9354C91.0464 80.9021 91.3912 80.8443 91.8312 80.7625L91.8615 80.7964L91.8547 80.8308L91.2079 83.1828L90.7651 84.7443C90.7573 84.7802 90.7505 84.8115 90.7443 84.8422C90.7375 84.8724 90.7364 84.8995 90.7364 84.9245C90.7364 84.9834 90.7505 85.0224 90.7807 85.0417C90.8104 85.0594 90.8355 85.0667 90.8573 85.0667C90.9213 85.0667 91.0136 85.0115 91.1307 84.8985C91.1984 84.8308 91.2921 84.7235 91.4145 84.5802L91.4891 84.6521L91.4421 84.7214C91.3625 84.8407 91.2557 84.9636 91.1297 85.0886C90.9041 85.3084 90.7011 85.4203 90.5203 85.4203C90.4615 85.4203 90.4068 85.4068 90.3599 85.3802C90.2703 85.3287 90.2245 85.2344 90.2245 85.0995C90.2245 85.0542 90.2297 84.9818 90.2443 84.8813C90.2573 84.7818 90.2765 84.6719 90.3041 84.5506C90.1375 84.8032 89.9536 85.011 89.7573 85.1719C89.5568 85.3334 89.3417 85.4146 89.1063 85.4146C88.9161 85.4146 88.7479 85.3469 88.6063 85.211C88.464 85.075 88.3927 84.8677 88.3927 84.5854C88.3927 84.1104 88.6125 83.6203 89.0527 83.1193C89.4917 82.6183 89.9197 82.3693 90.3364 82.3693C90.5099 82.3693 90.6333 82.4094 90.7063 82.4927" fill="#231F20"/>
<path d="M92.8677 81.5495C92.8027 81.4797 92.7713 81.3948 92.7713 81.2969C92.7713 81.1959 92.8027 81.1104 92.8677 81.0412C92.9317 80.9709 93.0073 80.9354 93.0984 80.9354C93.188 80.9354 93.2661 80.9709 93.3303 81.0412C93.3953 81.1104 93.4265 81.1959 93.4265 81.2969C93.4265 81.3969 93.3953 81.4823 93.3303 81.5506C93.2661 81.6198 93.188 81.6547 93.0984 81.6547C93.0073 81.6547 92.9317 81.6198 92.8677 81.5495ZM93.1776 82.3698C93.1896 82.3771 93.1932 82.386 93.1921 82.398L92.5307 84.7417C92.4995 84.8657 92.4849 84.9407 92.4849 84.9641C92.4849 84.998 92.4917 85.0266 92.5047 85.05C92.5151 85.0766 92.5421 85.0896 92.5864 85.0896C92.6609 85.0896 92.7584 85.0245 92.8807 84.8959C92.9527 84.8198 93.0396 84.7089 93.1453 84.5662L93.2323 84.6386L93.2 84.6849C93.0344 84.9151 92.9005 85.0813 92.7921 85.1823C92.6255 85.3407 92.4604 85.4203 92.3016 85.4203C92.2079 85.4203 92.1281 85.3797 92.0656 85.3016C92.0047 85.2235 91.9735 85.1282 91.9735 85.0209C91.9735 84.9578 91.9771 84.9021 91.9864 84.8547C91.9953 84.8073 92.0109 84.7375 92.0344 84.6459L92.5047 82.9563C92.5109 82.9302 92.5161 82.9063 92.5203 82.8849C92.5255 82.8625 92.5265 82.8412 92.5265 82.8183C92.5265 82.7401 92.4979 82.6912 92.4396 82.6724C92.3833 82.6542 92.2688 82.6443 92.0984 82.6443V82.5365C92.2781 82.5141 92.4068 82.4985 92.4864 82.4865C92.5656 82.4745 92.6453 82.4615 92.7245 82.449C92.8287 82.4318 92.9276 82.412 93.0203 82.3907C93.114 82.3693 93.1645 82.362 93.1776 82.3698" fill="#231F20"/>
<path d="M93.6375 85.3433L94.1984 83.3203C94.2469 83.1495 94.274 83.0453 94.2817 83.0089C94.2896 82.974 94.2948 82.9344 94.2948 82.8917C94.2948 82.8282 94.2755 82.7776 94.2401 82.7422C94.2036 82.7058 94.1333 82.6875 94.0281 82.6875C94.0031 82.6875 93.976 82.6891 93.9511 82.6927C93.9276 82.6959 93.8989 82.6995 93.8693 82.7037V82.5964C94.0099 82.574 94.1115 82.5573 94.1713 82.5469C94.2297 82.536 94.2948 82.5219 94.364 82.5078L94.9473 82.3797C94.9604 82.388 94.9683 82.3985 94.9735 82.4094L94.5437 83.8188C94.812 83.4099 95.036 83.1052 95.2156 82.9068C95.5333 82.5552 95.8145 82.3797 96.0656 82.3797C96.1636 82.3797 96.2469 82.3985 96.3172 82.4354C96.4511 82.5078 96.5177 82.6365 96.5177 82.8256C96.5177 82.8782 96.5125 82.9328 96.5021 82.9896C96.4901 83.0469 96.476 83.1078 96.4579 83.173L96.0265 84.7422C96.0188 84.7756 96.0099 84.8151 95.9969 84.8625C95.9864 84.9094 95.9812 84.9422 95.9812 84.961C95.9812 84.9943 95.9891 85.024 96.0031 85.05C96.0188 85.0766 96.0437 85.0896 96.0787 85.0896C96.1323 85.0896 96.1959 85.0568 96.2661 84.9901C96.338 84.924 96.4527 84.7823 96.6151 84.5651L96.7104 84.6521C96.5344 84.8927 96.3937 85.0636 96.2921 85.162C96.1167 85.3334 95.9484 85.4203 95.7869 85.4203C95.7156 85.4203 95.6427 85.3948 95.576 85.3464C95.5084 85.2964 95.476 85.2063 95.476 85.0782C95.476 85.0396 95.4771 85.0006 95.4823 84.9589C95.4875 84.9167 95.4953 84.8813 95.5047 84.85L95.9265 83.2584C95.9484 83.1714 95.9631 83.0995 95.9708 83.0438C95.9797 82.988 95.9823 82.9485 95.9823 82.9245C95.9823 82.8719 95.9693 82.8266 95.9432 82.7886C95.9197 82.7506 95.8745 82.7318 95.8104 82.7318C95.6427 82.7318 95.4355 82.8782 95.1828 83.1756C95.0333 83.3521 94.8833 83.5615 94.7297 83.8058C94.614 83.9953 94.5229 84.1808 94.4563 84.3599C94.3901 84.5401 94.2844 84.8677 94.1427 85.3433H93.6375" fill="#231F20"/>
<path d="M99.2349 82.6271C99.162 82.5521 99.0735 82.5141 98.9683 82.5141C98.6099 82.5141 98.274 82.7886 97.9656 83.3365C97.6932 83.8183 97.5579 84.2328 97.5579 84.5813C97.5579 84.7573 97.5959 84.8839 97.6713 84.9636C97.7469 85.0448 97.8407 85.0839 97.9511 85.0839C98.2817 85.0839 98.5969 84.8183 98.9031 84.286C99.1959 83.8016 99.3443 83.3646 99.3443 82.975C99.3443 82.8162 99.3079 82.7011 99.2349 82.6271V82.6271ZM99.3407 82.5021C99.3901 82.5516 99.4317 82.6141 99.4604 82.6927L99.476 82.7375L99.5516 82.4917C99.5593 82.463 99.5672 82.4443 99.5735 82.4349C99.5803 82.4245 99.5959 82.4188 99.6203 82.4167L100.002 82.3745C100.02 82.3745 100.033 82.3776 100.036 82.3854C100.039 82.3927 100.039 82.4063 100.034 82.4266C100.024 82.4552 100.018 82.4766 100.013 82.4943C100.008 82.5099 100.002 82.5344 99.9917 82.5646L99.6672 83.7375C99.5959 83.9943 99.536 84.2146 99.4864 84.4C99.4068 84.7354 99.3651 84.9266 99.3651 84.9745C99.3651 85.0052 99.3729 85.0276 99.3885 85.0417C99.4068 85.0552 99.4265 85.0625 99.45 85.0625C99.4693 85.0625 99.4917 85.0568 99.5161 85.0433C99.5396 85.0302 99.5683 85.011 99.6047 84.9834L99.662 84.9386C99.6817 84.923 99.7027 84.9063 99.7235 84.8849C99.7479 84.8646 99.7755 84.8386 99.8068 84.8084L100.021 84.5995L100.101 84.6672C99.8667 84.9578 99.6792 85.1547 99.5369 85.2584C99.3964 85.3625 99.2609 85.4146 99.1333 85.4146C99.05 85.4146 98.9849 85.3854 98.9421 85.3302C98.8964 85.2719 98.8729 85.2016 98.8729 85.1162C98.8729 85.0375 98.8885 84.9256 98.9188 84.7776C98.9473 84.6313 98.9771 84.5078 99.0047 84.4073C98.9656 84.4735 98.8989 84.5683 98.8068 84.6943C98.714 84.8198 98.5995 84.9412 98.4656 85.0594C98.3052 85.2011 98.1505 85.3021 98.0057 85.3599C97.8927 85.4 97.7817 85.4203 97.6776 85.4203C97.5005 85.4203 97.3407 85.3469 97.1959 85.2016C97.0516 85.0568 96.9797 84.8495 96.9797 84.5834C96.9797 84.1235 97.188 83.6448 97.6021 83.1459C98.0307 82.6276 98.476 82.3693 98.9355 82.3693C99.1099 82.3693 99.2453 82.4136 99.3407 82.5021" fill="#231F20"/>
<path d="M101.652 82.3766C101.658 82.388 101.664 82.4031 101.664 82.4172C101.662 82.4407 101.657 82.4584 101.654 82.4688L101.32 83.7448L101.394 83.5959C101.549 83.2865 101.734 83.0058 101.945 82.7505C102.154 82.4959 102.352 82.3693 102.544 82.3693C102.645 82.3693 102.725 82.4031 102.781 82.4698C102.835 82.5386 102.864 82.6157 102.864 82.7037C102.864 82.8021 102.836 82.8839 102.782 82.9479C102.727 83.013 102.649 83.0448 102.553 83.0448C102.486 83.0448 102.435 83.0318 102.401 83.0052C102.365 82.9776 102.339 82.9479 102.32 82.912L102.281 82.8391C102.273 82.8261 102.261 82.8157 102.249 82.8084C102.239 82.7995 102.223 82.7964 102.206 82.7964C102.12 82.7964 101.998 82.9162 101.834 83.1537C101.674 83.3927 101.529 83.65 101.402 83.9292C101.323 84.0974 101.24 84.3209 101.144 84.599C101.086 84.774 101.006 85.0219 100.908 85.3433H100.403L100.954 83.3589C100.984 83.2459 101.008 83.1459 101.027 83.0558C101.045 82.9683 101.054 82.8959 101.054 82.8391C101.054 82.774 101.039 82.7245 101.006 82.6891C100.973 82.6552 100.916 82.6386 100.835 82.6386C100.809 82.6386 100.775 82.6407 100.736 82.6443C100.698 82.649 100.651 82.6542 100.596 82.661V82.5521L100.729 82.5271C100.899 82.4922 101.086 82.4552 101.289 82.4167C101.493 82.3771 101.599 82.3578 101.61 82.3578C101.631 82.3578 101.644 82.3636 101.652 82.3766" fill="#231F20"/>
<path d="M102.74 86.2474C102.784 86.1974 102.848 86.1714 102.932 86.1714C102.985 86.1714 103.034 86.1823 103.075 86.2026C103.117 86.224 103.161 86.2547 103.208 86.2938L103.252 86.3281C103.266 86.3386 103.279 86.3464 103.297 86.3521C103.313 86.3589 103.331 86.3604 103.349 86.3604C103.458 86.3604 103.631 86.2188 103.868 85.936C104.104 85.6531 104.222 85.4474 104.222 85.3183C104.222 85.1959 104.182 84.9558 104.099 84.5974C104.019 84.238 103.938 83.9193 103.861 83.6407C103.755 83.2485 103.657 82.9813 103.568 82.8417C103.48 82.7026 103.348 82.6328 103.177 82.6328C103.162 82.6328 103.141 82.6339 103.107 82.6365C103.076 82.6407 103.023 82.6464 102.946 82.6552V82.5469L103.842 82.375L103.911 82.3693C103.966 82.362 104.07 82.6089 104.226 83.1073C104.365 83.5552 104.454 83.8813 104.487 84.0828L104.62 84.8651C104.851 84.4802 105.019 84.1854 105.125 83.9813C105.336 83.5781 105.443 83.2943 105.443 83.1313C105.443 83.0948 105.435 83.0584 105.422 83.0219C105.409 82.987 105.378 82.9552 105.331 82.9297L105.275 82.8995C105.24 82.8834 105.2 82.849 105.153 82.8005C105.105 82.7526 105.083 82.6886 105.083 82.6089C105.083 82.5401 105.104 82.4823 105.149 82.437C105.192 82.3912 105.258 82.3693 105.344 82.3693C105.453 82.3693 105.541 82.4 105.609 82.4657C105.675 82.5287 105.709 82.6391 105.709 82.7948C105.709 83.0271 105.581 83.4021 105.326 83.9193C105.128 84.3136 104.909 84.6974 104.666 85.0667C104.363 85.5313 104.101 85.8891 103.882 86.1401C103.534 86.536 103.247 86.7344 103.016 86.7344C102.927 86.7344 102.848 86.7063 102.779 86.6526C102.709 86.5969 102.675 86.5224 102.675 86.4276C102.675 86.3573 102.697 86.2974 102.74 86.2474Z" fill="#231F20"/>
<path d="M108.784 81.362C108.792 81.3334 108.799 81.3052 108.8 81.2766C108.804 81.2485 108.804 81.225 108.804 81.2078C108.804 81.1328 108.774 81.087 108.714 81.0703C108.654 81.0542 108.536 81.0464 108.357 81.049V80.9412C108.455 80.9271 108.568 80.912 108.697 80.8959C108.826 80.8782 108.908 80.8657 108.948 80.8594C109.072 80.837 109.221 80.8052 109.395 80.7625C109.411 80.7625 109.425 80.7735 109.442 80.7964L108.347 84.7417C108.323 84.836 108.308 84.8927 108.304 84.912C108.299 84.9318 108.297 84.9516 108.297 84.9709C108.297 85.0125 108.305 85.0474 108.321 85.0787C108.335 85.1073 108.364 85.1219 108.406 85.1219C108.484 85.1219 108.588 85.0521 108.714 84.912C108.842 84.7714 108.95 84.6375 109.037 84.5037L109.127 84.5662C108.937 84.8459 108.791 85.0391 108.687 85.1459C108.506 85.3287 108.323 85.4203 108.14 85.4203C108.06 85.4203 107.992 85.4 107.93 85.3599C107.836 85.3016 107.789 85.2006 107.789 85.0578C107.789 85.0021 107.799 84.9282 107.815 84.8365C107.828 84.7818 107.843 84.7188 107.863 84.6464L108.784 81.362" fill="#231F20"/>
<path d="M110.589 81.5495C110.527 81.4797 110.494 81.3948 110.494 81.2969C110.494 81.1959 110.527 81.1104 110.589 81.0412C110.653 80.9709 110.731 80.9354 110.82 80.9354C110.911 80.9354 110.986 80.9709 111.052 81.0412C111.115 81.1104 111.148 81.1959 111.148 81.2969C111.148 81.3969 111.115 81.4823 111.052 81.5506C110.986 81.6198 110.911 81.6547 110.82 81.6547C110.731 81.6547 110.653 81.6198 110.589 81.5495ZM110.899 82.3698C110.911 82.3771 110.916 82.386 110.915 82.398L110.253 84.7417C110.222 84.8657 110.206 84.9407 110.206 84.9641C110.206 84.998 110.214 85.0266 110.226 85.05C110.236 85.0766 110.264 85.0896 110.309 85.0896C110.382 85.0896 110.48 85.0245 110.601 84.8959C110.674 84.8198 110.764 84.7089 110.867 84.5662L110.954 84.6386L110.921 84.6849C110.758 84.9151 110.622 85.0813 110.516 85.1823C110.346 85.3407 110.182 85.4203 110.023 85.4203C109.929 85.4203 109.852 85.3797 109.789 85.3016C109.726 85.2235 109.695 85.1282 109.695 85.0209C109.695 84.9578 109.698 84.9021 109.708 84.8547C109.717 84.8073 109.734 84.7375 109.757 84.6459L110.226 82.9563C110.232 82.9302 110.237 82.9063 110.242 82.8849C110.247 82.8625 110.249 82.8412 110.249 82.8183C110.249 82.7401 110.221 82.6912 110.162 82.6724C110.105 82.6542 109.99 82.6443 109.821 82.6443V82.5365C109.999 82.5141 110.13 82.4985 110.208 82.4865C110.287 82.4745 110.368 82.4615 110.446 82.449C110.552 82.4318 110.649 82.412 110.742 82.3907C110.834 82.3693 110.887 82.362 110.899 82.3698" fill="#231F20"/>
<path d="M114.003 82.5104C114.07 82.599 114.102 82.698 114.102 82.8099C114.102 83.1052 113.812 83.6235 113.229 84.3641C112.674 85.0667 112.341 85.4203 112.23 85.4203C112.197 85.4203 112.174 85.375 112.165 85.2844C112.158 85.2344 112.154 85.149 112.154 85.0276C112.154 84.8813 112.14 84.6323 112.111 84.2818C112.083 83.9318 112.055 83.6719 112.029 83.5037C111.975 83.1328 111.921 82.8938 111.869 82.787C111.817 82.6792 111.717 82.6266 111.57 82.6266C111.546 82.6266 111.518 82.6271 111.486 82.6297C111.455 82.6323 111.417 82.6339 111.375 82.6391V82.5521C111.442 82.5396 111.581 82.5099 111.792 82.4657C112.003 82.4198 112.114 82.3943 112.128 82.3907L112.236 82.3578C112.269 82.349 112.291 82.3651 112.31 82.4094C112.326 82.4511 112.349 82.5302 112.375 82.6464C112.459 83.0271 112.523 83.4032 112.565 83.7735C112.591 84.0032 112.617 84.3433 112.643 84.7948L112.751 84.6802C112.976 84.4412 113.198 84.1573 113.424 83.8292C113.646 83.5006 113.758 83.2683 113.758 83.1313C113.758 83.0636 113.709 82.9823 113.613 82.8875C113.514 82.7917 113.464 82.7052 113.464 82.6266C113.464 82.5532 113.489 82.4943 113.537 82.449C113.588 82.4032 113.648 82.3797 113.721 82.3797C113.844 82.3797 113.938 82.423 114.003 82.5104" fill="#231F20"/>
<path d="M116.151 83.5011C116.412 83.2683 116.542 83.037 116.542 82.8084C116.542 82.725 116.521 82.6589 116.484 82.6104C116.445 82.5604 116.387 82.5365 116.309 82.5365C116.169 82.5365 116.029 82.5974 115.893 82.7188C115.757 82.8391 115.633 82.9761 115.525 83.1287C115.408 83.3084 115.317 83.4797 115.251 83.6433C115.213 83.7313 115.175 83.8302 115.132 83.9412C115.549 83.8813 115.887 83.7328 116.151 83.5011V83.5011ZM115.088 83.0599C115.52 82.6068 115.968 82.3797 116.429 82.3797C116.599 82.3797 116.734 82.4188 116.835 82.4974C116.935 82.575 116.986 82.6927 116.986 82.8474C116.986 83.162 116.803 83.4308 116.434 83.6547C116.066 83.8787 115.679 84.0157 115.274 84.0662L115.088 84.088C115.059 84.1782 115.039 84.25 115.028 84.3042C115.016 84.3573 115.011 84.425 115.011 84.5058C115.011 84.6985 115.073 84.8485 115.198 84.9558C115.325 85.063 115.472 85.1162 115.645 85.1162C115.809 85.1162 115.981 85.0615 116.164 84.9516C116.269 84.888 116.42 84.7735 116.618 84.6078L116.704 84.6844C116.606 84.8084 116.464 84.937 116.282 85.0667C115.956 85.3032 115.631 85.4203 115.304 85.4203C115.071 85.4203 114.869 85.337 114.695 85.173C114.52 85.0089 114.433 84.7756 114.433 84.4693C114.433 83.9849 114.651 83.5151 115.088 83.0599" fill="#231F20"/>
<path d="M117.441 84.3594H117.549C117.597 84.625 117.654 84.8209 117.719 84.9438C117.839 85.1714 118.019 85.2844 118.257 85.2844C118.39 85.2844 118.502 85.237 118.593 85.1433C118.683 85.05 118.729 84.9255 118.729 84.7709C118.729 84.6745 118.717 84.5964 118.693 84.5344C118.671 84.4745 118.643 84.4177 118.607 84.3693L118.336 83.9662C118.172 83.7219 118.07 83.5578 118.028 83.475C117.966 83.3511 117.933 83.2261 117.933 83.1C117.933 82.911 118.001 82.7427 118.139 82.5974C118.274 82.4516 118.469 82.3797 118.722 82.3797C118.829 82.3797 118.951 82.4 119.088 82.4391C119.226 82.4802 119.32 82.5005 119.369 82.5005C119.425 82.5005 119.466 82.4901 119.49 82.4683C119.518 82.4459 119.541 82.4172 119.565 82.3797H119.658L119.524 83.3104H119.415C119.386 83.0995 119.344 82.9407 119.287 82.8334C119.183 82.6354 119.018 82.5365 118.79 82.5365C118.693 82.5365 118.607 82.5667 118.533 82.6266C118.456 82.686 118.42 82.7735 118.42 82.8901C118.42 82.9781 118.437 83.0584 118.471 83.1255C118.503 83.1927 118.58 83.3125 118.7 83.4854L118.933 83.8188C119.053 83.9907 119.139 84.1313 119.188 84.2407C119.237 84.35 119.264 84.4683 119.264 84.5938C119.264 84.8287 119.165 85.0276 118.963 85.188C118.761 85.3495 118.521 85.4297 118.244 85.4297C118.156 85.4297 118.028 85.4115 117.863 85.375C117.696 85.337 117.599 85.3188 117.573 85.3188C117.531 85.3188 117.498 85.3287 117.477 85.3469C117.455 85.3651 117.435 85.3933 117.42 85.4297H117.31L117.441 84.3594" fill="#231F20"/>
<path d="M35.7855 20.1093V21.5188L37.736 20.8265V20.8L35.7855 20.1093ZM39.2084 21.2969L37.5588 21.9089C36.4765 22.3079 35.3765 22.698 34.4896 23.0349C33.7005 23.3365 33.638 23.4604 33.586 23.9745H33.3375V21.6427H33.586L33.6213 21.8912C33.6745 22.2287 33.7631 22.2459 34.1005 22.1391C34.3645 22.0505 34.9156 21.838 35.3765 21.6516V20.0109C35.1093 19.8953 34.6145 19.7365 34.2421 19.6125C33.7708 19.4527 33.6552 19.5235 33.6109 19.9141L33.586 20.162H33.3375V18.1932H33.586C33.6552 18.7427 33.6917 18.8412 34.4896 19.1511L39.1005 20.9427L39.2084 21.2969" fill="#231F20"/>
<path d="M34.6849 26.0989C33.8688 26.0989 33.7005 26.188 33.7005 26.8708C33.7005 28.3423 34.7369 29.1052 36.2109 29.1052C38.1093 29.1052 38.7631 28.148 38.7631 26.7292C38.7631 26.436 38.7292 26.2057 38.6849 26.1532C38.6396 26.0989 38.4807 26.0989 38.2489 26.0989H34.6849ZM39.1005 27.0125C39.1005 28.0057 38.8896 28.9099 38.3219 29.4953C37.9131 29.9037 37.2568 30.2407 36.4765 30.2407C34.2959 30.2407 33.3375 28.5557 33.3375 26.4803V24.3079H33.586C33.638 25.036 33.7099 25.1063 34.6667 25.1063H37.7697C38.7292 25.1063 38.8011 25.036 38.8531 24.3781H39.1005V27.0125" fill="#231F20"/>
<path d="M36.2803 34.8391C35.7317 34.8391 35.288 34.4047 35.288 33.8724C35.288 33.3407 35.7317 32.8969 36.2803 32.8969C36.8219 32.8969 37.2751 33.3407 37.2751 33.8724C37.2751 34.4047 36.8219 34.8391 36.2803 34.8391Z" fill="#231F20"/>
<path d="M39.1005 38.6792L34.8713 40.6385L39.1005 42.4917V44.1672H38.8531C38.7812 43.4495 38.7473 43.4141 37.7697 43.4317L34.6667 43.5204C33.6745 43.5469 33.6552 43.5735 33.586 44.2923H33.3375V41.8177H33.586C33.6552 42.5099 33.6745 42.5365 34.6667 42.5265L38.0719 42.4917V42.4563L33.4443 40.4427V40.1776L37.8948 38.2349V38.1995L35.5989 38.1375C34.7995 38.1204 34.3125 38.1287 34.0469 38.1647C33.7099 38.1995 33.638 38.3855 33.586 38.9713H33.3375V36.8699H33.586C33.6213 37.3131 33.7099 37.4901 34.0469 37.5521C34.3125 37.5969 34.8349 37.6677 35.6875 37.712L37.5131 37.8093C38.6943 37.8719 38.7812 37.8093 38.8531 37.0475H39.1005V38.6792" fill="#231F20"/>
<path d="M35.7828 46.6636L35.8011 48.0729L37.7421 47.3557V47.3292L35.7828 46.6636ZM39.2229 47.8057L37.5781 48.4401C36.5041 48.8537 35.4088 49.2589 34.5276 49.6073C33.7421 49.9188 33.6823 50.0443 33.6355 50.5593L33.3869 50.5625L33.3557 48.2313L33.6041 48.2265L33.6432 48.4751C33.7005 48.8109 33.7891 48.8276 34.1251 48.7167C34.3896 48.6251 34.9364 48.4041 35.3959 48.2115L35.374 46.5708C35.1057 46.4604 34.6068 46.3068 34.2333 46.1871C33.7604 46.0344 33.6459 46.1073 33.6068 46.4975L33.5833 46.7453L33.336 46.75L33.3088 44.7808L33.5588 44.7776C33.6369 45.326 33.6719 45.424 34.4755 45.724L39.1109 47.4527L39.2229 47.8057" fill="#231F20"/>
<path d="M38.0771 50.548C38.9912 50.2631 39.0364 50.174 38.8688 49.4557L39.1057 49.3813L39.8505 51.7704L39.6136 51.8443C39.3765 51.2579 39.288 51.2115 38.3724 51.4975L35.638 52.35C34.7125 52.638 33.9531 52.7923 33.1693 52.2188C32.8828 52.0109 32.5989 51.7276 32.3697 51.3527L32.5751 51.1781C33.0145 51.6625 33.4651 51.7651 33.9453 51.726C34.3792 51.6833 34.8765 51.5469 35.4505 51.3677L38.0771 50.548" fill="#231F20"/>
<path d="M37.4235 54.1151C36.0755 54.9871 35.4183 56.2557 36.1005 57.3136C36.6016 58.088 37.6328 58.2661 39.0339 57.3609C40.5849 56.3604 41.0563 55.1792 40.4115 54.1808C39.9011 53.3912 38.7437 53.2651 37.4235 54.1151V54.1151ZM39.9349 58.1511C38.3489 59.1765 36.5964 58.7349 35.6823 57.3199C34.7344 55.8527 35.2057 54.1771 36.5599 53.3016C37.7828 52.5125 39.7281 52.4688 40.8593 54.2199C41.6901 55.5084 41.388 57.2136 39.9349 58.1511Z" fill="#231F20"/>
<path d="M41.7021 59.4833L41.9584 59.6989C42.2307 59.9271 42.4547 60.0443 42.7464 60.0568C43.1995 60.0656 43.5667 59.8183 43.8401 59.4927C44.4287 58.7839 44.1448 58.1313 43.7099 57.7683C43.3828 57.4953 43.3479 57.5115 43.1656 57.7281L41.7021 59.4833ZM44.0964 57.6511C44.5912 58.0651 44.8984 58.4151 45.0235 58.8199C45.1421 59.2183 45.0875 59.6568 44.7516 60.0573C44.276 60.6287 43.5875 60.7349 42.8661 60.4797C42.814 60.7609 42.6839 61.4584 42.6459 61.9459C42.5912 62.536 42.564 62.9276 42.5807 63.1719C42.6084 63.4713 42.6303 63.6641 42.788 63.8771L42.6136 64.0313L42.3401 63.7776C41.6432 63.1047 41.5703 62.7219 41.6224 62.1199C41.6667 61.6251 41.8063 61.0027 41.9036 60.4833C41.9531 60.2037 41.9297 60.0661 41.724 59.8964L41.5068 59.7156L40.7464 60.6271C40.1344 61.3609 40.1432 61.4609 40.6251 61.9333L40.4661 62.1235L38.5469 60.5224L38.7073 60.3313C39.2864 60.7459 39.3855 60.7365 39.9989 60.0021L41.986 57.6208C42.5979 56.8875 42.5885 56.7875 42.1068 56.3156L42.2645 56.1251L44.0964 57.6511" fill="#231F20"/>
<path d="M49.6265 61.4437C49.5703 61.5765 49.2776 62.1641 49.0521 62.6688L48.8125 62.5521C48.9453 62.1391 48.9755 61.8704 48.926 61.6885C48.8697 61.4833 48.6484 61.2969 48.1708 61.0245L47.7839 60.8057C47.4921 60.6401 47.4765 60.6308 47.3177 60.9084L46.3907 62.5432L47.0521 62.9204C47.7161 63.2964 47.7568 63.2589 48.1719 62.7099L48.4193 62.8495L47.4896 64.4849L47.2421 64.3437C47.512 63.6907 47.5145 63.65 46.8505 63.274L46.1875 62.8969L45.4677 64.162C45.2151 64.6089 45.1224 64.8423 45.2047 65.0213C45.2907 65.1927 45.564 65.3579 45.8869 65.5423C46.2735 65.7615 46.6459 65.9323 46.9183 65.8313C47.1303 65.7599 47.4104 65.5719 47.7541 65.2765L47.9584 65.4537C47.7787 65.6989 47.1615 66.388 46.9781 66.5699L43.2151 64.4317L43.3375 64.2147C44.0251 64.5448 44.124 64.5193 44.5964 63.686L46.1303 60.9875C46.6041 60.1552 46.5771 60.0584 46.0172 59.6792L46.1396 59.4631L49.6265 61.4437" fill="#231F20"/>
<path d="M51.7229 62.4052L51.9688 67.0599L55.262 63.8213L56.8177 64.4459L56.7255 64.6756C56.0328 64.4735 55.986 64.4948 55.6407 65.4063L54.5677 68.3204C54.224 69.2511 54.2412 69.2771 54.8817 69.6093L54.7907 69.8417L52.4948 68.9219L52.5875 68.6907C53.2541 68.8813 53.2864 68.8756 53.6459 67.9505L54.8803 64.7771L54.8453 64.7636L51.2593 68.3109L51.012 68.2131L50.8645 63.3593L50.8307 63.3459L49.9183 65.4537C49.6057 66.1885 49.4323 66.6437 49.3661 66.9041C49.2751 67.2303 49.4208 67.3656 49.9443 67.6328L49.8516 67.8641L47.9011 67.0817L47.9937 66.8516C48.4193 66.9833 48.6161 66.9667 48.7984 66.6771C48.9391 66.4469 49.1995 65.988 49.5563 65.2141L50.3271 63.5552C50.8229 62.4833 50.7995 62.3781 50.1161 62.0292L50.2084 61.7975L51.7229 62.4052" fill="#231F20"/>
<path d="M60.9661 68.6417C60.7943 69.1651 60.2421 69.4516 59.7369 69.2844C59.2333 69.1193 58.9495 68.5584 59.1213 68.0365C59.2891 67.5219 59.8516 67.2313 60.3568 67.398C60.8636 67.5647 61.1355 68.1287 60.9661 68.6417Z" fill="#231F20"/>
<path d="M65.986 68.4927C66.3047 69.2432 66.4505 69.3647 67.0807 69.0984C68.4364 68.5219 68.7333 67.2704 68.1588 65.9147C67.4167 64.1677 66.2787 63.9375 64.9713 64.4923C64.7031 64.6057 64.5041 64.7281 64.4729 64.7912C64.4417 64.8521 64.5041 64.9984 64.5937 65.2115L65.986 68.4927ZM65.1969 64.0599C66.1224 63.698 67.0417 63.5656 67.7932 63.8813C68.3219 64.1136 68.8751 64.6021 69.1588 65.3281C69.9531 67.3604 68.7333 68.8656 66.8011 69.6224L64.7776 70.412L64.6864 70.1823C65.3453 69.8672 65.3844 69.7756 65.0364 68.8833L63.9052 65.9927C63.5573 65.1011 63.4651 65.0604 62.8349 65.25L62.7437 65.0188L65.1969 64.0599" fill="#231F20"/>
<path d="M71.6588 61.1079C71.7396 61.226 72.0703 61.7932 72.3688 62.2579L72.1407 62.3943C71.8661 62.0573 71.6588 61.8839 71.4807 61.826C71.2776 61.7609 71 61.8432 70.512 62.0937L70.1172 62.2953C69.8167 62.4489 69.7995 62.4579 69.9469 62.7417L70.8021 64.4147L71.4817 64.0667C72.1604 63.7199 72.1527 63.6641 71.9193 63.0156L72.1735 62.8875L73.0287 64.5599L72.7776 64.6885C72.3765 64.1052 72.3453 64.0833 71.6683 64.4308L70.9896 64.7776L71.6511 66.0713C71.8855 66.5308 72.0312 66.7344 72.2255 66.7651C72.4167 66.7875 72.7047 66.6484 73.0355 66.4781C73.4297 66.2771 73.7776 66.0584 73.8427 65.7771C73.9 65.5584 73.8973 65.2213 73.836 64.7735L74.0964 64.6989C74.2031 64.9844 74.4427 65.8781 74.4912 66.1308L70.6407 68.1041L70.5276 67.8839C71.1812 67.488 71.2136 67.3932 70.7751 66.5401L69.362 63.7776C68.9245 62.9265 68.8297 62.8948 68.2047 63.1547L68.0937 62.9344L71.6588 61.1079" fill="#231F20"/>
<path d="M74.4443 59.4167L74.5745 59.6276C74.0287 60.0271 74.0052 60.1256 74.5104 60.9407L76.1448 63.5803C76.65 64.3943 76.7473 64.4188 77.3489 64.1089L77.4792 64.3199L75.3516 65.636L75.2229 65.4265C75.7812 65.0161 75.8047 64.9193 75.2995 64.1041L73.6656 61.4636C73.1615 60.6489 73.064 60.6251 72.4479 60.9453L72.3167 60.7333L74.4443 59.4167" fill="#231F20"/>
<path d="M79.1276 59.2719C79.4703 59.7027 79.4063 60.3199 78.9896 60.6511C78.5745 60.9817 77.9505 60.9115 77.6084 60.4803C77.2708 60.0573 77.3375 59.4276 77.7527 59.0975C78.1693 58.7656 78.7917 58.8489 79.1276 59.2719" fill="#231F20"/>
<path d="M85.1479 53.6724C85.4527 53.7713 85.7235 53.8589 85.9161 53.8672C85.8989 54.438 85.8812 55.1776 85.6729 55.8199C85.062 57.6995 83.5307 58.5917 81.8459 58.0443C79.924 57.4193 79.4177 55.5593 79.9552 53.9063C80.1912 53.1803 80.5349 52.6401 80.7016 52.3579C80.9943 52.4349 81.4484 52.526 82.1099 52.6667L82.0568 52.948C80.9229 52.8219 80.4735 53.4599 80.2495 54.15C79.8703 55.3136 80.4979 56.3943 82.0333 56.8927C83.3312 57.3156 84.8536 57.1943 85.3527 55.6589C85.4412 55.3891 85.4579 55.2183 85.4432 55.0647C85.4281 54.8828 85.3057 54.7688 84.9683 54.6593L84.2615 54.4281C83.6869 54.2427 83.6255 54.2599 83.2677 55.1313L83.0151 55.0489L83.7765 52.7052L84.0297 52.7871C83.9536 53.2475 83.976 53.2923 84.5672 53.4833L85.1479 53.6724" fill="#231F20"/>
<path d="M81.0932 48.9896L81.3396 49.0245C81.2912 49.7333 81.3511 49.8136 82.3005 49.9484L85.3563 50.3828C85.8651 50.4557 86.1183 50.4375 86.2459 50.3032C86.3703 50.1693 86.4292 49.8823 86.4697 49.6C86.5281 49.1969 86.6469 48.1265 86.4527 47.9109C86.3068 47.7375 86.0281 47.5552 85.6271 47.3547L85.7197 47.0817C85.9927 47.1745 86.8615 47.4943 87.114 47.6016L86.4369 52.3641L86.1896 52.3287C86.2417 51.5839 86.1817 51.5032 85.2339 51.3693L82.1609 50.9323C81.2131 50.798 81.1323 50.8579 80.9787 51.5532L80.7339 51.5183L81.0932 48.9896" fill="#231F20"/>
<path d="M83.962 45.7401C85.562 45.8495 86.8495 45.2271 86.9344 43.9708C86.9969 43.05 86.2755 42.2896 84.6131 42.1765C82.7713 42.0505 81.6869 42.7141 81.6063 43.8995C81.5421 44.8371 82.3937 45.6339 83.962 45.7401V45.7401ZM84.364 41.0032C86.2479 41.1328 87.3891 42.5344 87.2729 44.2156C87.1541 45.9579 85.7755 47.0204 84.1645 46.9099C82.7131 46.8115 81.1297 45.6803 81.2713 43.6016C81.3755 42.0708 82.6391 40.886 84.364 41.0032" fill="#231F20"/>
<path d="M84.3421 39.0193V38.6823C84.3421 38.3276 84.2901 38.0792 84.1115 37.8489C83.8276 37.4943 83.4021 37.3699 82.976 37.3699C82.0541 37.3699 81.7355 38.0084 81.7355 38.576C81.7355 39.0021 81.7703 39.0193 82.0541 39.0193H84.3421ZM81.3979 38.3537C81.3979 37.7063 81.4697 37.2453 81.7 36.8907C81.9307 36.5448 82.3031 36.3057 82.8251 36.3057C83.5708 36.3057 84.0948 36.7667 84.3599 37.4855C84.6088 37.3432 85.2303 36.9975 85.6287 36.7136C86.1151 36.3771 86.436 36.1459 86.6115 35.9776C86.8251 35.7651 86.9588 35.6229 87.0203 35.3651L87.2521 35.4011L87.2339 35.7735C87.1625 36.7401 86.9136 37.0417 86.4177 37.3875C86.0088 37.6713 85.4432 37.9641 84.9812 38.2213C84.7323 38.3631 84.6437 38.4699 84.6437 38.7349V39.0193H85.8328C86.7901 39.0193 86.8615 38.9484 86.9136 38.274H87.1625V40.7756H86.9136C86.8615 40.0656 86.7901 39.9953 85.8328 39.9953H82.7287C81.7703 39.9953 81.7 40.0656 81.6469 40.7396H81.3979V38.3537" fill="#231F20"/>
<path d="M81.3979 32.2599H81.6469C81.7 32.9328 81.7703 33.0052 82.7287 33.0052H85.8328C86.7901 33.0052 86.8615 32.9328 86.9136 32.2599H87.1625V34.7604H86.9136C86.8615 34.0688 86.7901 33.998 85.8328 33.998H82.7287C81.7703 33.998 81.7 34.0688 81.6469 34.7604H81.3979V32.2599Z" fill="#231F20"/>
<path d="M84.7156 29.8896V28.4803L82.764 29.1719V29.198L84.7156 29.8896ZM81.2912 28.7011L82.9412 28.0896C84.0229 27.6907 85.1235 27.3005 86.0088 26.9636C86.7989 26.6615 86.8615 26.5375 86.9136 26.0235H87.1625V28.3557H86.9136L86.8771 28.1073C86.8251 27.7708 86.7355 27.7532 86.3989 27.8593C86.1349 27.948 85.5844 28.1609 85.1235 28.3469V29.9875C85.3891 30.1027 85.8849 30.2625 86.2588 30.3865C86.7271 30.5453 86.8432 30.4751 86.8891 30.0855L86.9136 29.8371H87.1625V31.8052H86.9136C86.8432 31.2552 86.8084 31.1584 86.0088 30.8475L81.3979 29.0563L81.2912 28.7011" fill="#231F20"/>
<path d="M81.3979 23.6823L85.6287 21.7229L81.3979 19.8693V18.1932H81.6469C81.7172 18.912 81.7531 18.9475 82.7287 18.9297L85.8328 18.8412C86.8251 18.8136 86.8432 18.7871 86.9136 18.0699H87.1625V20.5443H86.9136C86.8432 19.8516 86.8251 19.8251 85.8328 19.8344L82.4265 19.8693V19.9047L87.0557 21.9188V22.1839L82.6036 24.126V24.1615L84.9021 24.224C85.6984 24.2407 86.1869 24.2323 86.4527 24.1964C86.7901 24.1615 86.8615 23.9751 86.9136 23.3907H87.1625V25.4917H86.9136C86.8771 25.048 86.7901 24.8708 86.4527 24.8093C86.1869 24.7651 85.6636 24.6932 84.812 24.6489L82.9855 24.5521C81.8057 24.4901 81.7172 24.5521 81.6469 25.3147H81.3979V23.6823" fill="#231F20"/>
<path d="M33.3021 9.45467V8.98027C34.7047 8.89693 34.8063 8.79374 34.8063 7.24587V2.43653C34.8063 0.887468 34.6839 0.806269 33.4027 0.722936V0.248399H37.8688V0.722936C36.4885 0.806269 36.3661 0.887468 36.3661 2.43653V7.3084C36.3661 8.11307 36.4661 8.52561 36.7489 8.67041C37.0276 8.81467 37.4495 8.83547 38.1891 8.83547C38.9703 8.83547 39.6125 8.69121 39.9312 8.31934C40.1735 8.07187 40.4131 7.59641 40.6145 6.93601L41.1344 6.99894C41.0344 7.47294 40.7333 9.062 40.6145 9.45467H33.3021" fill="#231F20"/>
<path d="M46.2421 9.0828C47.7844 9.0828 49.0057 8.05106 49.0057 5.16093C49.0057 2.8084 47.8828 0.619337 45.8803 0.619337C44.2593 0.619337 43.0979 2.04426 43.0979 4.562C43.0979 7.24586 44.2593 9.0828 46.2421 9.0828ZM41.2948 5.0584C41.2948 1.59013 43.9364 1.59554e-06 46.0615 1.59554e-06C48.9443 1.59554e-06 50.8088 2.08493 50.8088 4.7484C50.8088 7.98906 48.4245 9.70213 46.0807 9.70213C42.9765 9.70213 41.2948 7.28747 41.2948 5.0584Z" fill="#231F20"/>
<path d="M52.774 9.45467V8.98027C54.2161 8.87653 54.3167 8.77347 54.3167 7.26613V6.00734C54.3167 5.61467 54.276 5.4912 54.0145 5.03747C53.5937 4.27294 53.0328 3.324 52.1125 1.7552C51.5927 0.846403 51.4511 0.826536 50.5495 0.722936V0.248399H54.5563V0.722936L53.9349 0.806269C53.474 0.867202 53.4531 0.991199 53.6552 1.40467C53.7541 1.61093 55.0364 3.88133 55.5172 4.68653C56.138 3.59227 56.7579 2.20934 57.0787 1.52814C57.3401 0.950002 57.2995 0.867202 56.7579 0.806269L56.1771 0.722936V0.248399H59.7031V0.722936C58.6213 0.826536 58.5417 0.970804 58.0016 1.776C57.4599 2.5808 56.8593 3.57187 56.1979 4.76934C55.8973 5.32654 55.8765 5.4704 55.8765 5.78027V7.26613C55.8765 8.77347 55.9989 8.87653 57.4807 8.98027V9.45467H52.774" fill="#231F20"/>
<path d="M64.1344 9.0828C65.6771 9.0828 66.8973 8.05106 66.8973 5.16093C66.8973 2.8084 65.776 0.619337 63.774 0.619337C62.1516 0.619337 60.9901 2.04426 60.9901 4.562C60.9901 7.24586 62.1516 9.0828 64.1344 9.0828V9.0828ZM59.1864 5.0584C59.1864 1.59013 61.8297 1.59554e-06 63.9531 1.59554e-06C66.836 1.59554e-06 68.7011 2.08493 68.7011 4.7484C68.7011 7.98906 66.3167 9.70213 63.9729 9.70213C60.8688 9.70213 59.1864 7.28747 59.1864 5.0584" fill="#231F20"/>
<path d="M69.4016 9.45467V8.98027C70.8021 8.89693 70.9027 8.79374 70.9027 7.24587V2.43653C70.9027 0.887468 70.7828 0.806269 69.5005 0.722936V0.248399H73.9677V0.722936C72.5849 0.806269 72.4651 0.887468 72.4651 2.43653V7.3084C72.4651 8.11307 72.5651 8.52561 72.8464 8.67041C73.1265 8.81467 73.5469 8.83547 74.2896 8.83547C75.0693 8.83547 75.7099 8.69121 76.0303 8.31934C76.2708 8.07187 76.512 7.59641 76.7115 6.93601L77.2317 6.99894C77.1317 7.47294 76.8323 9.062 76.7115 9.45467H69.4016" fill="#231F20"/>
<path d="M80.5953 5.36827H82.9183L81.7579 2.23027H81.7177L80.5953 5.36827ZM83.1197 8.98027L83.5005 8.938C84.0615 8.87653 84.2412 8.71147 83.8412 7.74173L83.1604 6.06934H80.3765C80.2349 6.40001 79.8948 7.36987 79.6959 7.98907C79.4547 8.6912 79.6355 8.89693 80.2151 8.938L80.676 8.98027V9.45467H77.1708V8.98027C78.0521 8.87654 78.3948 8.79373 78.974 7.36987L81.9391 0.12454L82.4375 3.6153e-06L85.4235 7.61827C85.9036 8.83547 86.2855 8.91827 87.1656 8.98027V9.45467H83.1197V8.98027" fill="#231F20"/>
<path d="M48.0364 30.3484C47.6864 30.3484 47.4052 30.6427 47.4052 31.0063C47.4052 31.3636 47.6864 31.6489 48.0364 31.6489C48.3855 31.6489 48.6656 31.3636 48.6656 31.0063C48.6656 30.6427 48.3855 30.3484 48.0364 30.3484Z" fill="#231F20"/>
<path d="M48.0364 29.2224C48.3584 29.2224 48.6161 28.9563 48.6161 28.6281C48.6161 28.2995 48.3584 28.0328 48.0364 28.0328C47.7151 28.0328 47.4547 28.2995 47.4547 28.6281C47.4547 28.9563 47.7151 29.2224 48.0364 29.2224Z" fill="#231F20"/>
<path d="M57.262 28.3193C56.5755 28.3193 56.4131 29.4068 56.4131 29.9032C56.4131 30.4 56.5755 31.5005 57.262 31.5005C57.9495 31.5005 58.1136 30.4 58.1136 29.9032C58.1136 29.4068 57.9495 28.3193 57.262 28.3193Z" fill="#231F20"/>
<path d="M53.3959 36.0975H54.4245L54.2125 35.7427L53.3959 36.0975Z" fill="#231F20"/>
<path d="M71.238 44.3219C72.9193 45.1063 72.9193 46.926 72.9193 46.4527C72.9193 43.7412 72.0255 43.9328 72.062 42.2204C72.0973 40.5093 73.9297 40.6573 73.9297 40.6573C74.6479 40.6677 74.864 41.1073 74.864 41.1073C74.864 41.1073 74.5027 41.0308 74.3563 41.2256C74.3563 41.2256 73.812 41.6208 74.7885 43.948C74.9855 44.4167 75.8536 46.0532 74.8057 47.236C74.0636 48.0719 72.8812 47.7615 72.8812 47.7615C72.8068 48.2099 72.7693 48.4333 72.7693 48.4333H73.6287C74.4151 48.4719 74.4516 49.3317 74.4516 49.3317V52.9584L73.8527 53.5557H71.8719C71.836 52.6584 72.9943 52.2849 72.9943 52.2849V50.7147H71.1609C70.1896 50.6401 69.6677 48.7704 69.6677 48.7704L68.9568 48.8459C68.9193 48.9584 69.9656 50.8641 69.9656 50.8641L67.8344 52.8828V53.4813H65.5177C65.4057 52.9193 66.5255 52.4339 66.5255 52.4339L67.9839 50.8641C68.1703 50.6615 68.0401 50.4557 67.7875 50.3724C67.5099 50.2813 67.2875 50.2177 66.976 50.0984C66.6599 49.9781 65.3292 49.1448 65.8917 47.5365C66.4421 45.9568 68.2833 46.6027 68.2833 46.4151C68.2833 46.2297 67.312 43.986 67.312 43.986L68.0973 42.8256L67.1609 43.4245L64.6948 42.9756C64.4333 45.0699 63.4604 44.5459 63.4604 44.5459V42.9756C63.4604 42.9756 63.4969 41.9423 64.4333 41.6303C65.5541 41.2568 66.3396 41.4803 66.6755 41.4052C67.0125 41.3303 66.9151 41.0323 66.9151 41.0323L65.4421 41.0693L64.1339 39.9849L63.4229 39.9099C62.114 39.6865 62.6011 38.6765 62.6011 38.6765C62.6011 38.6765 63.7599 38.6765 64.4708 38.6765C65.1792 38.6765 67.0125 40.0224 67.0125 40.0224C67.0125 40.0224 67.2745 38.5271 65.8917 38.0037C64.5073 37.4808 64.8068 37.0699 64.8068 37.0699L66.114 37.5177C66.114 37.5177 66.2651 37.3683 66.0417 37.0313C65.9203 36.8505 64.8803 36.4708 64.8803 36.4708C64.0584 36.1719 64.3197 35.4995 64.3197 35.4995L65.7797 35.648C66.114 35.35 66.0765 35.312 66.5636 35.2375C67.0489 35.1625 67.7979 35.836 67.7208 35.6109C67.6479 35.3871 67.5724 34.7136 67.4984 34.0407C67.4317 33.4365 69.4047 36.2469 69.4047 36.2469C71.9464 41.0693 71.238 44.3219 71.238 44.3219V44.3219ZM64.1948 46.9891V49.8005C64.1948 49.8005 64.2417 51.2651 63.0057 52.5016C61.7213 53.7855 60.2844 53.6484 60.2625 53.6464C60.2407 53.6484 58.8047 53.7855 57.5188 52.5016C56.2817 51.2651 56.3287 49.8005 56.3287 49.8005V46.9891C56.3287 46.9891 55.9797 46.8975 55.9631 46.5541C55.9396 46.1193 56.3979 46.1885 56.3979 46.1885H57.3131C57.2677 47.1505 57.864 47.0355 57.864 47.0355C58.5031 47.0579 58.3667 46.1885 58.3667 46.1885H60.2584H60.2661H62.1584C62.1584 46.1885 62.0188 47.0579 62.6609 47.0355C62.6609 47.0355 63.2557 47.1505 63.2115 46.1885H64.1271C64.1271 46.1885 64.5839 46.1193 64.5604 46.5541C64.5437 46.8975 64.1948 46.9891 64.1948 46.9891ZM53.2084 43.986C53.2084 43.986 52.2369 46.2297 52.2369 46.4151C52.2369 46.6027 54.0781 45.9568 54.6292 47.5365C55.1901 49.1448 53.8593 49.9781 53.5459 50.0984C53.2317 50.2177 53.0093 50.2813 52.7333 50.3724C52.4817 50.4557 52.3505 50.6615 52.5364 50.8641L53.9937 52.4339C53.9937 52.4339 55.1161 52.9193 55.0027 53.4813H52.6849V52.8828L50.5536 50.8641C50.5536 50.8641 51.6005 48.9584 51.564 48.8459L50.8541 48.7704C50.8541 48.7704 50.3297 50.6401 49.3584 50.7147H47.526V52.2849C47.526 52.2849 48.6849 52.6584 48.6459 53.5557H46.6667L46.0677 52.9584V49.3317C46.0677 49.3317 46.1057 48.4719 46.8907 48.4333H47.7489C47.7489 48.4333 47.7125 48.2099 47.638 47.7615C47.638 47.7615 46.4557 48.0719 45.7136 47.236C44.6656 46.0532 45.5339 44.4167 45.7317 43.948C46.7073 41.6208 46.164 41.2256 46.164 41.2256C46.0183 41.0308 45.6563 41.1073 45.6563 41.1073C45.6563 41.1073 45.8713 40.6677 46.5901 40.6573C46.5901 40.6573 48.4219 40.5093 48.4584 42.2204C48.4948 43.9328 47.6005 43.7412 47.6005 46.4527C47.6005 46.926 47.6005 45.1063 49.2839 44.3219C49.2839 44.3219 48.5745 41.0693 51.1161 36.2469C51.1161 36.2469 53.0885 33.4365 53.0208 34.0407C52.9469 34.7136 52.8713 35.3871 52.7984 35.6109C52.7229 35.836 53.4703 35.1625 53.9557 35.2375C54.4417 35.312 54.4052 35.35 54.7421 35.648L56.1995 35.4995C56.1995 35.4995 56.4609 36.1719 55.6396 36.4708C55.6396 36.4708 54.5989 36.8505 54.4792 37.0313C54.2568 37.3683 54.4052 37.5177 54.4052 37.5177L55.7136 37.0699C55.7136 37.0699 56.012 37.4808 54.6292 38.0037C53.2448 38.5271 53.5079 40.0224 53.5079 40.0224C53.5079 40.0224 55.3401 38.6765 56.0495 38.6765C56.7604 38.6765 57.9193 38.6765 57.9193 38.6765C57.9193 38.6765 58.4052 39.6865 57.0979 39.9099L56.3855 39.9849L55.0781 41.0693L53.6041 41.0323C53.6041 41.0323 53.5079 41.3303 53.8427 41.4052C54.1797 41.4803 54.9651 41.2568 56.086 41.6303C57.0235 41.9423 57.0588 42.9756 57.0588 42.9756V44.5459C57.0588 44.5459 56.086 45.0699 55.8255 42.9756L53.3584 43.4245L52.4219 42.8256L53.2084 43.986ZM45.1161 32.6193H43.7828V28.4751H43.224L43.4453 27.2989H45.1161V32.6193ZM46.2385 28.586C46.2385 27.5787 47.1328 27.0813 48.0364 27.0813C48.9375 27.0813 49.8333 27.5787 49.8333 28.586C49.8333 29.1459 49.4844 29.6208 49.0016 29.7823V29.7964C49.6317 30.0063 50.0511 30.488 50.0511 31.1803C50.0511 32.2719 48.9453 32.7756 48.0364 32.7756C47.1251 32.7756 46.0197 32.2719 46.0197 31.1803C46.0197 30.488 46.4401 30.0063 47.0703 29.7964V29.7823C46.5885 29.6208 46.2385 29.1459 46.2385 28.586V28.586ZM50.7516 28.6208V27.3469H55.1536L52.2084 32.6193H50.5563L52.8921 28.6208H50.7516ZM57.262 27.1432C58.7855 27.1432 59.4364 28.5776 59.4364 29.9099C59.4364 31.2427 58.7917 32.6765 57.262 32.6765C55.7333 32.6765 55.0875 31.2427 55.0875 29.9099C55.0875 28.5776 55.7396 27.1432 57.262 27.1432ZM60.2385 34.986C60.2473 34.986 60.2527 34.9948 60.262 34.9959C60.2708 34.9948 60.276 34.986 60.2855 34.986C60.4855 34.986 60.6495 35.1495 60.6495 35.3505C60.6495 35.4855 60.5755 35.6027 60.4688 35.6661L60.4677 35.6719L60.4651 42.9344L62.8645 45.3708V46.1448H62.5041L62.5016 45.5276L60.262 43.2432L58.0224 45.5276L58.0197 46.1448H57.6588V45.3708L60.0588 42.9344L60.0563 35.6719L60.0547 35.6661C59.9479 35.6027 59.874 35.4855 59.874 35.3505C59.874 35.1495 60.038 34.986 60.2385 34.986V34.986ZM78.2651 23.2427L68.0453 32.6251H65.4615L78.2651 20.8808L78.2656 18.5317L62.8781 32.6256H60.2943L75.7969 18.5317H73.2136L60.2937 30.276V27.9265L70.6297 18.5317H68.0453L60.2948 25.5787V23.2292L65.4615 18.5317H62.8781L60.2943 20.8803V18.5317H42.2369V47.2303C42.2369 57.7667 60.2527 62.186 60.2527 62.186C60.2527 62.186 78.2656 57.7667 78.2656 47.2303L78.2651 32.6251H75.7969L78.2656 30.2765V27.9276L73.2136 32.6251H70.6297L78.2656 25.5781L78.2651 23.2427" fill="#231F20"/>
<path d="M67.1245 36.0975H66.0959L66.3084 35.7427L67.1245 36.0975Z" fill="#231F20"/>
<path d="M33.3021 12.4647H33.9521V14.3475C33.9521 14.5573 33.9765 14.7115 34.0265 14.8079C34.1036 14.9797 34.2724 15.0651 34.5317 15.0651C34.7907 15.0651 34.9584 14.9797 35.0355 14.8079C35.0849 14.7115 35.1093 14.5573 35.1093 14.3475V12.4647H35.7599V14.3484C35.7599 14.6745 35.7099 14.9287 35.6099 15.1093C35.4208 15.4412 35.062 15.6089 34.5317 15.6089C34.0021 15.6089 33.6421 15.4412 33.4527 15.1093C33.3516 14.9287 33.3021 14.6745 33.3021 14.3484V12.4647" fill="#231F20"/>
<path d="M36.9079 12.4647H37.5797L38.7953 14.6016V12.4647H39.3927V15.5292H38.7521L37.5047 13.3552V15.5292H36.9079V12.4647" fill="#231F20"/>
<path d="M41.1776 15.5292H40.5407V12.4647H41.1776V15.5292Z" fill="#231F20"/>
<path d="M44.1093 12.4647H44.7751L43.7303 15.5292H43.124L42.0891 12.4647H42.7724L43.4375 14.7917L44.1093 12.4647" fill="#231F20"/>
<path d="M47.7984 13.0079H46.1776V13.6584H47.6651V14.1907H46.1776V14.9787H47.874V15.5292H45.5511V12.4647H47.7984V13.0079" fill="#231F20"/>
<path d="M49.4959 12.9975V13.8208H50.1844C50.3203 13.8208 50.4235 13.8032 50.4921 13.7699C50.6136 13.7125 50.6745 13.598 50.6745 13.426C50.6745 13.2401 50.6151 13.1147 50.4984 13.0516C50.4323 13.0156 50.3328 12.9975 50.2021 12.9975H49.4959ZM50.8188 12.5432C50.9317 12.5927 51.0265 12.6647 51.1052 12.7584C51.1703 12.836 51.2213 12.9219 51.2593 13.0156C51.2973 13.1099 51.3161 13.2183 51.3161 13.338C51.3161 13.4828 51.2787 13.6265 51.2057 13.7677C51.1317 13.9079 51.0115 14.0079 50.8421 14.0656C50.9833 14.1224 51.0844 14.2032 51.1421 14.3079C51.2016 14.4131 51.2307 14.5724 51.2307 14.7875V14.9923C51.2307 15.1328 51.2369 15.2276 51.2473 15.2781C51.2645 15.3573 51.3047 15.4147 51.3656 15.4521V15.5292H50.6593C50.6396 15.4615 50.626 15.4073 50.6183 15.3651C50.6005 15.2792 50.5917 15.1912 50.5901 15.1016L50.5875 14.8167C50.5833 14.6204 50.55 14.4907 50.4844 14.4256C50.4197 14.3604 50.2984 14.3276 50.1208 14.3276H49.4959V15.5292H48.8693V12.4647H50.3349C50.5443 12.4693 50.7052 12.4953 50.8188 12.5432" fill="#231F20"/>
<path d="M52.7151 14.5833C52.7339 14.7235 52.7729 14.8281 52.8317 14.8975C52.9375 15.0235 53.1197 15.0871 53.3765 15.0871C53.5312 15.0871 53.6563 15.0693 53.7531 15.0365C53.936 14.9729 54.0265 14.8547 54.0265 14.6813C54.0265 14.5803 53.9807 14.5021 53.8921 14.4459C53.8031 14.3917 53.6609 14.3443 53.4672 14.3032L53.1349 14.2303C52.8093 14.1584 52.5855 14.0792 52.4631 13.9953C52.2557 13.8547 52.1531 13.6328 52.1531 13.3317C52.1531 13.0579 52.2547 12.8297 52.4563 12.6484C52.6584 12.4667 52.9552 12.3756 53.3469 12.3756C53.6729 12.3756 53.9521 12.4615 54.1828 12.6323C54.4136 12.8037 54.5355 13.0521 54.5464 13.3776H53.9303C53.9197 13.1937 53.8369 13.0625 53.6844 12.9849C53.5812 12.9339 53.4547 12.9079 53.3021 12.9079C53.1328 12.9079 52.9979 12.9412 52.8973 13.0079C52.7959 13.074 52.7464 13.1672 52.7464 13.2865C52.7464 13.3959 52.7959 13.4776 52.8948 13.5313C52.9588 13.5677 53.0948 13.6104 53.3021 13.6584L53.8401 13.7849C54.076 13.8407 54.2521 13.9151 54.3703 14.0079C54.5527 14.1521 54.6437 14.3604 54.6437 14.6328C54.6437 14.9131 54.5355 15.1453 54.3197 15.3317C54.1031 15.5156 53.7969 15.6089 53.4021 15.6089C52.9979 15.6089 52.6812 15.5167 52.45 15.3349C52.2193 15.1527 52.1031 14.9027 52.1031 14.5833H52.7151Z" fill="#231F20"/>
<path d="M56.2584 15.5292H55.6224V12.4647H56.2584V15.5292Z" fill="#231F20"/>
<path d="M59.7193 12.4647V13.0079H58.8027V15.5292H58.1588V13.0079H57.2369V12.4647H59.7193Z" fill="#231F20"/>
<path d="M62.1323 12.4647H62.8573L61.8328 14.3808V15.5292H61.1921V14.3808L60.1323 12.4647H60.8869L61.5229 13.7995L62.1323 12.4647" fill="#231F20"/>
<path d="M65.5599 12.7855C65.8073 12.5323 66.1203 12.4073 66.5027 12.4073C67.0125 12.4073 67.3855 12.576 67.6213 12.9147C67.7516 13.1041 67.8208 13.2943 67.8307 13.4865H67.1901C67.15 13.3391 67.0979 13.2281 67.0333 13.1532C66.9193 13.0208 66.75 12.9541 66.5265 12.9541C66.2984 12.9541 66.1188 13.0464 65.9869 13.2355C65.8552 13.4229 65.7885 13.6891 65.7885 14.0328C65.7885 14.376 65.8588 14.6328 65.9973 14.8047C66.1369 14.976 66.3131 15.0615 66.5271 15.0615C66.7464 15.0615 66.914 14.988 67.0297 14.8412C67.0937 14.762 67.1459 14.6437 67.1885 14.486H67.8245C67.7697 14.8199 67.6297 15.0917 67.4036 15.3005C67.1787 15.5093 66.8891 15.6151 66.536 15.6151C66.1005 15.6151 65.7579 15.4729 65.5088 15.1907C65.2599 14.9063 65.1349 14.5172 65.1349 14.0219C65.1349 13.4875 65.2765 13.0751 65.5599 12.7855Z" fill="#231F20"/>
<path d="M68.7328 15.5292V12.4647H69.3688V13.6333H70.5604V12.4647H71.1964V15.5292H70.5604V14.1615H69.3688V15.5292H68.7328Z" fill="#231F20"/>
<path d="M73.0229 15.5292H72.3864V12.4647H73.0229V15.5292Z" fill="#231F20"/>
<path d="M74.4421 12.7855C74.6891 12.5323 75.0027 12.4073 75.3833 12.4073C75.8948 12.4073 76.2677 12.576 76.5027 12.9147C76.6323 13.1041 76.7027 13.2943 76.7125 13.4865H76.0719C76.0317 13.3391 75.9792 13.2281 75.9156 13.1532C75.8021 13.0208 75.6323 12.9541 75.4079 12.9541C75.1807 12.9541 75.0005 13.0464 74.8677 13.2355C74.7364 13.4229 74.6708 13.6891 74.6708 14.0328C74.6708 14.376 74.7401 14.6328 74.8792 14.8047C75.0188 14.976 75.1948 15.0615 75.4084 15.0615C75.6287 15.0615 75.7964 14.988 75.9115 14.8412C75.976 14.762 76.0287 14.6437 76.0703 14.486H76.7063C76.6505 14.8199 76.512 15.0917 76.2864 15.3005C76.0599 15.5093 75.7708 15.6151 75.4188 15.6151C74.9828 15.6151 74.6396 15.4729 74.3901 15.1907C74.1412 14.9063 74.0161 14.5172 74.0161 14.0219C74.0161 13.4875 74.1579 13.0751 74.4421 12.7855" fill="#231F20"/>
<path d="M78.1864 14.3719H78.9708L78.5839 13.1656L78.1864 14.3719ZM78.2287 12.4647H78.9531L80.0369 15.5292H79.3421L79.1401 14.8989H78.012L77.8047 15.5292H77.1344L78.2287 12.4647Z" fill="#231F20"/>
<path d="M82.7417 13.4208C82.6932 13.212 82.5751 13.0661 82.3869 12.9823C82.2807 12.9371 82.1645 12.9147 82.0355 12.9147C81.7885 12.9147 81.586 13.0068 81.4281 13.1937C81.2688 13.3792 81.1891 13.6593 81.1891 14.0328C81.1891 14.4089 81.2745 14.6751 81.4479 14.8313C81.6188 14.9871 81.8145 15.0651 82.0328 15.0651C82.2479 15.0651 82.424 15.0041 82.5604 14.8808C82.6979 14.7573 82.7839 14.5959 82.8145 14.3959H82.1057V13.8855H83.3828V15.5292H82.9584L82.8937 15.1469C82.7703 15.2917 82.6593 15.3937 82.5604 15.4532C82.3921 15.5568 82.1849 15.6089 81.9369 15.6089C81.5312 15.6089 81.1984 15.4677 80.9401 15.1865C80.6697 14.9041 80.5344 14.5188 80.5344 14.0271C80.5344 13.5313 80.6703 13.1344 80.9432 12.8349C81.2172 12.536 81.5776 12.386 82.026 12.386C82.4161 12.386 82.7292 12.4849 82.9651 12.6817C83.2011 12.8797 83.338 13.1265 83.3724 13.4208H82.7417" fill="#231F20"/>
<path d="M86.3803 14.7917C86.5292 14.6041 86.6036 14.3375 86.6036 13.9932C86.6036 13.6489 86.5292 13.3839 86.3803 13.1953C86.2312 13.0079 86.0307 12.9147 85.7765 12.9147C85.5229 12.9147 85.3208 13.0079 85.1688 13.1948C85.0177 13.3813 84.9427 13.648 84.9427 13.9932C84.9427 14.3375 85.0177 14.6041 85.1688 14.7917C85.3208 14.9787 85.5229 15.0719 85.7765 15.0719C86.0307 15.0719 86.2312 14.9787 86.3803 14.7917ZM86.7797 15.2573C86.5489 15.4953 86.214 15.6151 85.7765 15.6151C85.3375 15.6151 85.0036 15.4953 84.7713 15.2573C84.4615 14.9647 84.3068 14.5437 84.3068 13.9932C84.3068 13.4323 84.4615 13.0093 84.7713 12.7287C85.0036 12.4912 85.3375 12.3719 85.7765 12.3719C86.214 12.3719 86.5489 12.4912 86.7797 12.7287C87.0896 13.0093 87.2437 13.4323 87.2437 13.9932C87.2437 14.5437 87.0896 14.9647 86.7797 15.2573Z" fill="#231F20"/>
</g>
<defs>
<clipPath id="clip0">
<path d="M0 0H119.658V86.7344H0V0Z" fill="white"/>
</clipPath>
</defs>
</svg>
